<?xml version="1.0" encoding="UTF-8"?> <svg xmlns="http://www.w3.org/2000/svg" width="193" height="33" viewBox="0 0 193 33"><g fill="#B5B6BB"><path d="M118.45 23.56C117.34 29.06 113.1 29.34 112.25 29.34 109.85 29.34 108.42 27.96 108.42 25.64 108.432359 24.9680302 108.505997 24.298589 108.64 23.64L111.26 10.55 111.26 10.55 108.15 10.55 105.49 24 105.49 24.19C105.349569 24.823902 105.275834 25.4707554 105.27 26.12 105.165822 27.7216108 105.748945 29.2917477 106.873301 30.4371013 107.997656 31.582455 109.556736 32.194528 111.16 32.12 113.488749 32.2204273 115.745489 31.3002033 117.34 29.6L116.93 31.81 116.93 31.86 120 31.86 124.23 10.6 124.23 10.6 121 10.6 118.41 23.6 118.45 23.56zM139.61 10.27C137.343036 10.2095468 135.177049 11.2075269 133.75 12.97L134.23 10.58 134.23 10.58 131.17 10.58 127 31.79 127 31.84 130.11 31.84 132.7 18.84C133.36 15.49 135.93 13.07 138.81 13.07 139.996978 13.0303809 141.12432 13.5902942 141.81 14.56L141.81 14.56 144.33 12.31 144.33 12.31C143.172052 10.9668158 141.461586 10.2295459 139.69 10.31L139.61 10.27z"></path><polygon points="88.29 13.23 88.28 13.28 98.87 13.28 84.77 29.23 84.76 29.23 84.23 31.84 99.26 31.84 99.8 29.08 88.56 29.08 102.71 13.14 102.71 13.13 103.24 10.53 88.82 10.53 88.29 13.23"></polygon><polygon points="144.67 31.79 144.66 31.84 147.77 31.84 152 10.53 148.95 10.53 144.67 31.79"></polygon><path d="M186.76 10.27C184.482107 10.1560449 182.265886 11.0308691 180.68 12.67L183.09.8 180 .8 173.77 31.8 176.87 31.8 179.46 18.8C180.57 13.31 184.86 13.03 185.7 13.03 186.718337 12.9224396 187.731655 13.2741458 188.464381 13.9894722 189.197107 14.7047986 189.57306 15.7093725 189.49 16.73 189.475341 17.4013213 189.4051 18.070275 189.28 18.73L186.64 31.87 189.74 31.87 192.47 18.44C192.612145 17.7455515 192.685831 17.0388347 192.69 16.33 192.79144 14.7255937 192.204617 13.1539438 191.076488 12.0086346 189.948358 10.8633253 188.385756 10.2528179 186.78 10.33L186.76 10.27zM166.18 10.27C160.55 10.27 156.6 14.27 155.33 21.15 155.135889 22.2326754 155.035517 23.3300752 155.03 24.43 155.03 29.16 157.9 32.1000071 162.52 32.1000071 165.192448 32.1032172 167.751496 31.0204041 169.61 29.1L169.61 29.1 167.82 26.91 167.82 26.91 167.82 26.91C166.579726 28.4513456 164.708389 29.3484105 162.73 29.35 160.53 29.35 158.17 28.04 158.17 24.35 158.179398 23.2814509 158.293273 22.2163819 158.51 21.17 158.841011 18.9233298 159.793527 16.813941 161.26 15.08 162.466041 13.7920564 164.155584 13.0669305 165.92 13.08 167.602798 13.0138035 169.179974 13.8990322 170 15.37L170 15.42 172.28 13.49 172.28 13.49 172.28 13.49C170.940852 11.4145955 168.597041 10.2102958 166.13 10.33L166.18 10.27z"></path><polygon points="150.1 4.68 153.21 4.68 153.99 .8 150.89 .8 150.1 4.68"></polygon><polygon points="119.92 4.68 123.03 4.68 123.8 .8 120.7 .8 119.92 4.68"></polygon><polygon points="111.64 4.68 114.75 4.68 115.52 .8 112.42 .8 111.64 4.68"></polygon><polygon points="70.16 12.83 63.18 12.83 65.63 .8 6.26 .8 .03 31.84 23.7 31.84 25.25 24.08 11.27 24.08 12.12 19.81 26.09 19.81 27.5 12.83 13.52 12.83 14.37 8.56 36.52 8.56 31.84 31.84 41.55 31.84 46.22 8.56 54.37 8.56 49.69 31.84 59.4 31.84 61.79 19.81 68.78 19.81 66.38 31.84 76.08 31.84 82.32 .8 72.62 .8 70.16 12.83"></polygon></g></svg> 