<?xml version="1.0" encoding="UTF-8"?> <svg xmlns="http://www.w3.org/2000/svg" xmlns:xlink="http://www.w3.org/1999/xlink" width="265" height="184" viewBox="0 0 265 184"><defs><polygon id="european_commision-a" points=".336 .443 80.96 .443 80.96 72.17 .336 72.17"></polygon></defs><g fill="none" fill-rule="evenodd"><path fill="#B5B6BB" d="M0,48.732 C0,48.732 78.509,38.574 80.727,38.212 C84.124,37.658 87.142,37.009 89.957,36.23 C96.307,34.491 102.152,31.837 107.327,28.339 C112.288,25.011 116.903,20.171 121.478,14.861 C124.387,11.483 127.442,7.077 130.292,2.825 L130.292,0.774 C126.911,5.778 123.58,10.09 120.155,13.897 C115.616,18.95 110.854,23.083 106,26.184 C100.991,29.41 95.353,31.818 89.241,33.342 C86.502,34.032 83.569,34.591 80.273,35.051 C78.099,35.356 75.859,35.591 73.694,35.819 C72.829,35.91 0,43.635 0,43.635 L0,48.732"></path><path fill="#B5B6BB" d="M105.284,35.569 C100.37,38.395 94.694,40.463 88.415,41.716 C85.733,42.257 82.811,42.697 79.478,43.061 C77.521,43.273 75.548,43.443 73.573,43.614 C72.507,43.706 71.442,43.798 70.38,43.896 C46.321,46.053 22.385,48.348 0,50.521 L0,55.613 C22.562,52.892 46.664,50.011 70.714,47.29 C71.784,47.164 72.854,47.046 73.925,46.929 C75.895,46.712 77.868,46.494 79.847,46.233 C83.269,45.778 86.264,45.255 89,44.634 C95.523,43.176 101.417,40.873 106.508,37.791 C111.569,34.753 116.042,30.501 120.85,25.3 C123.844,22.063 127.175,17.495 130.292,13.203 L130.292,11.335 C126.621,16.316 123.136,20.5 119.688,24.069 C114.993,28.932 110.147,32.8 105.284,35.569"></path><path fill="#B5B6BB" d="M119.024,34.321 C114.233,38.714 109.232,42.17 104.157,44.593 C99.195,46.986 93.642,48.666 87.179,49.729 C84.512,50.17 81.612,50.532 78.318,50.831 L0,57.262 L0,62.344 L69.618,54.957 L78.626,54.01 C82.018,53.618 84.978,53.178 87.671,52.666 C94.365,51.403 100.107,49.515 105.223,46.896 C110.453,44.252 115.679,39.851 120.537,35.192 C123.798,32.068 126.937,28.033 130.292,23.801 L130.292,22.108 C126.417,26.924 122.717,30.938 119.024,34.321"></path><path fill="#B5B6BB" d="M100.085,60.71 C95.526,63.26 92.117,64.73 85.606,65.409 C81.67,65.833 77.626,66.035 73.713,66.23 C71.819,66.324 69.923,66.418 68.032,66.537 C56.2,67.213 44.581,67.963 32.727,68.736 L0,70.94 L0,76.021 L33.053,72.988 C43.734,72.03 56.146,70.925 68.262,69.937 L77.07,69.255 C80.508,68.99 83.328,68.71 85.94,68.369 C92.64,67.505 98.364,66.151 103.435,64.235 C108.895,62.192 114.044,59.023 119.201,55.295 C123.851,51.936 130.285,45.31 130.292,45.223 L130.292,43.428 C126.085,47.531 123.663,49.836 119.059,52.87 C113.556,56.495 104.173,58.423 100.085,60.71"></path><path fill="#B5B6BB" d="M101.75,70.367 C96.81,71.815 91.248,72.795 84.749,73.363 C82.116,73.591 79.276,73.766 76.066,73.896 L67.306,74.28 C45.539,75.291 23.878,76.422 0,77.685 L0,82.754 C22.808,80.988 45.161,79.271 67.503,77.681 L76.238,77.085 C79.609,76.863 82.404,76.623 85.034,76.326 C91.697,75.581 97.396,74.431 102.454,72.813 C108.06,71.037 113.523,68.463 118.693,65.162 C122.512,62.731 126.33,59.834 130.292,56.375 L130.292,56.287 C125.926,60.013 121.765,60.84 117.618,63.344 C112.541,66.42 107.202,68.783 101.75,70.367"></path><path fill="#B5B6BB" d="M100.943,78.786 C95.966,79.949 90.574,80.697 83.969,81.139 C81.421,81.31 78.684,81.438 75.349,81.542 L66.673,81.85 C44.813,82.677 22.647,83.627 0,84.61 L0,89.676 C22.502,88.142 44.577,86.647 66.844,85.253 L75.5,84.735 C78.894,84.542 81.66,84.344 84.201,84.112 C90.928,83.492 96.432,82.588 101.521,81.27 C107.231,79.799 112.781,77.643 118.019,74.861 C122.068,72.715 126.107,70.134 130.292,67.027 L130.292,64.86 C125.769,68.128 121.43,70.79 117.086,72.962 C111.944,75.536 106.514,77.495 100.943,78.786"></path><path fill="#B5B6BB" d="M100.202,87.04 C95.209,87.955 89.831,88.538 83.276,88.877 C80.81,89.004 78.171,89.095 74.719,89.173 L0,91.197 L0,96.258 L66.259,92.8 L74.842,92.364 C78.192,92.206 80.932,92.044 83.466,91.849 C90.111,91.341 95.578,90.61 100.668,89.546 C106.447,88.347 112.055,86.595 117.337,84.344 C121.591,82.54 125.854,80.339 130.292,77.663 L130.292,75.63 C125.549,78.388 121.041,80.602 116.564,82.373 C111.354,84.443 105.85,86.013 100.202,87.04"></path><path fill="#B5B6BB" d="M99.615 95.33C90.447 96.553 81.008 96.693 71.88 96.829 69.788 96.859 67.695 96.892 65.606 96.935L0 98.117 0 103.171 65.719 100.34C67.803 100.245 69.89 100.162 71.978 100.078 81.17 99.71 90.676 99.331 99.968 97.856 105.851 96.929 111.512 95.557 116.793 93.78 121.168 92.316 125.701 90.421 130.292 88.18L130.292 86.24C125.467 88.487 120.722 90.355 116.167 91.754 110.946 93.365 105.378 94.569 99.615 95.33M99.094 103.672C90.503 104.381 81.712 104.382 73.209 104.382 70.564 104.382 67.919 104.383 65.273 104.404 43.54 104.499 21.978 104.677 0 104.868L0 109.924C20.933 109.213 43.14 108.471 65.347 107.812 67.983 107.724 70.62 107.657 73.26 107.589 81.809 107.374 90.649 107.15 99.328 106.211 105.392 105.561 110.908 104.608 116.193 103.3 120.803 102.167 125.537 100.656 130.292 98.84L130.292 96.983C125.384 98.744 120.493 100.183 115.73 101.23 110.496 102.385 105.053 103.184 99.094 103.672M98.762 111.896C95.183 112.037 91.308 112.105 86.912 112.105 85.251 112.105 83.589 112.095 81.933 112.08L65.023 111.874C53.485 111.788 41.991 111.77 31.208 111.76L0 111.789 0 116.843 31.282 116.024C42.026 115.76 53.554 115.487 65.055 115.278L81.95 115.057C86.585 114.984 92.701 114.848 98.896 114.441 104.967 114.047 110.492 113.443 115.787 112.597 120.552 111.834 125.421 110.809 130.292 109.568L130.292 107.774C125.288 108.927 120.314 109.849 115.488 110.494 110.223 111.2 104.752 111.657 98.762 111.896M81.736 119.842L64.884 119.661C43.387 119.359 21.909 118.966 0 118.557L0 123.613C20.913 123.475 43.062 123.316 64.9 123.069L81.76 122.819C87.441 122.723 93.005 122.619 98.631 122.432 110.216 122.06 120.594 121.245 130.292 119.962L130.292 118.204C120.557 119.251 110.164 119.804 98.572 119.879 92.963 119.929 87.35 119.889 81.736 119.842"></path><polyline fill="#B5B6BB" points="130.292 128.781 0 125.478 0 130.53 130.292 130.53 130.292 128.781"></polyline><path fill="#B5B6BB" d="M118.56,43.87 C113.611,47.845 109.788,50.67 103.73,53.077 C98.455,55.173 92.789,56.032 86.315,56.915 C82.149,57.498 77.795,58.361 73.636,58.638 C71.926,58.753 70.215,58.866 68.509,59 L0,63.993 L0,69.066 L68.786,62.396 L77.704,61.56 C81.012,61.247 83.948,60.883 86.681,60.442 C93.347,59.372 99.091,57.738 104.239,55.446 C109.581,53.09 114.986,49.233 120.009,45.006 C123.427,42.137 126.714,38.525 130.292,34.581 L130.292,32.763 C125.964,37.236 122.377,40.811 118.56,43.87"></path><polygon fill="#B5B6BB" points="167.806 54.69 54.739 54.751 54.739 131.112 167.799 131.112 167.806 130.28"></polygon><polygon stroke="#FFFFFE" points="167.806 130.28 167.806 54.69 54.739 54.751 54.739 131.112 167.799 131.112"></polygon><polyline fill="#FFFFFE" points="112.468 65.026 116.44 65.026 113.239 67.52 114.483 71.476 111.294 69.039 108.105 71.476 109.362 67.52 106.136 65.026 110.094 65.026 111.294 61.168 112.468 65.026"></polyline><polyline fill="#FFFFFE" points="112.608 115.95 116.585 115.95 113.384 118.356 114.628 122.157 111.439 119.815 108.25 122.157 109.507 118.356 106.274 115.95 110.24 115.95 111.439 112.238 112.608 115.95"></polyline><polyline fill="#FFFFFE" points="125.205 112.578 129.183 112.578 125.981 114.977 127.226 118.785 124.037 116.436 120.848 118.785 122.104 114.977 118.872 112.578 122.837 112.578 124.037 108.865 125.205 112.578"></polyline><polyline fill="#FFFFFE" points="125.205 68.423 129.183 68.423 125.981 70.823 127.226 74.63 124.037 72.285 120.848 74.63 122.104 70.823 118.872 68.423 122.837 68.423 124.037 64.711 125.205 68.423"></polyline><polyline fill="#FFFFFE" points="134.557 77.775 138.528 77.775 135.327 80.171 136.571 83.982 133.382 81.636 130.2 83.982 131.456 80.171 128.223 77.775 132.182 77.775 133.382 74.062 134.557 77.775"></polyline><polyline fill="#FFFFFE" points="134.557 103.354 138.528 103.354 135.327 105.76 136.571 109.567 133.382 107.217 130.2 109.567 131.456 105.76 128.223 103.354 132.182 103.354 133.382 99.641 134.557 103.354"></polyline><polyline fill="#FFFFFE" points="138.061 90.369 142.04 90.369 138.837 92.77 140.081 96.578 136.892 94.229 133.704 96.578 134.96 92.77 131.728 90.369 135.687 90.369 136.892 86.659 138.061 90.369"></polyline><polyline fill="#FFFFFE" points="99.626 68.455 103.597 68.455 100.396 70.858 101.64 74.665 98.451 72.316 95.262 74.665 96.519 70.858 93.292 68.455 97.252 68.455 98.451 64.742 99.626 68.455"></polyline><polyline fill="#FFFFFE" points="90.533 77.806 94.511 77.806 91.309 80.206 92.547 84.014 89.364 81.668 86.176 84.014 87.429 80.206 84.199 77.806 88.165 77.806 89.364 74.094 90.533 77.806"></polyline><polyline fill="#FFFFFE" points="87.158 90.4 91.133 90.4 87.931 92.802 89.175 96.609 85.986 94.267 82.797 96.609 84.054 92.802 80.827 90.4 84.787 90.4 85.986 86.691 87.158 90.4"></polyline><polyline fill="#FFFFFE" points="90.533 103.385 94.511 103.385 91.309 105.79 92.547 109.598 89.364 107.25 86.176 109.598 87.429 105.79 84.199 103.385 88.165 103.385 89.364 99.678 90.533 103.385"></polyline><polyline fill="#FFFFFE" points="99.758 112.61 103.729 112.61 100.528 115.01 101.766 118.817 98.583 116.468 95.395 118.817 96.651 115.01 93.425 112.61 97.384 112.61 98.583 108.897 99.758 112.61"></polyline><polygon fill="#B5B6BB" points="54.207 184 168.316 184 168.316 177.484 54.207 177.484"></polygon><g transform="translate(184)"><mask id="european_commision-b" fill="#fff"><use xlink:href="#european_commision-a"></use></mask><path fill="#B5B6BB" d="M0.383,0.443 C0.383,0.443 24.234,37.531 28.594,44.349 C32.956,51.165 37.94,56.557 55.586,60.221 C73.233,63.883 80.916,65.613 80.916,65.613 L80.916,66.937 C80.916,66.937 69.703,64.596 55.275,61.441 C40.846,58.288 34.948,57.226 28.371,48.269 C22.897,40.813 0.383,9.131 0.383,9.131 L0.383,0.443" mask="url(#european_commision-b)"></path><path fill="#B5B6BB" d="M0.383,10.989 C0.383,10.989 25.029,46.247 28.299,50.568 C31.571,54.889 35.978,61.857 55.458,65.968 C60.488,67.03 80.981,71.055 80.981,71.055 L80.981,72.17 C80.981,72.17 65.41,69.173 55.458,67.083 C45.504,64.992 35.044,63.084 28.371,54.679 C22.309,47.044 0.336,18.886 0.336,18.886 L0.383,10.989" mask="url(#european_commision-b)"></path></g><path fill="#B5B6BB" d="M184.383,21.58 C184.383,21.58 207.607,51.544 212.299,57.536 C216.992,63.529 223.461,68.477 239.458,71.543 C248.681,73.311 264.909,76.281 264.909,76.281 L264.909,77.396 C264.909,77.396 250.69,74.748 239.458,72.727 C228.224,70.707 218.948,68.753 212.299,61.299 C206.467,54.76 184.336,29.06 184.336,29.06 L184.383,21.58"></path><path fill="#B5B6BB" d="M184.337,31.986 C184.337,31.986 207.849,59.169 212.371,64.017 C219.411,71.566 222.823,74.168 239.458,77.326 C246.113,78.59 264.909,81.856 264.909,81.856 L264.909,83.041 C264.909,83.041 249.34,80.253 239.458,78.511 C229.576,76.769 221.211,76.119 212.299,67.571 C205.509,61.058 184.383,39.001 184.383,39.001 L184.337,31.986"></path><path fill="#B5B6BB" d="M184.383,42.811 C184.383,42.811 206.094,65.08 212.371,71.474 C219.03,78.255 227.562,80.764 239.386,82.832 C250.673,84.804 264.909,87.082 264.909,87.082 L264.909,88.337 C264.909,88.337 251.542,86.192 239.386,84.156 C227.467,82.158 219.125,81.043 212.299,74.887 C206.187,69.375 184.383,49.361 184.383,49.361 L184.383,42.811"></path><path fill="#B5B6BB" d="M184.383,52.845 C184.383,52.845 205.031,71.612 212.371,78.023 C219.125,83.923 224.599,85.758 239.458,88.337 C254.317,90.915 264.909,92.518 264.909,92.518 L264.909,93.841 C264.909,93.841 251.472,91.682 239.386,89.799 C227.3,87.919 219.599,87.175 212.371,81.438 C204.027,74.814 184.383,58.977 184.383,58.977 L184.383,52.845"></path><path fill="#B5B6BB" d="M184.336,63.576 C184.336,63.576 207.892,81.856 212.299,85.062 C216.707,88.267 222.538,92.006 239.458,94.399 C256.236,96.772 264.838,97.952 264.838,97.952 L264.838,99.347 C264.838,99.347 249.625,97.186 239.458,95.932 C229.291,94.677 221.496,94.145 212.371,88.196 C203.488,82.408 184.383,69.243 184.383,69.243 L184.336,63.576"></path><path fill="#B5B6BB" d="M184.336,73.842 C184.336,73.842 207.962,89.243 212.442,91.682 C216.921,94.12 222.182,98.092 239.458,100.252 C256.734,102.413 264.838,103.388 264.838,103.388 L264.838,104.711 C264.838,104.711 250.548,103.18 239.386,101.994 C228.224,100.809 220.619,99.207 212.299,94.748 C203.981,90.288 184.383,79.092 184.383,79.092 L184.336,73.842"></path><path fill="#B5B6BB" d="M184.383,84.109 C184.383,84.109 205.293,95.242 212.371,98.719 C220.263,102.598 227.087,104.455 239.458,105.896 C251.603,107.312 264.909,108.684 264.909,108.684 L264.909,109.939 C264.909,109.939 252.607,108.649 239.458,107.43 C226.423,106.221 221.781,105.664 212.371,101.577 C203.955,97.921 184.337,88.987 184.337,88.987 L184.383,84.109"></path><path fill="#B5B6BB" d="M184.383 94.562C184.383 94.562 200.831 101.456 212.442 105.966 223.865 110.401 232.585 110.775 239.529 111.541 242.586 111.877 264.838 114.118 264.838 114.118L264.838 115.372C264.838 115.372 251.543 114.327 239.458 113.283 227.371 112.238 222.158 111.796 212.371 108.614 202.467 105.397 184.336 99.207 184.336 99.207L184.383 94.562M184.383 105.153C184.383 105.153 201.067 110.217 212.442 113.144 223.817 116.069 234.268 117.255 239.529 117.603 244.79 117.952 264.838 119.553 264.838 119.553L264.838 120.738C264.838 120.738 253.468 119.975 239.458 118.996 228.129 118.207 219.03 117.371 212.371 115.93 204.99 114.335 184.337 109.519 184.337 109.519L184.383 105.153M184.337 115.607C184.337 115.607 198.027 117.911 212.442 120.251 223.248 122.004 237.894 123.109 239.458 123.178 241.022 123.247 264.909 124.851 264.909 124.851L264.909 126.104C264.909 126.104 249.621 125.33 239.458 124.78 228.871 124.208 218.348 123.58 212.371 122.969 198.983 121.601 184.337 119.786 184.337 119.786L184.337 115.607M184.383 126.429C184.383 126.429 205.902 127.22 212.442 127.359 218.983 127.498 264.909 129.311 264.909 129.311L264.909 130.565 184.383 130.518 184.383 126.429M60.828 138.055C60.828 137.821 60.936 137.695 61.188 137.695L67.814 137.695C68.03 137.695 68.156 137.821 68.156 138.037L68.156 139.153C68.156 139.369 68.066 139.478 67.796 139.478L62.88 139.478 62.88 142.574 67.238 142.574C67.472 142.574 67.598 142.683 67.598 142.899L67.598 144.015C67.598 144.231 67.508 144.339 67.238 144.339L62.88 144.339 62.88 147.886 67.922 147.886C68.138 147.886 68.246 147.994 68.246 148.228L68.246 149.326C68.246 149.561 68.156 149.651 67.904 149.651L61.188 149.651C60.936 149.651 60.828 149.542 60.828 149.326L60.828 138.055M76.598 149.651L75.319 149.651C75.049 149.651 74.977 149.525 74.977 149.309L74.977 148.75 74.941 148.733C74.239 149.219 73.014 149.813 71.916 149.813 69.485 149.813 69.252 148.372 69.252 146.482L69.252 141.188C69.252 140.972 69.341 140.828 69.593 140.828L70.908 140.828C71.142 140.828 71.232 140.954 71.232 141.188L71.232 146.247C71.232 147.328 71.448 148.012 72.546 148.012 73.32 148.012 74.509 147.436 74.977 147.201L74.977 141.188C74.977 140.972 75.049 140.828 75.319 140.828L76.598 140.828C76.85 140.828 76.94 140.954 76.94 141.188L76.94 149.309C76.94 149.542 76.85 149.651 76.598 149.651M80.448 149.309C80.448 149.525 80.358 149.651 80.106 149.651L78.81 149.651C78.557 149.651 78.467 149.542 78.467 149.309L78.467 141.188C78.467 140.954 78.557 140.828 78.81 140.828L80.088 140.828C80.358 140.828 80.448 140.972 80.448 141.188L80.448 141.981 80.484 142.016C81.024 141.512 82.302 140.9 83.149 140.737 83.383 140.684 83.545 140.737 83.581 141.044L83.707 142.25C83.725 142.502 83.743 142.61 83.365 142.683 82.356 142.881 81.078 143.24 80.448 143.511L80.448 149.309M88.026 142.376C86.496 142.376 86.154 143.349 86.154 145.221 86.154 147.13 86.496 148.067 88.008 148.067 89.647 148.067 89.971 147.148 89.971 145.221 89.971 143.313 89.665 142.376 88.026 142.376zM88.008 149.795C84.389 149.795 84.155 147.148 84.155 145.095 84.155 143.402 84.533 140.648 88.008 140.648 91.502 140.648 91.987 142.971 91.987 145.095 91.987 147.148 91.735 149.795 88.008 149.795L88.008 149.795zM97.368 142.485C96.63 142.485 95.496 143.007 94.956 143.295L94.956 147.796C95.766 148.03 96.414 148.102 97.026 148.102 98.323 148.102 98.773 147.436 98.773 145.167 98.773 142.881 98.323 142.485 97.368 142.485zM97.224 149.813C96.63 149.813 95.802 149.704 94.974 149.416L94.956 149.435 94.956 152.604C94.956 152.802 94.901 152.963 94.613 152.963L93.335 152.963C93.047 152.963 92.993 152.837 92.993 152.604L92.993 141.188C92.993 140.954 93.083 140.828 93.335 140.828L94.613 140.828C94.866 140.828 94.938 140.972 94.938 141.188L94.938 141.729 94.992 141.764C95.64 141.314 96.792 140.684 97.836 140.684 100.195 140.684 100.807 142.466 100.807 145.186 100.807 148.12 100.069 149.813 97.224 149.813L97.224 149.813zM103.919 144.429L107.485 144.429C107.485 143.33 107.197 142.269 105.702 142.269 104.37 142.269 104.01 143.078 103.919 144.429zM103.901 145.779C103.956 147.598 104.604 148.102 106.08 148.102 106.729 148.102 107.737 147.976 108.421 147.904 108.745 147.868 108.853 147.868 108.907 148.21L109.015 148.804C109.069 149.074 109.033 149.219 108.709 149.362 108.007 149.633 106.692 149.813 105.81 149.813 102.371 149.813 101.867 147.616 101.867 145.276 101.867 143.528 102.191 140.648 105.702 140.648 108.925 140.648 109.501 142.736 109.555 144.681 109.573 145.329 109.393 145.779 108.673 145.779L103.901 145.779 103.901 145.779zM115.926 145.635L113.73 145.635C112.83 145.635 112.253 145.959 112.253 147.148 112.253 147.94 112.523 148.193 113.37 148.193 114.144 148.193 115.242 147.742 115.926 147.346L115.926 145.635zM116.035 148.624C115.134 149.309 113.928 149.795 112.722 149.795 110.813 149.795 110.255 148.75 110.255 147.237 110.237 145.131 111.371 144.231 113.64 144.231L115.944 144.231 115.944 143.763C115.944 142.683 115.548 142.305 114.072 142.305 113.478 142.305 112.343 142.395 111.623 142.466 111.263 142.521 111.173 142.502 111.119 142.25L110.957 141.584C110.921 141.35 110.975 141.206 111.371 141.044 112.146 140.774 113.568 140.648 114.414 140.648 117.529 140.648 117.907 141.926 117.907 143.943L117.907 147.418C117.907 148.156 117.997 148.174 118.555 148.246 118.825 148.264 118.897 148.318 118.897 148.516L118.897 149.273C118.897 149.471 118.771 149.597 118.465 149.651 118.177 149.704 117.889 149.74 117.619 149.74 116.773 149.74 116.25 149.488 116.07 148.643L116.035 148.624 116.035 148.624zM126.745 149.651L125.449 149.651C125.214 149.651 125.107 149.542 125.107 149.309L125.125 144.249C125.125 143.187 124.873 142.485 123.828 142.485 123.108 142.485 121.848 143.061 121.361 143.295L121.361 149.309C121.361 149.525 121.271 149.651 121.019 149.651L119.741 149.651C119.489 149.651 119.399 149.542 119.399 149.309L119.399 141.188C119.399 140.954 119.489 140.828 119.741 140.828L121.019 140.828C121.271 140.828 121.361 140.954 121.361 141.188L121.361 141.729C121.379 141.729 121.397 141.746 121.416 141.746 122.082 141.278 123.342 140.666 124.44 140.666 126.871 140.666 127.087 142.269 127.087 144.087L127.087 149.309C127.087 149.525 127.015 149.651 126.745 149.651M65.527 156.568C66.409 156.568 67.868 156.695 68.822 157.091 69.11 157.217 69.218 157.361 69.164 157.65L69.002 158.388C68.948 158.604 68.858 158.693 68.534 158.657 67.652 158.55 66.571 158.424 65.635 158.424 63.187 158.424 62.826 160.404 62.826 162.744 62.826 165.104 63.276 166.958 65.635 166.958 66.679 166.958 67.562 166.85 68.534 166.724 68.876 166.688 68.948 166.777 69.02 167.012L69.164 167.696C69.236 167.985 69.146 168.147 68.858 168.273 67.976 168.651 66.409 168.813 65.527 168.813 61.512 168.813 60.666 165.842 60.666 162.78 60.666 159.702 61.422 156.568 65.527 156.568M73.249 161.376C71.718 161.376 71.376 162.349 71.376 164.221 71.376 166.13 71.718 167.067 73.231 167.067 74.869 167.067 75.193 166.148 75.193 164.221 75.193 162.313 74.887 161.376 73.249 161.376zM73.231 168.795C69.611 168.795 69.377 166.148 69.377 164.095 69.377 162.402 69.755 159.648 73.231 159.648 76.723 159.648 77.21 161.971 77.21 164.095 77.21 166.148 76.958 168.795 73.231 168.795L73.231 168.795zM90.819 168.651L89.523 168.651C89.271 168.651 89.181 168.542 89.181 168.309L89.181 163.194C89.181 161.862 88.857 161.485 87.956 161.485 87.29 161.485 86.21 162.007 85.652 162.295 85.652 162.475 85.67 162.799 85.67 163.213L85.67 168.309C85.67 168.525 85.598 168.651 85.328 168.651L84.013 168.651C83.779 168.651 83.707 168.542 83.707 168.309L83.707 163.105C83.707 162.007 83.419 161.485 82.519 161.485 81.889 161.485 80.88 161.935 80.196 162.295L80.196 168.309C80.196 168.525 80.106 168.651 79.854 168.651L78.558 168.651C78.324 168.651 78.233 168.542 78.233 168.309L78.233 160.188C78.233 159.954 78.324 159.828 78.558 159.828L79.836 159.828C80.106 159.828 80.196 159.972 80.196 160.188L80.196 160.71 80.214 160.729C80.917 160.242 81.907 159.702 82.897 159.666 83.941 159.666 84.806 159.882 85.364 160.926 86.264 160.26 87.38 159.666 88.533 159.666 90.909 159.666 91.144 161.214 91.144 163.015L91.144 168.309C91.144 168.525 91.071 168.651 90.819 168.651M104.931 168.651L103.635 168.651C103.383 168.651 103.292 168.542 103.292 168.309L103.292 163.194C103.292 161.862 102.969 161.485 102.068 161.485 101.402 161.485 100.322 162.007 99.764 162.295 99.764 162.475 99.782 162.799 99.782 163.213L99.782 168.309C99.782 168.525 99.71 168.651 99.44 168.651L98.125 168.651C97.891 168.651 97.819 168.542 97.819 168.309L97.819 163.105C97.819 162.007 97.531 161.485 96.631 161.485 96.001 161.485 94.992 161.935 94.308 162.295L94.308 168.309C94.308 168.525 94.218 168.651 93.966 168.651L92.669 168.651C92.436 168.651 92.345 168.542 92.345 168.309L92.345 160.188C92.345 159.954 92.436 159.828 92.669 159.828L93.948 159.828C94.218 159.828 94.308 159.972 94.308 160.188L94.308 160.71 94.326 160.729C95.028 160.242 96.019 159.702 97.009 159.666 98.053 159.666 98.918 159.882 99.476 160.926 100.376 160.26 101.492 159.666 102.645 159.666 105.021 159.666 105.255 161.214 105.255 163.015L105.255 168.309C105.255 168.525 105.183 168.651 104.931 168.651M108.69 168.309C108.69 168.506 108.618 168.651 108.366 168.651L107.087 168.651C106.835 168.651 106.727 168.542 106.727 168.309L106.727 160.17C106.727 159.918 106.835 159.828 107.087 159.828L108.366 159.828C108.618 159.828 108.69 159.972 108.69 160.17L108.69 168.309zM107.736 158.531C106.799 158.531 106.673 158.009 106.673 157.487 106.673 156.911 106.872 156.461 107.736 156.461 108.618 156.461 108.798 156.875 108.798 157.487 108.798 158.045 108.636 158.531 107.736 158.531L107.736 158.531zM113.154 168.795C112.254 168.795 111.047 168.668 110.363 168.399 110.003 168.254 109.931 168.092 109.985 167.804L110.111 167.21C110.166 166.922 110.292 166.904 110.58 166.94 111.372 167.067 112.524 167.156 113.136 167.156 114.289 167.156 114.757 166.85 114.757 166.13 114.757 165.302 114.451 165.121 113.316 164.959 111.552 164.707 110.003 164.329 110.003 162.366 110.003 160.584 111.372 159.648 113.388 159.648 114.126 159.648 115.369 159.756 116.125 160.044 116.431 160.17 116.557 160.314 116.503 160.584L116.359 161.233C116.305 161.485 116.197 161.521 115.873 161.485 115.099 161.395 114.09 161.286 113.424 161.286 112.272 161.286 112.002 161.61 112.002 162.295 112.002 162.997 112.434 163.087 113.532 163.267 115.243 163.519 116.792 163.861 116.792 166.004 116.792 168.11 115.009 168.795 113.154 168.795M120.696 168.795C119.796 168.795 118.589 168.668 117.905 168.399 117.545 168.254 117.473 168.092 117.527 167.804L117.653 167.21C117.708 166.922 117.833 166.904 118.122 166.94 118.914 167.067 120.066 167.156 120.678 167.156 121.831 167.156 122.299 166.85 122.299 166.13 122.299 165.302 121.993 165.121 120.858 164.959 119.094 164.707 117.545 164.329 117.545 162.366 117.545 160.584 118.914 159.648 120.93 159.648 121.668 159.648 122.911 159.756 123.667 160.044 123.973 160.17 124.099 160.314 124.045 160.584L123.901 161.233C123.847 161.485 123.739 161.521 123.415 161.485 122.641 161.395 121.632 161.286 120.966 161.286 119.814 161.286 119.544 161.61 119.544 162.295 119.544 162.997 119.976 163.087 121.074 163.267 122.785 163.519 124.333 163.861 124.333 166.004 124.333 168.11 122.551 168.795 120.696 168.795M127.5 168.309C127.5 168.506 127.428 168.651 127.176 168.651L125.898 168.651C125.646 168.651 125.538 168.542 125.538 168.309L125.538 160.17C125.538 159.918 125.646 159.828 125.898 159.828L127.176 159.828C127.428 159.828 127.5 159.972 127.5 160.17L127.5 168.309zM126.546 158.531C125.61 158.531 125.484 158.009 125.484 157.487 125.484 156.911 125.682 156.461 126.546 156.461 127.428 156.461 127.609 156.875 127.609 157.487 127.609 158.045 127.447 158.531 126.546 158.531L126.546 158.531zM132.703 161.376C131.172 161.376 130.831 162.349 130.831 164.221 130.831 166.13 131.172 167.067 132.685 167.067 134.324 167.067 134.648 166.148 134.648 164.221 134.648 162.313 134.341 161.376 132.703 161.376zM132.685 168.795C129.066 168.795 128.832 166.148 128.832 164.095 128.832 162.402 129.209 159.648 132.685 159.648 136.178 159.648 136.665 161.971 136.665 164.095 136.665 166.148 136.412 168.795 132.685 168.795L132.685 168.795zM144.98 168.651L143.684 168.651C143.45 168.651 143.342 168.542 143.342 168.309L143.36 163.249C143.36 162.187 143.108 161.485 142.063 161.485 141.343 161.485 140.083 162.061 139.597 162.295L139.597 168.309C139.597 168.525 139.506 168.651 139.254 168.651L137.976 168.651C137.724 168.651 137.634 168.542 137.634 168.309L137.634 160.188C137.634 159.954 137.724 159.828 137.976 159.828L139.254 159.828C139.506 159.828 139.597 159.954 139.597 160.188L139.597 160.729C139.615 160.729 139.632 160.746 139.651 160.746 140.317 160.278 141.578 159.666 142.675 159.666 145.106 159.666 145.323 161.269 145.323 163.087L145.323 168.309C145.323 168.525 145.25 168.651 144.98 168.651"></path></g></svg> 