<?xml version="1.0" encoding="UTF-8"?> <svg xmlns="http://www.w3.org/2000/svg" width="200" height="83" viewBox="0 0 200 83"><g fill="none" fill-rule="evenodd"><polygon fill="#B5B6BB" points="89.83 2.698 99.414 2.698 99.414 5.558 93.454 5.558 93.454 8.678 99.082 8.678 99.082 11.539 93.454 11.539 93.454 14.963 99.628 14.963 99.628 17.823 89.83 17.823"></polygon><path fill="#B5B6BB" d="M112.323333 17.8234405L109.130079 17.8234405 109.130079 15.7441425 109.089206 15.7441425C108.389206 17.3683954 106.985635 18.0829554 105.38881 18.0829554 102.62254 18.0829554 101.513413 15.9158276 101.513413 13.5770147L101.513413 6.53235923 105.018571 6.53235923 105.018571 11.993696C105.018571 14.1179025 105.68127 14.8324625 106.636825 14.8324625 108.077302 14.8324625 108.818175 13.7272392 108.818175 11.3001992L108.818175 6.53235923 112.323333 6.53235923 112.323333 17.8234405zM121.612698 9.65440619C121.223016 9.52365523 120.832937 9.52365523 120.425794 9.52365523 118.788095 9.52365523 117.873413 10.845472 117.873413 13.055521L117.873413 17.823361 114.36627 17.823361 114.36627 6.53267716 117.561905 6.53267716 117.561905 8.61396232 117.600794 8.61396232C118.205159 7.18285523 119.080159 6.2727649 120.59881 6.2727649 121.00873 6.2727649 121.437698 6.33714684 121.788095 6.40351587L121.612698 9.65440619zM130.221944 12.1887097C130.221944 10.4996774 129.558849 9.00418839 127.942976 9.00418839 126.327103 9.00418839 125.664008 10.4996774 125.664008 12.1887097 125.664008 13.8582684 126.327103 15.3537574 127.942976 15.3537574 129.558849 15.3537574 130.221944 13.8582684 130.221944 12.1887097M122.041786 12.1887097C122.041786 8.4398529 124.593373 6.27272516 127.942976 6.27272516 131.292183 6.27272516 133.844167 8.4398529 133.844167 12.1887097 133.844167 15.9157084 131.292183 18.0832335 127.942976 18.0832335 124.593373 18.0832335 122.041786 15.9157084 122.041786 12.1887097M140.971508 9.26398142C139.686984 9.26398142 138.829048 10.5214163 138.829048 12.2100511 138.829048 13.8581492 139.804048 15.0921363 140.971508 15.0921363 142.295317 15.0921363 143.094921 13.8581492 143.094921 12.0598266 143.094921 10.5643375 142.33619 9.26398142 140.971508 9.26398142L140.971508 9.26398142zM135.323889 6.53251819L138.556032 6.53251819 138.556032 8.57088206 138.595317 8.57088206C139.296905 6.98756335 140.776667 6.27300335 142.373095 6.27300335 145.178651 6.27300335 146.71873 9.24252077 146.71873 11.9719969 146.71873 15.3107169 145.100476 18.0831143 142.083016 18.0831143 140.854444 18.0831143 139.530635 17.5851479 138.867937 16.2418705L138.829048 16.2418705 138.829048 22.3744485 135.323889 22.3744485 135.323889 6.53251819zM155.189405 11.1051458C155.189405 9.80478968 154.643373 8.74248774 153.241786 8.74248774 151.974325 8.74248774 151.370357 9.80478968 151.292579 11.1051458L155.189405 11.1051458zM151.333056 13.3155923C151.52631 14.8774503 152.598532 15.48272 154.312024 15.48272 155.267183 15.48272 156.356865 15.2442684 157.41004 14.615551L157.41004 17.3684748C156.279087 17.8664413 154.994563 18.0830348 153.688214 18.0830348 150.339008 18.0830348 147.787024 15.8944465 147.787024 12.1674477 147.787024 8.44005161 150.065992 6.27292387 153.222341 6.27292387 156.981071 6.27292387 158.34377 9.24244129 158.34377 12.6006348L158.34377 13.3155923 151.333056 13.3155923zM164.260595 15.482561C165.586389 15.482561 166.4225 14.1392836 166.4225 12.8174668 165.976071 12.7960062 165.469325 12.7530849 164.942738 12.7530849 163.755833 12.7530849 162.819722 13.1648114 162.819722 14.2485739 162.819722 15.0275159 163.443532 15.482561 164.260595 15.482561L164.260595 15.482561zM166.676071 17.823361C166.65623 17.2161043 166.598294 16.6322952 166.598294 16.0464991L166.559008 16.0464991C165.761389 17.4545559 164.786786 18.0828759 163.345913 18.0828759 161.340357 18.0828759 159.548294 16.9780501 159.548294 14.5299468 159.548294 11.0835262 162.917341 10.6717997 164.786786 10.6717997 165.352262 10.6717997 165.976071 10.7381688 166.4225 10.8240114 166.403056 9.28560103 165.371706 8.87347716 164.10623 8.87347716 162.976071 8.87347716 161.847103 9.11153135 160.872103 9.71878813L160.813373 7.07515458C162.059405 6.51121652 163.365754 6.2727649 164.864563 6.2727649 167.455833 6.2727649 169.695516 7.5087391 169.695516 10.9547623L169.695516 15.1582668C169.695516 16.0464991 169.734802 16.9351288 169.890754 17.823361L166.676071 17.823361zM171.795238 6.53247845L174.988889 6.53247845 174.988889 8.61376361 175.027778 8.61376361C175.729365 6.98752361 177.130952 6.27296361 178.730159 6.27296361 181.494048 6.27296361 182.605556 8.44009135 182.605556 10.7808914L182.605556 17.8235597 179.1 17.8235597 179.1 12.3626204C179.1 10.2380165 178.437302 9.52345652 177.482143 9.52345652 176.04127 9.52345652 175.300794 10.6286797 175.300794 13.0557197L175.300794 17.8235597 171.795238 17.8235597 171.795238 6.53247845z"></path><polygon fill="#B5B6BB" points="89.771 43.054 93.394 43.054 93.394 27.929 89.771 27.929"></polygon><path fill="#B5B6BB" d="M95.7894048,31.7657063 L98.9826587,31.7657063 L98.9826587,33.8450044 L99.0235317,33.8450044 C99.7239286,32.2207515 101.1275,31.5061915 102.723929,31.5061915 C105.490595,31.5061915 106.599722,33.6733192 106.599722,36.0141192 L106.599722,43.0567876 L103.094563,43.0567876 L103.094563,37.5958483 C103.094563,35.4716418 102.431468,34.7566844 101.47631,34.7566844 C100.035437,34.7566844 99.2945635,35.8619076 99.2945635,38.2889476 L99.2945635,43.0567876 L95.7894048,43.0567876 L95.7894048,31.7657063 Z"></path><polygon fill="#B5B6BB" points="107.163 31.766 110.922 31.766 113.025 39.806 113.064 39.806 115.187 31.766 118.675 31.766 114.916 43.057 110.922 43.057"></polygon><path fill="#B5B6BB" d="M126.344365 36.3383339C126.344365 35.0379778 125.800317 33.9760733 124.396746 33.9760733 123.13127 33.9760733 122.527302 35.0379778 122.449524 36.3383339L126.344365 36.3383339zM122.488016 38.5487804C122.682857 40.1082539 123.753492 40.7159081 125.468968 40.7159081 126.422143 40.7159081 127.51381 40.4774565 128.565 39.8487391L128.565 42.601663C127.436032 43.0996294 126.149524 43.3166204 124.845159 43.3166204 121.493968 43.3166204 118.943968 41.1276346 118.943968 37.4006359 118.943968 33.6732397 121.222937 31.506112 124.377302 31.506112 128.136032 31.506112 129.500714 34.4736423 129.500714 37.833823L129.500714 38.5487804 122.488016 38.5487804zM130.898571 39.9366483C131.717222 40.3253244 132.923968 40.7155902 134.189048 40.7155902 134.910476 40.7155902 135.61246 40.5848392 135.61246 39.8058973 135.61246 37.8982844 130.625556 39.2415618 130.625556 35.1688083 130.625556 32.568096 132.923968 31.5061915 134.949365 31.5061915 136.158095 31.5061915 137.384683 31.6584031 138.512857 32.1563695L138.242222 34.864385C137.501746 34.3664186 136.390238 34.1069037 135.514841 34.1069037 134.754524 34.1069037 133.898968 34.2571283 133.898968 34.8858457 133.898968 36.641247 139.117619 35.2546508 139.117619 39.5463825 139.117619 42.5568341 136.682698 43.3163025 134.383889 43.3163025 132.807302 43.3163025 131.736667 43.1426302 130.703333 42.7758121L130.898571 39.9366483zM139.700437 31.7657063L141.765119 31.7657063 141.765119 29.2297734 145.213929 28.0387076 145.213929 31.7657063 147.668294 31.7657063 147.668294 34.4971695 145.213929 34.4971695 145.213929 38.6577528C145.213929 40.0224908 145.505992 40.7155902 146.615516 40.7155902 146.96631 40.7155902 147.336548 40.6297476 147.687738 40.5633786L147.804802 43.0997089C147.141706 43.1855515 146.479008 43.3163025 145.603611 43.3163025 142.467103 43.3163025 141.706786 41.7778921 141.706786 39.0913373L141.706786 34.4971695 139.700437 34.4971695 139.700437 31.7657063zM149.104881 31.7657063L152.300516 31.7657063 152.300516 33.8450044 152.339008 33.8450044C153.039008 32.2207515 154.442579 31.5061915 156.039405 31.5061915 157.479881 31.5061915 158.669563 32.1992908 159.215198 33.6733192 160.031865 32.1563695 161.377103 31.5061915 162.817976 31.5061915 165.740198 31.5061915 166.400913 33.3470379 166.400913 36.4027954L166.400913 43.0567876 162.895754 43.0567876 162.895754 36.9885915C162.895754 35.709696 162.486627 34.7566844 161.492183 34.7566844 160.246548 34.7566844 159.505675 35.8619076 159.505675 38.2889476L159.505675 43.0567876 156.000516 43.0567876 156.000516 36.9885915C156.000516 35.709696 155.590992 34.7566844 154.598929 34.7566844 153.350913 34.7566844 152.61004 35.8619076 152.61004 38.2889476L152.61004 43.0567876 149.104881 43.0567876 149.104881 31.7657063zM175.261627 36.3383339C175.261627 35.0379778 174.717579 33.9760733 173.314008 33.9760733 172.048532 33.9760733 171.444563 35.0379778 171.366786 36.3383339L175.261627 36.3383339zM171.405278 38.5487804C171.600119 40.1082539 172.670754 40.7159081 174.38623 40.7159081 175.339405 40.7159081 176.431071 40.4774565 177.482262 39.8487391L177.482262 42.601663C176.353294 43.0996294 175.066786 43.3166204 173.762421 43.3166204 170.41123 43.3166204 167.86123 41.1276346 167.86123 37.4006359 167.86123 33.6732397 170.140198 31.506112 173.294563 31.506112 177.055278 31.506112 178.417976 34.4736423 178.417976 37.833823L178.417976 38.5487804 171.405278 38.5487804zM180.010754 31.7657063L183.204008 31.7657063 183.204008 33.8450044 183.243294 33.8450044C183.944881 32.2207515 185.346468 31.5061915 186.945278 31.5061915 189.709167 31.5061915 190.820675 33.6733192 190.820675 36.0141192L190.820675 43.0567876 187.315516 43.0567876 187.315516 37.5958483C187.315516 35.4716418 186.652421 34.7566844 185.697262 34.7566844 184.256786 34.7566844 183.515913 35.8619076 183.515913 38.2889476L183.515913 43.0567876 180.010754 43.0567876 180.010754 31.7657063zM191.871349 31.7657063L193.936032 31.7657063 193.936032 29.2297734 197.382857 28.0387076 197.382857 31.7657063 199.837222 31.7657063 199.837222 34.4971695 197.382857 34.4971695 197.382857 38.6577528C197.382857 40.0224908 197.675317 40.7155902 198.786429 40.7155902 199.135635 40.7155902 199.505873 40.6297476 199.856667 40.5633786L199.97373 43.0997089C199.311032 43.1855515 198.649921 43.3163025 197.77254 43.3163025 194.636032 43.3163025 193.877698 41.7778921 193.877698 39.0913373L193.877698 34.4971695 191.871349 34.4971695 191.871349 31.7657063zM93.4034127 59.0393646L94.4149206 59.0393646C95.6042063 59.0393646 96.8307937 58.7134808 96.8307937 57.4345853 96.8307937 56.0483866 95.6629365 55.9176356 94.4542063 55.9176356L93.4034127 55.9176356 93.4034127 59.0393646zM93.4034127 65.3241543L94.4736508 65.3241543C95.7994444 65.3241543 97.1815873 65.1075608 97.1815873 63.568753 97.1815873 61.9210524 95.7601587 61.7688408 94.5125397 61.7688408L93.4034127 61.7688408 93.4034127 65.3241543zM89.7792063 53.0570111L96.0311905 53.0570111C98.5637302 53.0570111 100.452619 54.2929853 100.452619 56.8936975 100.452619 58.800913 99.577619 59.863215 98.0569841 60.4255634L98.0569841 60.4684846C99.8696825 60.8806085 100.80381 61.9639737 100.80381 63.8072046 100.80381 67.4253105 97.9419048 68.1847788 95.5069841 68.1847788L89.7792063 68.1847788 89.7792063 53.0570111zM106.919325 65.8436212C108.243135 65.8436212 109.08123 64.5003437 109.08123 63.178527 108.632817 63.1570663 108.126071 63.114145 107.601865 63.114145 106.412579 63.114145 105.476468 63.5238844 105.476468 64.607647 105.476468 65.388576 106.100675 65.8436212 106.919325 65.8436212L106.919325 65.8436212zM109.334802 68.1848186C109.315357 67.5771644 109.257024 66.9917657 109.257024 66.4079566L109.217738 66.4079566C108.418532 67.815616 107.445516 68.4443334 106.003056 68.4443334 103.997103 68.4443334 102.205437 67.3391102 102.205437 64.891007 102.205437 61.4449837 105.574087 61.0328599 107.445516 61.0328599 108.009008 61.0328599 108.632817 61.0972418 109.08123 61.1850715 109.061786 59.6462637 108.028452 59.2345373 106.763373 59.2345373 105.632817 59.2345373 104.503849 59.4729889 103.529246 60.0778612L103.470913 57.434625C104.718135 56.8722766 106.0225 56.633825 107.52369 56.633825 110.112579 56.633825 112.352262 57.8682095 112.352262 61.3142328L112.352262 65.5177373C112.352262 66.4079566 112.391548 67.2961889 112.547897 68.1848186L109.334802 68.1848186zM114.58881 56.8935386L117.784048 56.8935386 117.784048 58.9728366 117.822937 58.9728366C118.522937 57.3485837 119.926508 56.6340237 121.523333 56.6340237 124.289603 56.6340237 125.39873 58.8011515 125.39873 61.1403618L125.39873 68.1846199 121.893571 68.1846199 121.893571 62.7236805C121.893571 60.5994741 121.230476 59.8845166 120.277302 59.8845166 118.834841 59.8845166 118.095952 60.9901373 118.095952 63.4167799L118.095952 68.1846199 114.58881 68.1846199 114.58881 56.8935386z"></path><polygon fill="#B5B6BB" points="127.58 51.93 131.086 51.93 131.086 61.64 131.125 61.64 134.047 56.893 137.883 56.893 134.359 62.073 138.176 68.185 133.93 68.185 131.125 62.593 131.086 62.593 131.086 68.185 127.58 68.185"></polygon><path fill="#B5B6BB" d="M17.6411508,0.837260387 L5.15265873,0.837260387 L-0.000119047619,76.5074952 L6.04948413,76.129152 C14.1653571,61.1460449 18.8693254,42.5607288 19.0879762,22.6460449 C19.1812302,14.1937301 18.9510714,7.28419716 17.6411508,0.837260387"></path><polygon fill="#B5B6BB" points="28.634 1.027 29.875 73.802 44.738 75.455 46.389 1.441 41.747 1.331"></polygon><polygon fill="#B5B6BB" points="65.894 86.141 57.686 86.141 57.838 2.631 70.436 2.838 70.746 22.17"></polygon></g></svg> 