<?xml version="1.0" encoding="UTF-8"?> <svg xmlns="http://www.w3.org/2000/svg" width="68" height="66" viewBox="0 0 68 66"><path fill="#B5B6BB" fill-rule="evenodd" d="M24.0337623,0.000788059701 C10.7818435,0.000788059701 0,10.7036239 0,23.8600836 C0,25.832794 0.242237681,27.7921075 0.721785507,29.6883761 C0.772046377,29.8885433 0.841228986,30.0788597 0.896614493,30.2772537 L0.884591304,30.2786328 L6.9089971,51.6868657 L8.38430145,51.2768776 L4.62853333,37.9304955 C9.04715362,43.9392537 16.1629101,47.7187881 24.0329739,47.7187881 C27.9779594,47.7187881 31.7014029,46.7650388 34.9896464,45.0843045 L15.779942,65.9990149 L17.8532522,65.9990149 L41.7912232,39.9355164 L41.7837333,39.9278328 C45.0286145,36.3992955 47.2142725,31.9008537 47.8611594,26.9287881 L57.0531826,66 L58.6268406,66 L47.4360116,18.4325194 L47.4318725,18.4333075 C45.5982377,10.6364418 39.9067362,4.29847164 32.4675362,1.52016716 L68,1.52016716 L68,-2.84217094e-14 L24.0337623,0.000788059701 Z M46.5368348,23.8610687 C46.5368348,36.1790328 36.4416928,46.200197 24.0337623,46.200197 C13.697171,46.200197 4.72176232,39.2585731 2.20714203,29.3199582 C1.75913043,27.5456418 1.53128116,25.7090687 1.53128116,23.8618567 C1.53128116,11.5446806 11.6256348,1.52272836 24.0337623,1.52272836 C36.4416928,1.52272836 46.5368348,11.5436955 46.5368348,23.8618567 L46.5368348,23.8610687 Z M11.8193855,30.7597433 L11.8245101,30.2346985 L10.2930319,30.201797 L10.2869217,30.7597433 C10.2869217,32.7326507 10.5293565,34.6933433 11.0096928,36.5890209 C11.5456116,38.7081134 12.3679188,40.6942209 13.4105855,42.5258687 C14.2500406,42.9959463 15.1247768,43.4041612 16.0265159,43.7597731 C14.4225043,41.5348836 13.197913,38.9996955 12.4942609,36.2180418 C12.0464464,34.4445134 11.8184,32.6081373 11.8184,30.7597433 L11.8193855,30.7597433 Z M54.365113,43.9081254 C56.3221333,40.9783164 57.6354203,37.5959642 58.1291594,33.9582806 L58.2334261,33.9724657 L62.0932638,6.58719403 L60.5753855,6.37619104 L57.8315362,25.8471761 C56.2139246,18.2081194 50.9111072,11.9004896 43.8527072,8.86133731 C44.4842203,9.68032836 45.0633043,10.5401015 45.5879884,11.4353373 C52.2985043,15.3062866 56.8239536,22.5160478 56.8239536,30.7599403 C56.8239536,34.7756955 55.7454145,38.544 53.8692058,41.8032179 L54.365113,43.9081254 Z M34.3214725,53.0990687 C33.2472696,53.0990687 32.1935652,53.0066687 31.153658,52.8610746 L29.9174377,54.2086567 C31.3507594,54.4720657 32.8217275,54.6192358 34.322458,54.6192358 C41.1532058,54.6192358 47.3218899,51.7725672 51.7020754,47.215809 L51.279687,45.421594 C47.1519884,50.120006 41.0822493,53.0990687 34.322458,53.0990687 L34.3214725,53.0990687 Z M15.2755594,16.2048716 L17.2209507,16.2200418 C19.6602783,13.0776537 25.9217971,8.42002388 34.3206841,8.42002388 C36.1476174,8.42002388 37.9221217,8.64186269 39.6235014,9.05185075 C38.9553275,8.35973731 38.2428058,7.71096716 37.4869217,7.11223881 C36.4511536,6.97649552 35.3958725,6.89867463 34.3214725,6.89867463 C26.8101333,6.89867463 19.8674319,10.2902866 15.2763478,16.2040836 L15.2755594,16.2048716 Z M20.4528232,48.3675582 C19.4300638,48.2207821 18.4266203,48.0084 17.4434783,47.7416418 C19.9322783,50.1777313 22.9347246,52.0714388 26.2665275,53.2444657 L27.4014377,52.0097731 C24.8708522,51.2008299 22.517658,49.9700776 20.4528232,48.3693313 L20.4528232,48.3675582 Z M29.4491246,27.0127164 L26.1803942,23.3052896 C27.7664696,23.1208836 29.4491246,22.2865254 29.4491246,20.617809 C29.4491246,19.2286567 28.3288,18.4868955 25.9012986,18.4868955 L21.8861449,18.4868955 L21.8861449,28.2188418 C22.166029,28.1266388 22.3528812,28.1266388 22.6335536,28.1266388 C22.8196174,28.1266388 23.0995014,28.1266388 23.2863536,28.2188418 L23.2863536,23.4918627 L24.5925449,23.4918627 L25.8066899,24.789403 L27.6726493,26.9203164 C28.0463536,27.3836955 28.3260406,27.7548716 28.699942,28.2172657 C28.9788406,28.1248657 29.2589217,28.1248657 29.6332174,28.1248657 C29.912313,28.1248657 30.192,28.1248657 30.4728696,28.2172657 L30.1929855,27.8478627 L29.4491246,27.0127164 Z M23.1923362,22.9343104 L23.1923362,19.0414925 C23.8451362,19.0414925 25.6198377,18.9500776 26.1803942,19.0414925 C27.3937507,19.2270806 27.9543072,19.8758507 27.9543072,20.8016239 C27.9543072,21.9137731 27.1146551,22.6557313 25.9012986,22.8413194 C25.154087,23.0259224 23.4730087,22.9325373 23.1933217,22.9325373 L23.1923362,22.9343104 Z M12.4550377,26.6427224 C12.1761391,26.9195284 10.8679768,27.7548716 9.09327536,27.7548716 C6.66695652,27.7548716 4.89304348,26.0869433 4.89304348,23.3052896 C4.89304348,20.9887881 6.29226667,18.8561015 9.18729275,18.8561015 C10.8669913,18.8561015 11.9873159,19.7826627 12.2681855,20.0612418 L12.3610203,20.0612418 C12.4540522,19.6902627 12.5472812,19.3192836 12.6411014,18.9490925 C11.6144,18.5781134 10.4004522,18.3003224 9.28012754,18.3003224 C5.91856232,18.3003224 3.3042087,20.1544299 3.3042087,23.3060776 C3.3042087,26.3649313 5.45123478,28.3102567 8.90662029,28.3102567 C10.1189913,28.3102567 11.4267594,28.1266388 12.3600348,27.5690866 L12.4550377,26.6427224 Z M31.9702493,18.4851224 L31.4087072,18.4851224 L31.4087072,28.2172657 C31.5027246,28.1248657 31.6887884,28.1248657 31.876429,28.1248657 C31.9704464,28.1248657 32.1561159,28.1248657 32.2483594,28.2172657 L32.2483594,20.5236358 L32.4352116,20.5236358 L39.2505855,27.2905075 C39.622713,27.6599104 39.9033855,27.9384896 40.090829,28.2164776 L40.5585507,28.2164776 L40.5585507,18.4841373 C40.3709101,18.4841373 40.2778783,18.5765373 40.090829,18.5765373 C39.9041739,18.5765373 39.811142,18.4841373 39.6235014,18.4841373 L39.6235014,25.806591 L39.5322435,25.806591 L31.9704464,18.4851224 L31.9702493,18.4851224 Z M18.8982841,27.3836955 C17.9650087,27.4760955 16.2841275,27.4760955 15.3506551,27.4760955 L15.3506551,23.3052896 L18.5245797,23.3052896 C18.9913159,23.3052896 19.4578551,23.3976896 19.9245913,23.3976896 C19.9245913,23.3052896 19.8317565,23.1198985 19.8317565,23.0267104 C19.8317565,22.9343104 19.9245913,22.7497075 19.9245913,22.6557313 C19.4578551,22.6557313 18.9913159,22.7489194 18.5245797,22.7489194 L15.3506551,22.7489194 L15.3506551,19.1338925 L17.3114203,19.1338925 L18.8982841,19.2270806 C19.3650203,19.2270806 19.8317565,19.3182985 20.2984928,19.3182985 C20.2984928,19.2270806 20.2044754,19.0407045 20.2044754,18.9490925 C20.2044754,18.7637015 20.2984928,18.6713015 20.2984928,18.4859104 L13.9488696,18.4859104 L13.9488696,28.1266388 L20.3915246,28.1266388 C20.3915246,28.0334507 20.2984928,27.8496358 20.2984928,27.7556597 C20.2984928,27.5700716 20.3915246,27.4776716 20.3915246,27.2922806 C19.9245913,27.3846806 19.3650203,27.3846806 18.8982841,27.3846806 L18.8982841,27.3836955 Z"></path></svg> 