<?xml version="1.0" encoding="UTF-8"?> <svg xmlns="http://www.w3.org/2000/svg" xmlns:xlink="http://www.w3.org/1999/xlink" width="530" height="384" viewBox="0 0 530 384"><defs><path id="owncloud-section-img-saas-b" d="M7.60474424,1.461763e-16 L429.005425,1.66479023e-14 C431.64976,-9.67291067e-15 432.60866,0.275330203 433.57539,0.792342765 C434.542119,1.30935533 435.300814,2.06805025 435.817827,3.03477969 C436.334839,4.00150913 436.610169,4.96040899 436.610169,7.60474424 L436.610169,272.395256 C436.610169,275.039591 436.334839,275.998491 435.817827,276.96522 C435.300814,277.93195 434.542119,278.690645 433.57539,279.207657 C432.60866,279.72467 431.64976,280 429.005425,280 L7.60474424,280 C4.96040899,280 4.00150913,279.72467 3.03477969,279.207657 C2.06805025,278.690645 1.30935533,277.93195 0.792342765,276.96522 C0.275330203,275.998491 -4.0788626e-16,275.039591 7.0200696e-16,272.395256 L2.04827179e-16,7.60474424 C-1.1901049e-16,4.96040899 0.275330203,4.00150913 0.792342765,3.03477969 C1.30935533,2.06805025 2.06805025,1.30935533 3.03477969,0.792342765 C4.00150913,0.275330203 4.96040899,-8.49326401e-17 7.60474424,1.461763e-16 Z"></path><filter id="owncloud-section-img-saas-a" width="115.1%" height="123.6%" x="-7.3%" y="-10.7%"><feOffset dx="1" dy="3" in="SourceAlpha" result="shadowOffsetOuter1"></feOffset><feGaussianBlur in="shadowOffsetOuter1" result="shadowBlurOuter1" stdDeviation="10.5"></feGaussianBlur><feComposite in="shadowBlurOuter1" in2="SourceAlpha" operator="out" result="shadowBlurOuter1"></feComposite><feColorMatrix in="shadowBlurOuter1" values="0 0 0 0 0.0156862745 0 0 0 0 0.117647059 0 0 0 0 0.258823529 0 0 0 0.1 0"></feColorMatrix></filter><linearGradient id="owncloud-section-img-saas-c" x1="50.075%" x2="50.075%" y1="-.041%" y2="100.226%"><stop offset="0%" stop-color="#C7DAE4"></stop><stop offset="100%" stop-color="#9FB7C5"></stop></linearGradient><rect id="owncloud-section-img-saas-e" width="105.827" height="112" x="258.299" y="0" rx="17"></rect><filter id="owncloud-section-img-saas-d" width="160.5%" height="157.1%" x="-30.2%" y="-26.8%"><feMorphology in="SourceAlpha" operator="dilate" radius="1" result="shadowSpreadOuter1"></feMorphology><feOffset dy="2" in="shadowSpreadOuter1" result="shadowOffsetOuter1"></feOffset><feGaussianBlur in="shadowOffsetOuter1" result="shadowBlurOuter1" stdDeviation="10"></feGaussianBlur><feComposite in="shadowBlurOuter1" in2="SourceAlpha" operator="out" result="shadowBlurOuter1"></feComposite><feColorMatrix in="shadowBlurOuter1" values="0 0 0 0 0.0156862745 0 0 0 0 0.117647059 0 0 0 0 0.258823529 0 0 0 0.15 0"></feColorMatrix></filter></defs><g fill="none" fill-rule="evenodd" transform="translate(20.695 18.542)"><use fill="#000" filter="url(#owncloud-section-img-saas-a)" xlink:href="#owncloud-section-img-saas-b"></use><path fill="#FFF" stroke="#ECEBEE" stroke-linejoin="square" stroke-width=".848" d="M429.005425,0.424202254 C431.529628,0.424202254 432.450926,0.672029924 433.375336,1.16640991 C434.267047,1.64330213 434.966867,2.34312207 435.44376,3.23483299 C435.93814,4.1592432 436.185967,5.08054189 436.185967,7.60474424 L436.185967,7.60474424 L436.185967,272.395256 C436.185967,274.919458 435.93814,275.840757 435.44376,276.765167 C434.966867,277.656878 434.267047,278.356698 433.375336,278.83359 C432.450926,279.32797 431.529628,279.575798 429.005425,279.575798 L429.005425,279.575798 L7.60474424,279.575798 C5.08054189,279.575798 4.1592432,279.32797 3.23483299,278.83359 C2.34312207,278.356698 1.64330213,277.656878 1.16640991,276.765167 C0.672029924,275.840757 0.424202254,274.919458 0.424202254,272.395256 L0.424202254,272.395256 L0.424202254,7.60474424 C0.424202254,5.08054189 0.672029924,4.1592432 1.16640991,3.23483299 C1.64330213,2.34312207 2.34312207,1.64330213 3.23483299,1.16640991 C4.1592432,0.672029924 5.08054189,0.424202254 7.60474424,0.424202254 L7.60474424,0.424202254 Z"></path><path fill="#06E3BD" d="M7.60474424,1.461763e-16 L122.20339,0 L122.20339,0 L122.20339,280 L7.60474424,280 C4.96040899,280 4.00150913,279.72467 3.03477969,279.207657 C2.06805025,278.690645 1.30935533,277.93195 0.792342765,276.96522 C0.275330203,275.998491 -1.44437885e-16,275.039591 2.4858989e-16,272.395256 L-2.4858989e-16,7.60474424 C1.44437885e-16,4.96040899 0.275330203,4.00150913 0.792342765,3.03477969 C1.30935533,2.06805025 2.06805025,1.30935533 3.03477969,0.792342765 C4.00150913,0.275330203 4.96040899,-8.49326401e-17 7.60474424,1.461763e-16 Z"></path><g transform="translate(158.983 14.237)"><rect width="107.966" height="16.61" fill="#ECEBEE" rx="3.559"></rect><path fill="#94969E" fill-rule="nonzero" d="M14.1132419,13.51551 L11.2433607,10.6455948 C11.5083973,10.3239054 11.7243718,9.96731562 11.8877436,9.58138941 C12.113834,9.04675769 12.2286495,8.47874311 12.2286495,7.89403709 C12.2286495,7.30933107 12.113834,6.74131648 11.8877436,6.20668476 C11.6692401,5.69026188 11.3566588,5.22694812 10.9591039,4.82888269 C10.5610431,4.43081725 10.0977349,4.1182322 9.5813181,3.90023195 C9.04669271,3.67413887 8.47868485,3.55932203 7.89398576,3.55932203 C7.30928666,3.55932203 6.7412788,3.67413887 6.20665341,3.90023195 C5.69023665,4.118738 5.22692837,4.43132306 4.82886765,4.82888269 C4.43080693,5.22694812 4.11822558,5.69026188 3.90022791,6.20668476 C3.67413751,6.74131648 3.55932203,7.30933107 3.55932203,7.89403709 C3.55932203,8.47874311 3.67413751,9.04675769 3.90022791,9.58138941 C4.11873138,10.0978123 4.43131273,10.5611261 4.82886765,10.9591915 C5.22692837,11.3572569 5.69023665,11.669842 6.20665341,11.8878422 C6.7412788,12.1139353 7.30928666,12.2287521 7.89398576,12.2287521 C8.47868485,12.2287521 9.04669271,12.1139353 9.5813181,11.8878422 C9.96723973,11.7244685 10.3238253,11.5084914 10.6455109,11.2434517 L13.5153921,14.1133669 C13.5978367,14.1958124 13.7060769,14.2372881 13.814317,14.2372881 C13.9225572,14.2372881 14.0307973,14.1958124 14.1132419,14.1133669 C14.2786369,13.9484757 14.2786369,13.6804012 14.1132419,13.51551 Z M9.25153971,11.1089086 C8.82161391,11.2904912 8.36488096,11.3830528 7.89347996,11.3830528 C7.42207896,11.3830528 6.96534601,11.290997 6.53542021,11.1089086 C6.12016246,10.9333956 5.7468857,10.6815067 5.42621163,10.3608288 C5.10553755,10.040151 4.8541574,9.66686979 4.67814072,9.25160712 C4.49656029,8.82167622 4.4039998,8.36493787 4.4039998,7.89353129 C4.4039998,7.4221247 4.4960545,6.96538635 4.67814072,6.53545545 C4.85365161,6.12019278 5.10553755,5.7469116 5.42621163,5.42623373 C5.7468857,5.10555586 6.12016246,4.85417274 6.53542021,4.67815397 C6.96534601,4.49657139 7.42207896,4.4040098 7.89347996,4.4040098 C8.36488096,4.4040098 8.82161391,4.49606559 9.25153971,4.67815397 C9.66679746,4.85366694 10.0400742,5.10555586 10.3607483,5.42623373 C10.6814224,5.7469116 10.9328025,6.12019278 11.1088192,6.53545545 C11.2903996,6.96538635 11.3829601,7.4221247 11.3829601,7.89353129 C11.3829601,8.36493787 11.2909054,8.82167622 11.1088192,9.25160712 C10.9333083,9.66686979 10.6814224,10.040151 10.3607483,10.3608288 C10.0400742,10.6815067 9.66679746,10.9328898 9.25153971,11.1089086 Z"></path></g><circle cx="14.237" cy="13.051" r="3.559" fill="#DE5039"></circle><circle cx="24.915" cy="13.051" r="3.559" fill="#F7C843"></circle><circle cx="34.407" cy="13.051" r="3.559" fill="#25BA26"></circle><path fill="#FFF" fill-rule="nonzero" d="M0.496001583,0 C0.226055347,0 0,0.237849508 0,0.521844375 L0,13.0813987 C0,13.374658 0.217204345,13.6032726 0.496001583,13.6032726 L14.5857143,13.6032726 C14.8645022,13.6032726 15.0817066,13.374658 15.0817066,13.0813987 L15.08208,2.79128825 C15.08208,2.5074604 14.856034,2.26686005 14.5860878,2.26686005 L7.54104467,2.26735128 L5.38655385,0 L0.496001583,0 Z" opacity=".698" transform="translate(11.864 43.898)"></path><path fill="#FFF" d="M39.477171,121.704616 L98.9563565,121.704616 C99.9308042,121.704616 100.328245,121.814748 100.714937,122.021553 C101.101629,122.228358 101.405107,122.531836 101.611912,122.918528 C101.818717,123.305219 101.928849,123.70266 101.928849,124.677108 L101.928849,125.827331 C101.928849,126.801779 101.818717,127.19922 101.611912,127.585912 C101.405107,127.972603 101.101629,128.276081 100.714937,128.482886 C100.328245,128.689691 99.9308042,128.799823 98.9563565,128.799823 L39.477171,128.799823 C38.5027233,128.799823 38.1052823,128.689691 37.7185905,128.482886 C37.3318988,128.276081 37.0284208,127.972603 36.8216158,127.585912 C36.6148108,127.19922 36.5046787,126.801779 36.5046787,125.827331 L36.5046787,124.677108 C36.5046787,123.70266 36.6148108,123.305219 36.8216158,122.918528 C37.0284208,122.531836 37.3318988,122.228358 37.7185905,122.021553 C38.1052823,121.814748 38.5027233,121.704616 39.477171,121.704616 Z" opacity=".702"></path><path fill="#FFF" fill-rule="nonzero" d="M22.8674777,117.467152 C21.5381287,117.467152 20.4574996,118.482254 20.4574996,119.736682 C20.4574996,119.806039 20.4657315,119.875765 20.4721014,119.943457 L15.8322664,122.176274 C15.411755,121.837167 14.8658938,121.634091 14.269485,121.634091 C12.9401359,121.634091 11.8644068,122.649193 11.8644068,123.903714 C11.8644068,125.158142 12.9401359,126.173244 14.269485,126.173244 C14.8046251,126.173244 15.3012127,126.01095 15.7008504,125.732137 L20.4672015,128.020069 C20.4648495,128.060758 20.4574996,128.102372 20.4574996,128.144171 C20.4574996,129.398599 21.5381287,130.413701 22.8674777,130.413701 C24.1968268,130.413701 25.2725559,129.398599 25.2725559,128.144171 C25.2725559,126.889743 24.1968268,125.870017 22.8674777,125.870017 C22.2436882,125.870017 21.6738565,126.09538 21.2461912,126.462692 L16.6448696,124.243283 C16.6634109,124.129724 16.6789535,124.01265 16.6789535,123.894189 C16.6789535,123.827607 16.6702316,123.761302 16.6643517,123.696569 L21.3089887,121.463752 C21.7284417,121.79916 22.2741559,122.001311 22.8669682,122.001311 C24.1963173,122.001311 25.2720463,120.981585 25.2720463,119.727157 C25.2720463,118.472729 24.1963173,117.457627 22.8669682,117.457627 L22.8674777,117.467152 Z" opacity=".7"></path><path fill="#FFF" d="M39.7566825 73.559322L106.175521 73.559322C107.155404 73.559322 107.551939 73.6694541 107.93863 73.8762591 108.325322 74.0830642 108.6288 74.3865421 108.835605 74.7732339 109.04241 75.1599257 109.152542 75.5564609 109.152542 76.5363435L109.152542 77.7009446C109.152542 78.6808273 109.04241 79.0773624 108.835605 79.4640542 108.6288 79.850746 108.325322 80.154224 107.93863 80.361029 107.551939 80.567834 107.155404 80.6779661 106.175521 80.6779661L39.7566825 80.6779661C38.7767999 80.6779661 38.3802647 80.567834 37.9935729 80.361029 37.6068811 80.154224 37.3034031 79.850746 37.0965981 79.4640542 36.8897931 79.0773624 36.779661 78.6808273 36.779661 77.7009446L36.779661 76.5363435C36.779661 75.5564609 36.8897931 75.1599257 37.0965981 74.7732339 37.3034031 74.3865421 37.6068811 74.0830642 37.9935729 73.8762591 38.3802647 73.6694541 38.7767999 73.559322 39.7566825 73.559322zM39.7566825 97.2881356L88.3789107 97.2881356C89.3587934 97.2881356 89.7553285 97.3982677 90.1420203 97.6050727 90.5287121 97.8118777 90.8321901 98.1153557 91.0389951 98.5020475 91.2458001 98.8887392 91.3559322 99.2852744 91.3559322 100.265157L91.3559322 101.429758C91.3559322 102.409641 91.2458001 102.806176 91.0389951 103.192868 90.8321901 103.57956 90.5287121 103.883038 90.1420203 104.089843 89.7553285 104.296648 89.3587934 104.40678 88.3789107 104.40678L39.7566825 104.40678C38.7767999 104.40678 38.3802647 104.296648 37.9935729 104.089843 37.6068811 103.883038 37.3034031 103.57956 37.0965981 103.192868 36.8897931 102.806176 36.779661 102.409641 36.779661 101.429758L36.779661 100.265157C36.779661 99.2852744 36.8897931 98.8887392 37.0965981 98.5020475 37.3034031 98.1153557 37.6068811 97.8118777 37.9935729 97.6050727 38.3802647 97.3982677 38.7767999 97.2881356 39.7566825 97.2881356zM39.7566825 48.6440678L88.3789107 48.6440678C89.3587934 48.6440678 89.7553285 48.7541999 90.1420203 48.9610049 90.5287121 49.1678099 90.8321901 49.4712879 91.0389951 49.8579797 91.2458001 50.2446715 91.3559322 50.6412066 91.3559322 51.6210893L91.3559322 52.7856904C91.3559322 53.765573 91.2458001 54.1621082 91.0389951 54.5488 90.8321901 54.9354918 90.5287121 55.2389697 90.1420203 55.4457748 89.7553285 55.6525798 89.3587934 55.7627119 88.3789107 55.7627119L39.7566825 55.7627119C38.7767999 55.7627119 38.3802647 55.6525798 37.9935729 55.4457748 37.6068811 55.2389697 37.3034031 54.9354918 37.0965981 54.5488 36.8897931 54.1621082 36.779661 53.765573 36.779661 52.7856904L36.779661 51.6210893C36.779661 50.6412066 36.8897931 50.2446715 37.0965981 49.8579797 37.3034031 49.4712879 37.6068811 49.1678099 37.9935729 48.9610049 38.3802647 48.7541999 38.7767999 48.6440678 39.7566825 48.6440678zM39.7566825 172.033898L88.3789107 172.033898C89.3587934 172.033898 89.7553285 172.14403 90.1420203 172.350835 90.5287121 172.55764 90.8321901 172.861118 91.0389951 173.24781 91.2458001 173.634502 91.3559322 174.031037 91.3559322 175.01092L91.3559322 176.175521C91.3559322 177.155404 91.2458001 177.551939 91.0389951 177.93863 90.8321901 178.325322 90.5287121 178.6288 90.1420203 178.835605 89.7553285 179.04241 89.3587934 179.152542 88.3789107 179.152542L39.7566825 179.152542C38.7767999 179.152542 38.3802647 179.04241 37.9935729 178.835605 37.6068811 178.6288 37.3034031 178.325322 37.0965981 177.93863 36.8897931 177.551939 36.779661 177.155404 36.779661 176.175521L36.779661 175.01092C36.779661 174.031037 36.8897931 173.634502 37.0965981 173.24781 37.3034031 172.861118 37.6068811 172.55764 37.9935729 172.350835 38.3802647 172.14403 38.7767999 172.033898 39.7566825 172.033898zM39.5800096 145.528357L105.815695 145.528357C106.873429 145.528357 107.256989 145.638489 107.64368 145.845294 108.030372 146.052099 108.33385 146.355577 108.540655 146.742269 108.74746 147.128961 108.857592 147.512521 108.857592 148.570255L108.857592 149.991006C108.857592 151.04874 108.74746 151.4323 108.540655 151.818992 108.33385 152.205683 108.030372 152.509161 107.64368 152.715966 107.256989 152.922771 106.873429 153.032904 105.815695 153.032904L39.5800096 153.032904C38.5222755 153.032904 38.1387155 152.922771 37.7520238 152.715966 37.365332 152.509161 37.061854 152.205683 36.855049 151.818992 36.648244 151.4323 36.5381119 151.04874 36.5381119 149.991006L36.5381119 148.570255C36.5381119 147.512521 36.648244 147.128961 36.855049 146.742269 37.061854 146.355577 37.365332 146.052099 37.7520238 145.845294 38.1387155 145.638489 38.5222755 145.528357 39.5800096 145.528357z" opacity=".698"></path><g fill="#FFF" fill-rule="nonzero" opacity=".698" transform="translate(11.867 141.197)"><path d="M13.4552664,4.14597134 L0.322899558,4.14597134 L0.322899558,1.15068259 C0.322899558,0.695296081 0.689814569,0.326497146 1.14287484,0.326497146 L12.6352911,0.326497146 C13.0883514,0.326497146 13.4552664,0.695296081 13.4552664,1.15068259 L13.4552664,4.14597134 Z"></path><path d="M13.4552664,3.82527661 C13.0213495,3.82527661 12.5874326,3.82527661 12.1535157,3.82527661 C11.1102009,3.82527661 10.066886,3.82527661 9.02357117,3.82527661 C7.75372617,3.82527661 6.48707175,3.82527661 5.21722675,3.82527661 C4.12605341,3.82527661 3.03168951,3.82527661 1.94051617,3.82527661 C1.57998229,3.82527661 1.21944841,3.82527661 0.855723965,3.82527661 C0.686624004,3.82527661 0.514333477,3.81244882 0.345233515,3.82527661 C0.338852384,3.82527661 0.329280689,3.82527661 0.322899558,3.82527661 C0.428188213,3.93110587 0.536667434,4.04014208 0.641956089,4.14597134 C0.641956089,3.4917541 0.641956089,2.83432991 0.641956089,2.18011266 C0.641956089,1.86262489 0.641956089,1.54513711 0.641956089,1.22444238 C0.641956089,0.916575442 0.817437182,0.653605767 1.14606541,0.647191872 C2.08728218,0.624743241 3.03168951,0.647191872 3.97290628,0.647191872 C5.71495494,0.647191872 7.46019417,0.647191872 9.20224283,0.647191872 C10.3221313,0.647191872 11.4420197,0.647191872 12.5619081,0.647191872 C12.7724854,0.647191872 12.9671099,0.70812387 13.0723986,0.910161548 C13.1776872,1.10578533 13.1330193,1.39761753 13.1330193,1.61568995 C13.1330193,2.40139203 13.1330193,3.18388716 13.1330193,3.96958924 C13.1330193,4.03052124 13.1330193,4.08824629 13.1330193,4.14917829 C13.1330193,4.56287448 13.7711324,4.56287448 13.7711324,4.14917829 C13.7711324,3.46930547 13.7711324,2.7862257 13.7711324,2.10635288 C13.7711324,1.80169289 13.7743229,1.4970329 13.7711324,1.18916596 C13.7679418,0.595880716 13.3563589,0.0891830479 12.7597232,0.0186302081 C12.4661911,-0.0166462119 12.1630874,0.00900936625 11.8695554,0.00900936625 C11.2091084,0.00900936625 10.5454708,0.00900936625 9.8850238,0.00900936625 C8.08873553,0.00900936625 6.29563783,0.00900936625 4.49934955,0.00900936625 C3.39222339,0.00900936625 2.28509723,0.00259547172 1.18116163,0.00900936625 C0.763197571,0.00900936625 0.364376907,0.207840097 0.150609031,0.586259874 C-0.0184909307,0.887712917 0.000652461167,1.21482154 0.000652461167,1.54513711 C0.000652461167,2.35008087 0.000652461167,3.15502463 0.000652461167,3.9599684 C0.000652461167,4.02410734 0.000652461167,4.08503934 0.000652461167,4.14917829 C0.000652461167,4.32235344 0.147418466,4.46987301 0.319708993,4.46987301 C0.753625875,4.46987301 1.18754276,4.46987301 1.62145964,4.46987301 C2.6647745,4.46987301 3.70808936,4.46987301 4.75140421,4.46987301 C6.02124921,4.46987301 7.28790364,4.46987301 8.55774863,4.46987301 C9.64892197,4.46987301 10.7432859,4.46987301 11.8344592,4.46987301 C12.3640931,4.46987301 12.900108,4.4891147 13.4297419,4.46987301 C13.436123,4.46987301 13.4456947,4.46987301 13.4520758,4.46987301 C13.8668493,4.46666607 13.8668493,3.82527661 13.4552664,3.82527661 Z"></path><g transform="translate(.884 5.102)"><path d="M0.321001327,0.334679698 L0.321001327,9.49164663 L11.5399977,9.49164663 L11.5399977,0.334679698 L0.321001327,0.334679698 Z M7.91910273,3.02081026 C7.79712223,3.14468521 7.63341155,3.21966216 7.44723078,3.21966216 L4.41376824,3.21966216 C4.04782673,3.21966216 3.7492955,2.91649451 3.7492955,2.54486965 C3.7492955,2.35905722 3.8231258,2.18954413 3.94510631,2.06892904 C4.06708681,1.94505409 4.23079749,1.87007714 4.41376824,1.87007714 L7.44723078,1.87007714 C7.8131723,1.87007714 8.11170353,2.17324479 8.11170353,2.54486965 C8.11170353,2.73068208 8.03787322,2.89693531 7.91910273,3.02081026 Z"></path><path d="M0,0.334679698 C0,1.3680576 0,2.40469536 0,3.43807326 C0,5.07452659 0,6.71423978 0,8.35069311 C0,8.72883771 0,9.11024217 0,9.48838676 C0,9.66441959 0.14766061,9.81437348 0.321001327,9.81437348 C0.693362866,9.81437348 1.06572441,9.81437348 1.43808594,9.81437348 C2.33046963,9.81437348 3.22606333,9.81437348 4.11844702,9.81437348 C5.20022149,9.81437348 6.27878595,9.81437348 7.36056042,9.81437348 C8.29467429,9.81437348 9.22878815,9.81437348 10.162902,9.81437348 C10.6155139,9.81437348 11.0713358,9.83393268 11.5207376,9.81437348 C11.5271576,9.81437348 11.5335777,9.81437348 11.5399977,9.81437348 C11.7133384,9.81437348 11.860999,9.66441959 11.860999,9.48838676 C11.860999,8.45500886 11.860999,7.4183711 11.860999,6.3849932 C11.860999,4.74853987 11.860999,3.10882667 11.860999,1.47237335 C11.860999,1.09422875 11.860999,0.712824292 11.860999,0.334679698 C11.860999,0.15864687 11.7133384,0.00869297917 11.5399977,0.00869297917 C11.1676362,0.00869297917 10.7952746,0.00869297917 10.4229131,0.00869297917 C9.53052939,0.00869297917 8.63493569,0.00869297917 7.742552,0.00869297917 C6.66077753,0.00869297917 5.58221307,0.00869297917 4.5004386,0.00869297917 C3.56632474,0.00869297917 2.63221088,0.00869297917 1.69809702,0.00869297917 C1.24548515,0.00869297917 0.789663264,-0.010866224 0.340261406,0.00869297917 C0.33384138,0.00869297917 0.327421353,0.00869297917 0.321001327,0.00869297917 C-0.0930903848,0.00869297917 -0.0930903848,0.660666417 0.321001327,0.660666417 C0.693362866,0.660666417 1.06572441,0.660666417 1.43808594,0.660666417 C2.33046963,0.660666417 3.22606333,0.660666417 4.11844702,0.660666417 C5.20022149,0.660666417 6.27878595,0.660666417 7.36056042,0.660666417 C8.29467429,0.660666417 9.22878815,0.660666417 10.162902,0.660666417 C10.4678533,0.660666417 10.7760145,0.660666417 11.0809658,0.660666417 C11.2254164,0.660666417 11.376287,0.673705885 11.5207376,0.660666417 C11.5271576,0.660666417 11.5335777,0.660666417 11.5399977,0.660666417 C11.4340673,0.553090799 11.3249268,0.442255315 11.2189964,0.334679698 C11.2189964,1.3680576 11.2189964,2.40469536 11.2189964,3.43807326 C11.2189964,5.07452659 11.2189964,6.71423978 11.2189964,8.35069311 C11.2189964,8.72883771 11.2189964,9.11024217 11.2189964,9.48838676 C11.3249268,9.38081114 11.4340673,9.26997566 11.5399977,9.16240004 C11.1676362,9.16240004 10.7952746,9.16240004 10.4229131,9.16240004 C9.53052939,9.16240004 8.63493569,9.16240004 7.742552,9.16240004 C6.66077753,9.16240004 5.58221307,9.16240004 4.5004386,9.16240004 C3.56632474,9.16240004 2.63221088,9.16240004 1.69809702,9.16240004 C1.39314576,9.16240004 1.08498448,9.16240004 0.780033224,9.16240004 C0.635582627,9.16240004 0.484712004,9.14936057 0.340261406,9.16240004 C0.33384138,9.16240004 0.327421353,9.16240004 0.321001327,9.16240004 C0.426931765,9.26997566 0.536072216,9.38081114 0.642002654,9.48838676 C0.642002654,8.45500886 0.642002654,7.4183711 0.642002654,6.3849932 C0.642002654,4.74853987 0.642002654,3.10882667 0.642002654,1.47237335 C0.642002654,1.09422875 0.642002654,0.712824292 0.642002654,0.334679698 C0.642002654,-0.0858431693 0,-0.0858431693 0,0.334679698 Z"></path><path d="M7.69119179,2.78935969 C7.54674119,2.92627411 7.34130035,2.89041557 7.1615396,2.89041557 C6.85658834,2.89041557 6.55484709,2.89041557 6.24989583,2.89041557 C5.65925339,2.89041557 5.06861095,2.89367544 4.4747585,2.89041557 C4.22758747,2.89041557 3.98683648,2.70134328 4.08634689,2.4209947 C4.17301725,2.17976453 4.4041382,2.19280399 4.60957905,2.19280399 C5.25800173,2.19280399 5.90642441,2.19280399 6.55484709,2.19280399 C6.83090824,2.19280399 7.11017939,2.19280399 7.38624053,2.19280399 C7.47933092,2.19280399 7.56600127,2.19606386 7.64304159,2.25474147 C7.81638231,2.37861642 7.8388524,2.6296262 7.69119179,2.78935969 C7.40871062,3.09578721 7.86132249,3.55868835 8.14380366,3.24900096 C8.63814571,2.71112288 8.44554491,1.79184033 7.72329192,1.57994896 C7.498591,1.51475162 7.24178993,1.54083056 7.01066898,1.54083056 C6.26273589,1.54083056 5.5148028,1.54083056 4.76365969,1.54083056 C4.4747585,1.54083056 4.19548734,1.52127135 3.92905624,1.67122524 C3.28384357,2.03633037 3.27742355,2.99799119 3.89374609,3.39243512 C4.15375717,3.55868835 4.44265836,3.54238901 4.73155956,3.54238901 C5.10071108,3.54238901 5.4666526,3.54238901 5.83580412,3.54238901 C6.25631586,3.54238901 6.6768276,3.54238901 7.10054935,3.54238901 C7.48896096,3.54238901 7.8388524,3.54238901 8.14701368,3.24900096 C8.44875492,2.96539252 7.99293304,2.50249138 7.69119179,2.78935969 Z"></path></g></g><polygon fill="#FFF" fill-rule="nonzero" points="8.181 0 10.368 5.122 16.337 5.561 11.799 9.088 13.196 14.527 8.205 11.584 3.1 14.507 4.553 9.162 0 5.529 5.89 5.168" opacity=".698" transform="translate(10.678 68.814)"></polygon><g fill="#FFF" fill-rule="nonzero" opacity=".698" transform="translate(10.678 93.729)"><path d="M0.987820065,12.9877959 L13.6319169,12.9877959 C14.1850961,12.9877959 14.619737,12.5505746 14.619737,12.0373148 L14.619737,7.49401523 C14.619737,7.17085167 14.3629038,6.92372659 14.0270449,6.92372659 C13.6911861,6.92372659 13.4343529,7.17085167 13.4343529,7.49401523 L13.4343529,11.8472186 L1.18538408,11.8472186 L1.18538408,3.50199472 L3.55615224,3.50199472 C3.89201106,3.50199472 4.14884427,3.25486964 4.14884427,2.93170607 C4.14884427,2.60854251 3.89201106,2.36141743 3.55615224,2.36141743 L0.987820065,2.36141743 C0.434640829,2.36141743 0,2.79863872 0,3.3118985 L0,12.0373148 C0,12.5505746 0.45439723,12.9877959 0.987820065,12.9877959 Z"></path><path d="M11.46189,0.241647716 L11.46189,2.06239602 C11.46189,2.19244947 11.3610679,2.28534479 11.2199169,2.30392386 C4.30352015,2.86129579 3.7994096,6.27984363 3.7994096,6.27984363 C3.37595674,9.3639683 6.42078446,10.6273447 7.73147189,11.017505 C7.79196516,11.0360841 7.832294,10.9431888 7.77180074,10.9246097 C4.54549321,9.25249392 6.38045562,6.98584807 6.40062004,6.94868994 C6.40062004,6.94868994 6.40062004,6.94868994 6.40062004,6.94868994 C7.75163631,5.4066276 10.3528468,5.27657415 11.1795881,5.27657415 C11.320739,5.27657415 11.4417255,5.38804854 11.4417255,5.51810199 L11.4417255,7.11590152 C11.4417255,7.33885029 11.7240275,7.43174561 11.8853428,7.2831131 L15.7972407,3.77166994 C15.8980628,3.67877462 15.8980628,3.51156304 15.7972407,3.41866772 L11.9055072,0.0558570726 C11.7441919,-0.0741963778 11.46189,0.0372780082 11.46189,0.241647716 Z"></path></g><path fill="#FFF" fill-rule="nonzero" d="M24.760287 172.061394L14.4050003 172.061394C14.2138258 172.061394 14.0545137 172.215334 14.0545137 172.400063L14.0545137 181.85202C14.0545137 182.590935 14.6758309 183.191304 15.440529 183.191304L23.7247583 183.191304C24.4894564 183.191304 25.1107736 182.590935 25.1107736 181.85202L25.1107736 172.400063C25.1107736 172.215334 24.9514615 172.061394 24.760287 172.061394zM17.3522742 180.45116C17.3522742 180.697465 17.1451685 180.897588 16.8902691 180.897588 16.6353698 180.897588 16.428264 180.697465 16.428264 180.45116L16.428264 174.77075C16.428264 174.524444 16.6353698 174.324322 16.8902691 174.324322 17.1451685 174.324322 17.3522742 174.524444 17.3522742 174.77075L17.3522742 180.45116zM20.0446488 180.45116C20.0446488 180.697465 19.837543 180.897588 19.5826437 180.897588 19.3277443 180.897588 19.1206386 180.697465 19.1206386 180.45116L19.1206386 174.77075C19.1206386 174.524444 19.3277443 174.324322 19.5826437 174.324322 19.837543 174.324322 20.0446488 174.524444 20.0446488 174.77075L20.0446488 180.45116zM22.7370233 180.45116C22.7370233 180.697465 22.5299176 180.897588 22.2750182 180.897588 22.0201188 180.897588 21.8130131 180.697465 21.8130131 180.45116L21.8130131 174.77075C21.8130131 174.524444 22.0201188 174.324322 22.2750182 174.324322 22.5299176 174.324322 22.7370233 174.524444 22.7370233 174.77075L22.7370233 180.45116zM25.4134666 169.829254L22.338743 169.829254 21.6059074 168.844034C21.4784577 168.659305 21.2554207 168.551547 21.0164526 168.551547L18.1488347 168.551547C17.9098666 168.551547 17.7027609 168.659305 17.55938 168.844034L16.8265443 169.829254 13.7518207 169.829254C13.3694717 169.829254 13.0667787 170.121741 13.0667787 170.491199 13.0667787 170.860657 13.3694717 171.153144 13.7518207 171.153144L25.4134666 171.153144C25.7958157 171.153144 26.0985087 170.860657 26.0985087 170.491199 26.0985087 170.121741 25.7958157 169.829254 25.4134666 169.829254z" opacity=".7"></path><g fill-rule="nonzero" transform="translate(186.753 81.844)"><path fill="#00E2BB" d="M9.83576287,0.140997516 C4.35583784,0.140997516 0,4.51192051 0,10.0108236 C0,15.5097268 4.35583784,19.8806498 9.83576287,19.8806498 C15.3156879,19.8806498 19.6715257,15.5097268 19.6715257,10.0108236 C19.6715257,4.51192051 15.3156879,0.140997516 9.83576287,0.140997516 Z M9.83576287,17.2016969 C5.76094682,17.2016969 2.52919617,13.9587541 2.52919617,9.86982612 C2.52919617,5.78089815 5.76094682,2.53795529 9.83576287,2.53795529 C13.9105789,2.53795529 17.1423296,5.92189567 17.1423296,10.0108236 C17.1423296,14.0997516 13.9105789,17.2016969 9.83576287,17.2016969 Z M45.9470637,0.845985096 L45.525531,0.845985096 L45.525531,12.9717715 C45.525531,15.3687292 43.5583784,17.2016969 41.3102041,17.2016969 C39.0620297,17.2016969 37.0948771,15.3687292 37.0948771,12.9717715 L37.0948771,0.70498758 L34.5656809,0.70498758 L34.5656809,12.9717715 C34.5656809,15.3687292 32.5985284,17.2016969 30.350354,17.2016969 C28.1021796,17.2016969 26.1350271,15.3687292 26.1350271,12.9717715 L26.1350271,0.70498758 L23.6058309,0.70498758 L23.6058309,12.9717715 C23.6058309,16.6377069 26.6970706,19.7396522 30.350354,19.7396522 C32.5985284,19.7396522 34.5656809,18.6116721 35.830279,16.9197019 C37.0948771,18.6116721 39.0620297,19.7396522 41.3102041,19.7396522 C45.1039983,19.7396522 48.0547272,16.6377069 48.0547272,12.9717715 L48.0547272,0.70498758 L45.9470637,0.70498758 L45.9470637,0.845985096 Z M61.6842843,0 C56.2043593,0 51.8485214,4.37092299 51.8485214,9.86982612 L51.8485214,19.0346647 L54.3777176,19.0346647 L54.3777176,9.86982612 C54.3777176,5.78089815 57.6094682,2.53795529 61.6842843,2.53795529 C65.7591003,2.53795529 68.990851,5.78089815 68.990851,9.86982612 L68.990851,19.0346647 L71.5200472,19.0346647 L71.5200472,9.86982612 C71.5200472,4.51192051 67.1642093,0 61.6842843,0 Z" transform="translate(0 60.488)"></path><path fill="#688D9E" d="M114.094849,60.6289319 C108.614924,60.6289319 104.259086,64.9998549 104.259086,70.498758 C104.259086,75.9976611 108.614924,80.3685841 114.094849,80.3685841 C119.574774,80.3685841 123.930612,75.9976611 123.930612,70.498758 C123.930612,64.9998549 119.574774,60.6289319 114.094849,60.6289319 Z M114.094849,77.6896313 C110.020033,77.6896313 106.788283,74.4466884 106.788283,70.3577605 C106.788283,66.2688325 110.020033,63.0258896 114.094849,63.0258896 C118.169665,63.0258896 121.401416,66.2688325 121.401416,70.3577605 C121.401416,74.4466884 118.169665,77.6896313 114.094849,77.6896313 Z M144.726225,61.3339194 L144.304692,61.3339194 L144.304692,70.498758 C144.304692,74.5876859 141.072942,77.8306288 136.998126,77.8306288 C132.92331,77.8306288 129.691559,74.5876859 129.691559,70.498758 L129.691559,61.3339194 L127.162363,61.3339194 L127.162363,70.498758 C127.162363,75.8566636 131.518201,80.3685841 136.998126,80.3685841 C142.478051,80.3685841 146.833889,75.9976611 146.833889,70.498758 L146.833889,61.3339194 L144.726225,61.3339194 L144.726225,61.3339194 Z M169.877676,61.8979095 L169.877676,45.6831952 L167.34848,45.6831952 L167.34848,60.4879343 L159.901402,60.4879343 C154.421477,60.4879343 150.065639,64.8588573 150.065639,70.3577605 C150.065639,75.8566636 154.421477,80.2275866 159.901402,80.2275866 L162.992642,80.2275866 C166.083882,80.2275866 169.737165,77.2666387 169.877676,73.4597058 C170.018187,70.9217505 169.877676,63.3078847 169.877676,61.8979095 Z M167.34848,73.4597058 C167.34848,75.7156661 164.819284,77.6896313 162.992642,77.6896313 L159.901402,77.6896313 C155.826586,77.6896313 152.594835,74.4466884 152.594835,70.3577605 C152.594835,66.2688325 155.826586,63.0258896 159.901402,63.0258896 L167.34848,63.0258896 C167.34848,65.4228474 167.488991,71.2037456 167.34848,73.4597058 Z M97.7955851,73.4597058 L97.7955851,54.1430461 C96.9525197,53.7200536 96.1094543,53.1560635 95.2663889,52.5920735 L95.2663889,73.4597058 C95.2663889,77.1256412 98.3576287,80.2275866 102.010912,80.2275866 L102.432445,80.2275866 L102.432445,77.6896313 L102.010912,77.6896313 C99.6222268,77.6896313 97.7955851,75.8566636 97.7955851,73.4597058 L97.7955851,73.4597058 Z M77.7025267,65.2818499 C77.7025267,61.474917 79.3886574,58.0909766 82.0583645,55.8350163 C81.2152991,55.5530213 80.3722337,55.1300287 79.6696792,54.5660387 C76.8594613,57.2449915 75.0328196,61.0519244 75.0328196,65.2818499 C75.0328196,73.6007033 81.7773427,80.2275866 90.0674857,80.2275866 L90.4890184,80.2275866 L90.4890184,77.6896313 L90.0674857,77.6896313 C83.1824517,77.6896313 77.7025267,72.1907282 77.7025267,65.2818499 L77.7025267,65.2818499 Z"></path><path fill="url(#owncloud-section-img-saas-c)" d="M78.1240594,16.9197019 C77.5620158,15.9327193 77.1404831,14.6637417 77.1404831,13.394764 C77.1404831,9.44683357 80.3722337,6.2038907 84.3065389,6.2038907 C85.7116479,6.2038907 87.1167568,6.62688325 88.240844,7.33187083 C87.3977786,9.16483854 86.9762459,11.2798013 86.9762459,13.5357615 C86.9762459,13.9587541 86.9762459,14.3817466 86.9762459,14.8047392 L86.1331806,14.8047392 C83.3229626,14.9457367 80.5127446,15.6507243 78.1240594,16.9197019 L78.1240594,16.9197019 Z M76.5784395,44.6962126 C72.5036234,41.7352647 69.6934055,36.8003517 69.6934055,31.3014485 C69.6934055,29.8914734 69.8339164,28.4814982 70.2554491,27.2125206 L69.8339164,27.2125206 C62.2463279,27.2125206 56.0638484,33.4164113 56.0638484,40.8892796 C56.0638484,48.362148 62.2463279,54.5660387 69.8339164,54.5660387 C72.7846452,54.5660387 75.4543523,53.7200536 77.5620158,52.1690809 C76.5784395,50.7591057 76.1569068,49.0671356 76.1569068,47.2341678 C76.1569068,46.3881828 76.2974177,45.5421977 76.5784395,44.6962126 Z M77.280994,43.1452399 C78.5455921,40.7482821 80.7937664,39.0563119 83.4634735,38.4923219 C83.7444953,38.4923219 84.0255171,38.3513243 84.166028,38.3513243 C84.4470498,38.3513243 84.7280716,38.3513243 85.0090934,38.3513243 L85.4306261,38.3513243 C85.8521588,38.3513243 86.2736915,38.3513243 86.6952241,38.4923219 C86.5547133,37.5053392 86.5547133,36.6593542 86.5547133,35.6723715 C86.5547133,31.0194535 88.1003331,26.789528 90.6295293,23.4055876 C90.0674857,22.7006001 89.5054421,21.854615 89.0839094,21.1496274 L88.6623767,20.4446398 L88.3813549,19.7396522 C87.9598222,18.7526696 87.6788004,17.765687 87.5382895,16.6377069 C87.2572677,16.6377069 86.835735,16.6377069 86.5547133,16.6377069 C84.0255171,16.6377069 81.4963209,17.3426945 79.3886574,18.4706746 L78.686103,18.8936671 L77.9835485,19.3166597 C75.5948632,21.0086299 73.6277106,23.4055876 72.6441343,26.0845405 L72.3631125,26.789528 L72.0820907,27.4945156 C71.8010689,28.7634933 71.5200472,30.0324709 71.5200472,31.4424461 C71.3795363,36.2363616 73.6277106,40.4662871 77.280994,43.1452399 L77.280994,43.1452399 Z M125.335721,25.6615479 C127.302874,24.6745653 129.551048,23.9695777 131.939733,23.8285802 C131.37769,16.7787044 125.476232,11.2798013 118.310176,11.2798013 L117.467111,11.2798013 C117.607622,12.1257864 117.607622,12.830774 117.607622,13.676759 C117.607622,14.9457367 117.467111,16.2147143 117.186089,17.3426945 C120.558351,19.3166597 123.509079,22.13661 125.335721,25.6615479 L125.335721,25.6615479 Z M88.8028876,15.9327193 L88.9433985,16.7787044 C89.0839094,17.3426945 89.2244203,18.047682 89.5054421,18.6116721 L89.7864639,19.3166597 L90.2079966,20.0216473 C90.6295293,20.7266348 91.051062,21.4316224 91.4725947,21.9956125 C92.456171,20.8676324 93.4397473,19.8806498 94.7043453,19.0346647 L95.4068998,18.6116721 L96.1094543,18.1886796 C99.2006941,16.2147143 102.994488,14.9457367 106.928793,14.9457367 L107.209815,14.9457367 L108.052881,14.9457367 C108.474413,14.9457367 108.755435,14.9457367 109.176968,14.9457367 C111.565653,15.2277317 113.813827,15.7917218 115.921491,16.7787044 C116.202513,15.7917218 116.202513,14.8047392 116.202513,13.8177566 C116.202513,13.112769 116.202513,12.2667839 116.062002,11.5617963 L115.921491,10.8568087 L115.499958,10.0108236 C113.813827,4.22992548 108.614924,0 102.291934,0 C97.0930306,0 92.5966819,2.81995032 90.2079966,7.0498758 L89.7864639,7.75486338 L89.645953,8.60084847 C88.9433985,10.1518211 88.6623767,11.8437913 88.6623767,13.676759 C88.6623767,14.0997516 88.6623767,14.5227441 88.6623767,15.0867342 L88.8028876,15.9327193 L88.8028876,15.9327193 Z M150.627683,39.0563119 C150.20615,39.0563119 149.784617,39.0563119 149.363085,39.1973094 C149.363085,39.4793045 149.363085,39.902297 149.363085,40.184292 C149.363085,44.555215 147.676954,48.5031455 144.866736,51.4640933 C146.271845,53.015066 148.238998,54.0020486 150.487172,54.0020486 C154.702499,54.0020486 158.07476,50.6181082 158.07476,46.5291803 C158.215271,42.4402523 154.84301,39.0563119 150.627683,39.0563119 L150.627683,39.0563119 Z M147.957976,39.620302 L147.957976,38.7743169 L147.817465,37.9283318 C146.833889,30.878456 140.79192,25.5205504 133.625864,25.2385554 L133.063821,25.2385554 L132.782799,25.2385554 L131.939733,25.2385554 C129.83207,25.3795529 127.864917,25.9435429 126.038276,26.9305255 C127.162363,29.3274833 127.724406,31.8654386 127.864917,34.6853889 L127.864917,35.531374 L127.864917,35.8133691 C127.864917,36.0953641 127.864917,36.5183566 127.864917,36.8003517 C127.583896,42.0172598 125.335721,46.6701778 121.96346,50.0541182 C124.633167,53.1560635 128.707983,54.9890312 133.063821,54.9890312 C136.857615,54.9890312 140.370387,53.5790561 142.899583,51.1820983 L143.461627,50.6181082 L144.023671,50.0541182 C146.412356,47.3751654 147.957976,43.8502275 147.957976,40.0432945 L147.957976,39.620302 L147.957976,39.620302 Z M89.5054421,46.6701778 L89.0839094,45.9651902 C87.9598222,44.1322225 87.2572677,42.1582573 86.835735,40.0432945 C86.2736915,39.902297 85.8521588,39.902297 85.2901152,39.902297 L85.1496043,39.902297 C84.8685825,39.902297 84.5875607,39.902297 84.3065389,39.902297 C84.0255171,39.902297 83.7444953,40.0432945 83.6039844,40.0432945 C81.35581,40.6072846 79.5291683,42.0172598 78.5455921,43.991225 C78.4050812,44.27322 78.2645703,44.4142175 78.2645703,44.6962126 C78.1240594,44.9782076 78.1240594,45.2602026 77.9835485,45.4012001 C77.8430376,45.9651902 77.7025267,46.5291803 77.7025267,47.2341678 C77.7025267,48.644143 78.1240594,50.0541182 78.8266139,51.1820983 C78.9671248,51.4640933 79.1076356,51.6050908 79.2481465,51.8870859 C79.3886574,52.0280834 79.5291683,52.3100784 79.8101901,52.4510759 C81.2152991,53.8610511 83.0419408,54.8480337 85.2901152,54.8480337 C88.5218658,54.8480337 91.1915729,52.8740685 92.3156601,50.0541182 C91.4725947,49.2081331 90.7700402,48.2211505 90.0674857,47.2341678 L89.5054421,46.6701778 L89.5054421,46.6701778 Z M126.319297,37.0823467 C126.319297,36.8003517 126.319297,36.3773591 126.319297,36.0953641 L126.319297,35.531374 C126.319297,32.7114237 125.757254,30.1734684 124.633167,27.7765106 L124.352145,27.0715231 L123.930612,26.3665355 C122.244481,23.2645901 119.715285,20.5856373 116.624045,18.8936671 L115.921491,18.4706746 L115.218936,18.047682 C112.830251,16.9197019 110.301055,16.3557119 107.490837,16.2147143 L107.069304,16.2147143 L106.507261,16.2147143 C106.226239,16.2147143 105.804706,16.2147143 105.523684,16.2147143 C102.432445,16.4967094 99.6222268,17.3426945 97.2335415,18.8936671 L96.530987,19.3166597 L95.8284325,20.0216473 C94.5638344,21.0086299 93.4397473,21.9956125 92.3156601,23.2645901 L91.7536165,23.8285802 L91.3320838,24.3925703 C89.0839094,27.4945156 87.8193113,31.4424461 87.8193113,35.531374 C87.8193113,36.6593542 87.9598222,37.6463368 88.1003331,38.7743169 L88.240844,39.620302 C88.3813549,39.902297 88.3813549,40.3252896 88.5218658,40.6072846 C88.9433985,42.2992548 89.7864639,43.991225 90.6295293,45.5421977 L91.051062,46.2471852 L91.4725947,46.9521728 C91.8941274,47.3751654 92.1751492,47.9391554 92.5966819,48.362148 C92.8777037,48.644143 93.0182146,48.7851405 93.2992364,49.0671356 L94.0017909,49.6311256 C97.3740524,52.733071 102.010912,54.7070362 107.069304,54.7070362 C111.846675,54.7070362 116.343024,52.8740685 119.715285,49.9131207 L120.277329,49.3491306 L120.839372,48.7851405 C123.64959,45.8241927 125.616743,42.1582573 126.038276,37.9283318 C126.178787,37.7873343 126.319297,37.3643417 126.319297,37.0823467 L126.319297,37.0823467 Z"></path><g fill="#688D9E" transform="translate(30.35 95.032)"><path d="M10.3978065 5.63990064C10.3978065 7.47286835 9.97627377 8.88284351 8.99269748 9.86982612 8.00912119 10.8568087 6.88503401 11.2798013 5.19890323 11.2798013 3.51277245 11.2798013 2.24817437 10.8568087 1.40510898 9.86982612.562043593 8.88284351 0 7.47286835 0 5.63990064 0 3.80693293.421532694 2.39695777 1.40510898 1.40997516 2.24817437.422992548 3.65328335 0 5.19890323 0 6.88503401 0 8.14963209.422992548 8.99269748 1.40997516 9.97627377 2.39695777 10.3978065 3.80693293 10.3978065 5.63990064zM2.52919617 5.63990064C2.52919617 6.90887828 2.81021796 7.75486338 3.23175066 8.45985096 3.65328335 9.02384102 4.35583784 9.44683357 5.33941413 9.44683357 7.1660558 9.44683357 8.14963209 8.17785593 8.14963209 5.78089815 8.14963209 3.38394038 7.1660558 2.11496274 5.33941413 2.11496274 4.35583784 2.11496274 3.79379425 2.39695777 3.23175066 3.10194535 2.66970706 3.5249379 2.52919617 4.37092299 2.52919617 5.63990064zM32.8795502 11.1388038L29.9288213 11.1388038 25.1514508 2.81995032 25.1514508 2.81995032C25.2919617 4.22992548 25.2919617 5.35790561 25.2919617 5.92189567L25.2919617 10.9978062 23.1842982 10.9978062 23.1842982.140997516 26.1350271.140997516 30.9123976 8.31885344 30.9123976 8.31885344C30.7718867 6.90887828 30.7718867 5.92189567 30.7718867 5.35790561L30.7718867.140997516 32.8795502.140997516 32.8795502 11.1388038z"></path><polygon points="46.088 11.139 46.088 .282 48.336 .282 48.336 9.306 52.832 9.306 52.832 11.28 46.088 11.28"></polygon><polygon points="65.197 11.139 65.197 .282 67.445 .282 67.445 11.139"></polygon><path d="M90.4890184,11.1388038 L87.5382895,11.1388038 L82.760919,2.81995032 L82.760919,2.81995032 C82.9014299,4.22992548 82.9014299,5.35790561 82.9014299,5.92189567 L82.9014299,10.9978062 L80.7937664,10.9978062 L80.7937664,0.140997516 L83.7444953,0.140997516 L88.5218658,8.31885344 L88.5218658,8.31885344 C88.3813549,6.90887828 88.3813549,5.92189567 88.3813549,5.35790561 L88.3813549,0.140997516 L90.4890184,0.140997516 L90.4890184,11.1388038 L90.4890184,11.1388038 Z"></path><polygon points="110.02 11.139 103.697 11.139 103.697 .282 110.02 .282 110.02 2.115 106.086 2.115 106.086 4.512 109.739 4.512 109.739 6.345 106.086 6.345 106.086 9.165 110.02 9.165"></polygon></g></g><g transform="translate(123.393 229.792)"><use fill="#000" filter="url(#owncloud-section-img-saas-d)" xlink:href="#owncloud-section-img-saas-e"></use><rect width="106.827" height="113" x="257.799" y="-.5" fill="#FFF" stroke="#B5B6BB" rx="17"></rect><g transform="translate(0 83.96)"><line x1="80.412" x2="257.412" y1="12.547" y2="12.547" stroke="#B5B6BB" stroke-linecap="square"></line><path fill="#041E42" fill-rule="nonzero" d="M6.9 20.4C5.52 20.4 4.24 20.14 3.06 19.62 1.88 19.1.86 18.39 0 17.49L1.5 15.75C2.2 16.49 3.025 17.085 3.975 17.535 4.925 17.985 5.91 18.21 6.93 18.21 8.23 18.21 9.24 17.915 9.96 17.325 10.68 16.735 11.04 15.96 11.04 15 11.04 14.5 10.955 14.075 10.785 13.725 10.615 13.375 10.385 13.075 10.095 12.825 9.805 12.575 9.46 12.35 9.06 12.15 8.66 11.95 8.23 11.74 7.77 11.52L4.95 10.29C4.49 10.09 4.02 9.85 3.54 9.57 3.06 9.29 2.63 8.95 2.25 8.55 1.87 8.15 1.56 7.675 1.32 7.125 1.08 6.575.96 5.94.96 5.22.96 4.48 1.115 3.79 1.425 3.15 1.735 2.51 2.165 1.955 2.715 1.485 3.265 1.015 3.915.65 4.665.39 5.415.13 6.24 0 7.14 0 8.32 0 9.41.225 10.41.675 11.41 1.125 12.26 1.71 12.96 2.43L11.61 4.05C11.01 3.47 10.345 3.015 9.615 2.685 8.885 2.355 8.06 2.19 7.14 2.19 6.04 2.19 5.155 2.445 4.485 2.955 3.815 3.465 3.48 4.17 3.48 5.07 3.48 5.55 3.575 5.955 3.765 6.285 3.955 6.615 4.21 6.905 4.53 7.155 4.85 7.405 5.2 7.625 5.58 7.815 5.96 8.005 6.35 8.18 6.75 8.34L9.54 9.54C10.1 9.78 10.63 10.055 11.13 10.365 11.63 10.675 12.06 11.035 12.42 11.445 12.78 11.855 13.065 12.335 13.275 12.885 13.485 13.435 13.59 14.07 13.59 14.79 13.59 15.57 13.435 16.3 13.125 16.98 12.815 17.66 12.37 18.255 11.79 18.765 11.21 19.275 10.51 19.675 9.69 19.965 8.87 20.255 7.94 20.4 6.9 20.4zM20.58 20.4C19.36 20.4 18.345 20.04 17.535 19.32 16.725 18.6 16.32 17.58 16.32 16.26 16.32 14.66 17.03 13.435 18.45 12.585 19.87 11.735 22.14 11.14 25.26 10.8 25.26 10.34 25.215 9.89 25.125 9.45 25.035 9.01 24.88 8.62 24.66 8.28 24.44 7.94 24.135 7.665 23.745 7.455 23.355 7.245 22.86 7.14 22.26 7.14 21.42 7.14 20.63 7.3 19.89 7.62 19.15 7.94 18.49 8.3 17.91 8.7L16.95 6.99C17.63 6.55 18.46 6.125 19.44 5.715 20.42 5.305 21.5 5.1 22.68 5.1 24.46 5.1 25.75 5.645 26.55 6.735 27.35 7.825 27.75 9.28 27.75 11.1L27.75 20.04 25.71 20.04 25.5 18.3 25.41 18.3C24.71 18.88 23.96 19.375 23.16 19.785 22.36 20.195 21.5 20.4 20.58 20.4zM21.3 18.42C22 18.42 22.66 18.255 23.28 17.925 23.9 17.595 24.56 17.11 25.26 16.47L25.26 12.42C24.04 12.58 23.015 12.77 22.185 12.99 21.355 13.21 20.685 13.47 20.175 13.77 19.665 14.07 19.295 14.415 19.065 14.805 18.835 15.195 18.72 15.62 18.72 16.08 18.72 16.92 18.97 17.52 19.47 17.88 19.97 18.24 20.58 18.42 21.3 18.42zM35.7 20.4C34.48 20.4 33.465 20.04 32.655 19.32 31.845 18.6 31.44 17.58 31.44 16.26 31.44 14.66 32.15 13.435 33.57 12.585 34.99 11.735 37.26 11.14 40.38 10.8 40.38 10.34 40.335 9.89 40.245 9.45 40.155 9.01 40 8.62 39.78 8.28 39.56 7.94 39.255 7.665 38.865 7.455 38.475 7.245 37.98 7.14 37.38 7.14 36.54 7.14 35.75 7.3 35.01 7.62 34.27 7.94 33.61 8.3 33.03 8.7L32.07 6.99C32.75 6.55 33.58 6.125 34.56 5.715 35.54 5.305 36.62 5.1 37.8 5.1 39.58 5.1 40.87 5.645 41.67 6.735 42.47 7.825 42.87 9.28 42.87 11.1L42.87 20.04 40.83 20.04 40.62 18.3 40.53 18.3C39.83 18.88 39.08 19.375 38.28 19.785 37.48 20.195 36.62 20.4 35.7 20.4zM36.42 18.42C37.12 18.42 37.78 18.255 38.4 17.925 39.02 17.595 39.68 17.11 40.38 16.47L40.38 12.42C39.16 12.58 38.135 12.77 37.305 12.99 36.475 13.21 35.805 13.47 35.295 13.77 34.785 14.07 34.415 14.415 34.185 14.805 33.955 15.195 33.84 15.62 33.84 16.08 33.84 16.92 34.09 17.52 34.59 17.88 35.09 18.24 35.7 18.42 36.42 18.42zM53.16 20.4C51.78 20.4 50.5 20.14 49.32 19.62 48.14 19.1 47.12 18.39 46.26 17.49L47.76 15.75C48.46 16.49 49.285 17.085 50.235 17.535 51.185 17.985 52.17 18.21 53.19 18.21 54.49 18.21 55.5 17.915 56.22 17.325 56.94 16.735 57.3 15.96 57.3 15 57.3 14.5 57.215 14.075 57.045 13.725 56.875 13.375 56.645 13.075 56.355 12.825 56.065 12.575 55.72 12.35 55.32 12.15 54.92 11.95 54.49 11.74 54.03 11.52L51.21 10.29C50.75 10.09 50.28 9.85 49.8 9.57 49.32 9.29 48.89 8.95 48.51 8.55 48.13 8.15 47.82 7.675 47.58 7.125 47.34 6.575 47.22 5.94 47.22 5.22 47.22 4.48 47.375 3.79 47.685 3.15 47.995 2.51 48.425 1.955 48.975 1.485 49.525 1.015 50.175.65 50.925.39 51.675.13 52.5 0 53.4 0 54.58 0 55.67.225 56.67.675 57.67 1.125 58.52 1.71 59.22 2.43L57.87 4.05C57.27 3.47 56.605 3.015 55.875 2.685 55.145 2.355 54.32 2.19 53.4 2.19 52.3 2.19 51.415 2.445 50.745 2.955 50.075 3.465 49.74 4.17 49.74 5.07 49.74 5.55 49.835 5.955 50.025 6.285 50.215 6.615 50.47 6.905 50.79 7.155 51.11 7.405 51.46 7.625 51.84 7.815 52.22 8.005 52.61 8.18 53.01 8.34L55.8 9.54C56.36 9.78 56.89 10.055 57.39 10.365 57.89 10.675 58.32 11.035 58.68 11.445 59.04 11.855 59.325 12.335 59.535 12.885 59.745 13.435 59.85 14.07 59.85 14.79 59.85 15.57 59.695 16.3 59.385 16.98 59.075 17.66 58.63 18.255 58.05 18.765 57.47 19.275 56.77 19.675 55.95 19.965 55.13 20.255 54.2 20.4 53.16 20.4z"></path></g></g><g transform="translate(391.19 239.057)"><path fill="#041E42" d="M76.9132607,47.8475334 C77.2065451,47.8511483 77.4962708,47.8667912 77.7812715,47.9104352 C79.3013114,48.1439423 80.6649141,48.9003546 81.5504105,50.234558 C83.3206494,52.9002367 82.1716005,56.4975209 79.2262876,58.2439783 L79.2262876,58.2439783 L53.3125598,73.980313 C53.1526944,74.0819739 52.9676118,74.1359584 52.7783112,74.1373605 L52.7783112,74.1373605 L24.9800139,74.1373605 L26.9277613,77.4978171 C27.0630752,77.7305884 27.0995318,78.0082303 27.0287204,78.2683368 C26.9578965,78.5277612 26.7854315,78.7486023 26.5505603,78.8804091 L26.5505603,78.8804091 L18.1015866,83.7488802 C17.8688153,83.8841923 17.5911734,83.9206507 17.3317669,83.8491375 C17.0716424,83.7783136 16.8515032,83.6065486 16.7196946,83.3716774 L16.7196946,83.3716774 L0.135124147,54.6328901 C-0.123582372,54.1855831 -0.000887924768,53.6155816 0.418365967,53.3134043 C0.437997796,53.291669 0.459031387,53.2706372 0.48076496,53.2510053 L0.48076496,53.2510053 L8.96132764,48.3825342 C9.43946984,48.1217277 10.0382245,48.2885929 10.3123486,48.7590353 L10.3123486,48.7590353 L23.8184299,72.1276969 L52.4943981,72.1276969 L78.1873621,56.5168207 C80.3222204,55.2512874 80.9728456,52.9741352 79.8840311,51.3342546 C78.7958268,49.695774 76.3006568,49.3536259 74.0100972,50.5174642 L74.0100972,50.5174642 L62.0113125,56.579855 C61.7729414,56.7137672 61.4896816,56.7446149 61.2281752,56.6646894 C60.9659508,56.5854657 60.7479169,56.4024829 60.6238207,56.158494 C60.4997245,55.9152051 60.4800926,55.6305633 60.5705358,55.3725567 C60.6602772,55.1138502 60.8516777,54.9035179 61.1005665,54.7892376 L61.1005665,54.7892376 L73.0993512,48.6959758 C74.2191444,48.1273742 75.4368994,47.8581488 76.6168553,47.8476323 L76.6168553,47.8476323 Z M27.2107339,47.785 C31.620806,47.785 35.6570154,49.4893687 38.7383763,52.2131998 L38.7383763,52.2131998 L47.8471288,52.1508008 L47.8779783,52.1508008 C49.5683474,52.1508008 50.9313219,52.7488376 51.8357537,53.6897223 C52.7401855,54.6305712 53.1524324,55.8616618 53.1236864,57.0815885 C53.0653545,59.5229136 51.103069,61.9817705 47.8779424,61.9817705 L47.8779424,61.9817705 L34.435039,61.9817705 C34.1658148,61.9858485 33.9064083,61.8813895 33.7150078,61.692789 C33.5236002,61.5034884 33.4156305,61.2454819 33.4156305,60.9769577 C33.4156305,60.7077335 33.5236074,60.4497269 33.7150078,60.2611264 C33.9064083,60.0718241 34.1658148,59.9680613 34.435039,59.9715668 L34.435039,59.9715668 L47.8779424,59.9715668 C50.1494589,59.9715668 51.0784242,58.5182586 51.113479,57.050843 C51.1310144,56.3168481 50.8954432,55.5968169 50.3906478,55.0716861 C49.8864806,54.5472553 49.1216505,54.1609545 47.8778885,54.1609545 L47.8778885,54.1609545 L38.4241701,54.2240534 C38.1703634,54.2303712 37.9228746,54.1406298 37.7328741,53.9723647 C34.9656081,51.3923711 31.2601856,49.7952613 27.2106945,49.7952613 C24.636911,49.7952613 22.1598688,50.5756525 19.9233335,51.8993383 C19.4465912,52.18608 18.8275191,52.0311325 18.5414594,51.5543902 C18.2554177,51.076948 18.4103652,50.4585759 18.8871074,50.1718162 C21.3907131,48.6896651 24.2337208,47.7852333 27.2106227,47.7852333 Z"></path><g transform="translate(7.6)"><path stroke="#041E42" stroke-width="2.1" d="M14.44 17.952529L17.9865407 25.1386055 25.9168469 26.2909464 20.1784234 31.8845268 21.5330815 39.7827891 14.44 36.0537355 7.34691853 39.7827891 8.70157655 31.8845268 2.9631531 26.2909464 10.8934593 25.1386055 14.44 17.952529zM62.595967 17.952529L66.1425077 25.1386055 74.0728139 26.2909464 68.3343905 31.8845268 69.6890485 39.7827891 62.595967 36.0537355 55.5028855 39.7827891 56.8575436 31.8845268 51.1191201 26.2909464 59.0494263 25.1386055 62.595967 17.952529z"></path><circle cx="38.38" cy="19.76" r="19.76" fill="#FFF"></circle><path fill="#06E3BD" stroke="#041E42" stroke-width="2.1" d="M38.38,9.21252904 L43.0433327,18.6614732 L53.4708617,20.1766818 L45.9254308,27.5316591 L47.7066654,37.9170537 L38.38,33.0137355 L29.0533346,37.9170537 L30.8345692,27.5316591 L23.2891383,20.1766818 L33.7166673,18.6614732 L38.38,9.21252904 Z"></path></g></g></g></svg> 