<?xml version="1.0" encoding="UTF-8"?> <svg xmlns="http://www.w3.org/2000/svg" xmlns:xlink="http://www.w3.org/1999/xlink" width="529" height="382" viewBox="0 0 529 382"><defs><path id="owncloud-section-img-on-premises-b" d="M6.76248954,3.80754096e-15 L429.84768,1.56716542e-14 C432.199145,-9.1056824e-15 433.051843,0.244836323 433.911503,0.704587754 C434.771164,1.16433919 435.44583,1.83900572 435.905582,2.69866616 C436.365333,3.55832659 436.610169,4.4110246 436.610169,6.76248954 L436.610169,273.23751 C436.610169,275.588975 436.365333,276.441673 435.905582,277.301334 C435.44583,278.160994 434.771164,278.835661 433.911503,279.295412 C433.051843,279.755164 432.199145,280 429.84768,280 L6.76248954,280 C4.4110246,280 3.55832659,279.755164 2.69866616,279.295412 C1.83900572,278.835661 1.16433919,278.160994 0.704587754,277.301334 C0.244836323,276.441673 -2.26520575e-15,275.588975 3.89861185e-15,273.23751 L-2.71275289e-16,6.76248954 C1.57618755e-16,4.4110246 0.244836323,3.55832659 0.704587754,2.69866616 C1.16433919,1.83900572 1.83900572,1.16433919 2.69866616,0.704587754 C3.55832659,0.244836323 4.4110246,-2.21229094e-15 6.76248954,3.80754096e-15 Z"></path><filter id="owncloud-section-img-on-premises-a" width="114.1%" height="122%" x="-6.8%" y="-9.6%"><feMorphology in="SourceAlpha" operator="dilate" radius=".311" result="shadowSpreadOuter1"></feMorphology><feOffset dx="1" dy="4" in="shadowSpreadOuter1" result="shadowOffsetOuter1"></feOffset><feGaussianBlur in="shadowOffsetOuter1" result="shadowBlurOuter1" stdDeviation="9.5"></feGaussianBlur><feComposite in="shadowBlurOuter1" in2="SourceAlpha" operator="out" result="shadowBlurOuter1"></feComposite><feColorMatrix in="shadowBlurOuter1" values="0 0 0 0 0.0156862745 0 0 0 0 0.117647059 0 0 0 0 0.258823529 0 0 0 0.1 0"></feColorMatrix></filter><rect id="owncloud-section-img-on-premises-d" width="105.827" height="112" x="242.999" y="0" rx="17"></rect><filter id="owncloud-section-img-on-premises-c" width="160.5%" height="157.1%" x="-30.2%" y="-26.8%"><feMorphology in="SourceAlpha" operator="dilate" radius="1" result="shadowSpreadOuter1"></feMorphology><feOffset dy="2" in="shadowSpreadOuter1" result="shadowOffsetOuter1"></feOffset><feGaussianBlur in="shadowOffsetOuter1" result="shadowBlurOuter1" stdDeviation="10"></feGaussianBlur><feComposite in="shadowBlurOuter1" in2="SourceAlpha" operator="out" result="shadowBlurOuter1"></feComposite><feColorMatrix in="shadowBlurOuter1" values="0 0 0 0 0.0156862745 0 0 0 0 0.117647059 0 0 0 0 0.258823529 0 0 0 0.15 0"></feColorMatrix></filter></defs><g fill="none" fill-rule="evenodd" transform="translate(18.508 16.26)"><use fill="#000" filter="url(#owncloud-section-img-on-premises-a)" xlink:href="#owncloud-section-img-on-premises-b"></use><use fill="#FFF" stroke="#ECEBEE" stroke-width=".622" xlink:href="#owncloud-section-img-on-premises-b"></use><path fill="#041E42" d="M139.574468,0 L139.574468,280 L5.45507489,280 L4.96681538,279.995121 C3.66317237,279.967527 3.01550273,279.823314 2.46337857,279.573618 L2.27156594,279.481128 C2.2399542,279.464989 2.20844492,279.44849 2.17692403,279.431633 C1.48346462,279.060766 0.939233609,278.516535 0.568367455,277.823076 L0.471538576,277.633177 C0.178639933,277.026493 0.0166851469,276.341639 0,274.796206 L0,5.45507489 C0,3.81688765 0.147309854,3.08045852 0.426381865,2.46337857 L0.51887164,2.27156594 C0.535010542,2.2399542 0.551509902,2.20844492 0.568367455,2.17692403 C0.939233609,1.48346462 1.48346462,0.939233609 2.17692403,0.568367455 L2.36682265,0.471538576 C2.97350686,0.178639933 3.65836084,0.0166851469 5.20379351,0 L139.574468,0 Z"></path><g transform="translate(13.715 9.397)"><circle cx="4.22" cy="4.22" r="4.22" fill="#DE5039"></circle><circle cx="16.881" cy="4.22" r="4.22" fill="#F7C843"></circle><circle cx="29.541" cy="4.22" r="4.22" fill="#25BA26"></circle></g><path fill="#B5B6BB" fill-rule="nonzero" d="M0.636946705,0 C0.290291833,0 0,0.301014633 0,0.660429337 L0,16.5553945 C0,16.926534 0.278925706,17.2158611 0.636946705,17.2158611 L18.7304295,17.2158611 C19.0884385,17.2158611 19.3673642,16.926534 19.3673642,16.5553945 L19.3678438,3.532564 C19.3678438,3.17336066 19.0775639,2.86886466 18.7309091,2.86886466 L9.68392788,2.86948633 L6.91721124,0 L0.636946705,0 Z" opacity=".5" transform="translate(13.715 43.404)"></path><g transform="translate(14.77 117.447)"><path fill="#D0CFD3" d="M33.3010922,5.45754124 L85.4897876,5.45754124 C86.4303736,5.45754124 86.7714528,5.55547577 87.115317,5.73937634 C87.4591811,5.92327691 87.7290478,6.19314353 87.9129483,6.5370077 C88.0968489,6.88087188 88.1947834,7.22195108 88.1947834,8.16253706 L88.1947834,11.8701561 C88.1947834,12.8107421 88.0968489,13.1518213 87.9129483,13.4956854 C87.7290478,13.8395496 87.4591811,14.1094162 87.115317,14.2933168 C86.7714528,14.4772174 86.4303736,14.5751519 85.4897876,14.5751519 L33.3010922,14.5751519 C32.3605062,14.5751519 32.019427,14.4772174 31.6755628,14.2933168 C31.3316987,14.1094162 31.061832,13.8395496 30.8779315,13.4956854 C30.6940309,13.1518213 30.5960964,12.8107421 30.5960964,11.8701561 L30.5960964,8.16253706 C30.5960964,7.22195108 30.6940309,6.88087188 30.8779315,6.5370077 C31.061832,6.19314353 31.3316987,5.92327691 31.6755628,5.73937634 C32.019427,5.55547577 32.3605062,5.45754124 33.3010922,5.45754124 Z" opacity=".3"></path><path fill="#B5B6BB" fill-rule="nonzero" d="M13.6626341,0.012239936 C12.0119667,0.012239936 10.6701378,1.31668438 10.6701378,2.92867206 C10.6701378,3.01779781 10.6803594,3.10739889 10.688269,3.19438562 L4.92693487,6.06364052 C4.40478126,5.62787503 3.72697939,5.36691484 2.986412,5.36691484 C1.33574462,5.36691484 0,6.67135928 0,8.2834658 C0,9.89545349 1.33574462,11.1998979 2.986412,11.1998979 C3.65090145,11.1998979 4.26751972,10.9913437 4.76375426,10.6330582 L10.6821847,13.5731383 C10.6792643,13.6254254 10.6701378,13.6789009 10.6701378,13.732614 C10.6701378,15.3446017 12.0119667,16.6490461 13.6626341,16.6490461 C15.3133015,16.6490461 16.6490461,15.3446017 16.6490461,13.732614 C16.6490461,12.1206263 15.3133015,10.8102402 13.6626341,10.8102402 C12.8880677,10.8102402 12.1805015,11.0998394 11.6494649,11.5718494 L5.93595322,8.71982546 C5.95897616,8.57389691 5.97827553,8.42345264 5.97827553,8.27122587 C5.97827553,8.18566515 5.96744549,8.10046094 5.96014435,8.0172769 L11.7274411,5.14802201 C12.2482805,5.57903412 12.9258998,5.83880597 13.6620014,5.83880597 C15.3126687,5.83880597 16.6484134,4.52841981 16.6484134,2.91643213 C16.6484134,1.30444444 15.3126687,0 13.6620014,0 L13.6626341,0.012239936 Z" opacity=".5"></path></g><g transform="translate(13.715 68.085)"><path fill="#D0CFD3" d="M34.35613,6.33022683 L93.1478672,6.33022683 C94.0884531,6.33022683 94.4295323,6.42816136 94.7733965,6.61206193 C95.1172607,6.79596251 95.3871273,7.06582912 95.5710279,7.4096933 C95.7549285,7.75355747 95.852863,8.09463667 95.852863,9.03522265 L95.852863,13.1205713 C95.852863,14.0611572 95.7549285,14.4022364 95.5710279,14.7461006 C95.3871273,15.0899648 95.1172607,15.3598314 94.7733965,15.543732 C94.4295323,15.7276326 94.0884531,15.8255671 93.1478672,15.8255671 L34.35613,15.8255671 C33.415544,15.8255671 33.0744648,15.7276326 32.7306006,15.543732 C32.3867365,15.3598314 32.1168698,15.0899648 31.9329693,14.7461006 C31.7490687,14.4022364 31.6511342,14.0611572 31.6511342,13.1205713 L31.6511342,9.03522265 C31.6511342,8.09463667 31.7490687,7.75355747 31.9329693,7.4096933 C32.1168698,7.06582912 32.3867365,6.79596251 32.7306006,6.61206193 C33.0744648,6.42816136 33.415544,6.33022683 34.35613,6.33022683 Z" opacity=".3"></path><polygon fill="#B5B6BB" fill-rule="nonzero" points="9.966 0 12.63 6.604 19.901 7.17 14.373 11.717 16.076 18.73 9.995 14.936 3.776 18.705 5.546 11.813 0 7.129 7.175 6.664" opacity=".5"></polygon></g><g transform="translate(13.715 47.66)"><path fill="#D0CFD3" d="M34.35613 48.4438192L75.6443009 48.4438192C76.5848869 48.4438192 76.9259661 48.5417538 77.2698302 48.7256543 77.6136944 48.9095549 77.883561 49.1794215 78.0674616 49.5232857 78.2513622 49.8671499 78.3492967 50.2082291 78.3492967 51.1488151L78.3492967 55.2341637C78.3492967 56.1747496 78.2513622 56.5158288 78.0674616 56.859693 77.883561 57.2035572 77.6136944 57.4734238 77.2698302 57.6573244 76.9259661 57.841225 76.5848869 57.9391595 75.6443009 57.9391595L34.35613 57.9391595C33.415544 57.9391595 33.0744648 57.841225 32.7306006 57.6573244 32.3867365 57.4734238 32.1168698 57.2035572 31.9329693 56.859693 31.7490687 56.5158288 31.6511342 56.1747496 31.6511342 55.2341637L31.6511342 51.1488151C31.6511342 50.2082291 31.7490687 49.8671499 31.9329693 49.5232857 32.1168698 49.1794215 32.3867365 48.9095549 32.7306006 48.7256543 33.0744648 48.5417538 33.415544 48.4438192 34.35613 48.4438192zM34.35613-.917882891L69.8070306-.917882891C70.7476165-.917882891 71.0886957-.819948362 71.4325599-.636047789 71.7764241-.452147217 72.0462907-.182280601 72.2301913.161583573 72.4140919.505447746 72.5120264.846526949 72.5120264 1.78711292L72.5120264 5.87246154C72.5120264 6.81304752 72.4140919 7.15412672 72.2301913 7.4979909 72.0462907 7.84185507 71.7764241 8.11172168 71.4325599 8.29562226 71.0886957 8.47952283 70.7476165 8.57745736 69.8070306 8.57745736L34.35613 8.57745736C33.415544 8.57745736 33.0744648 8.47952283 32.7306006 8.29562226 32.3867365 8.11172168 32.1168698 7.84185507 31.9329693 7.4979909 31.7490687 7.15412672 31.6511342 6.81304752 31.6511342 5.87246154L31.6511342 1.78711292C31.6511342.846526949 31.7490687.505447746 31.9329693.161583573 32.1168698-.182280601 32.3867365-.452147217 32.7306006-.636047789 33.0744648-.819948362 33.415544-.917882891 34.35613-.917882891z" opacity=".3"></path><g fill="#B5B6BB" fill-rule="nonzero" opacity=".5" transform="translate(0 44.363)"><path d="M1.18185245,16.4919067 L16.3095638,16.4919067 C16.9714012,16.4919067 17.4914162,15.936723 17.4914162,15.2849856 L17.4914162,9.51590261 C17.4914162,9.10554943 17.1841346,8.79174993 16.7823048,8.79174993 C16.3804749,8.79174993 16.0731933,9.10554943 16.0731933,9.51590261 L16.0731933,15.0436014 L1.41822294,15.0436014 L1.41822294,4.44683386 L4.25466882,4.44683386 C4.65649865,4.44683386 4.96378029,4.13303436 4.96378029,3.72268118 C4.96378029,3.31232799 4.65649865,2.9985285 4.25466882,2.9985285 L1.18185245,2.9985285 C0.520015078,2.9985285 0,3.55371222 0,4.20544963 L0,15.2849856 C0,15.936723 0.543652127,16.4919067 1.18185245,16.4919067 Z"></path><path d="M13.7132897,0.306844336 L13.7132897,2.61883104 C13.7132897,2.78397294 13.5926636,2.90193145 13.4237871,2.92552315 C5.14883834,3.63327418 4.54570796,7.97414717 4.54570796,7.97414717 C4.03907845,11.8903695 7.68198593,13.4946052 9.25012491,13.9900309 C9.32250055,14.0136226 9.37075098,13.8956641 9.29837534,13.8720724 C5.43834092,11.7488193 7.6337355,8.8706318 7.65786071,8.8234484 C7.65786071,8.8234484 7.65786071,8.8234484 7.65786071,8.8234484 C9.27425012,6.86533722 12.3864029,6.70019531 13.3755367,6.70019531 C13.5444132,6.70019531 13.6891645,6.84174552 13.6891645,7.00688742 L13.6891645,9.03577371 C13.6891645,9.31887412 14.0269175,9.43683263 14.2199192,9.24809902 L18.9002109,4.78926753 C19.020837,4.67130902 19.020837,4.45898371 18.9002109,4.34102521 L14.2440444,0.0709273262 C14.0510427,-0.0942145809 13.7132897,0.0473356251 13.7132897,0.306844336 Z"></path></g></g><g transform="translate(15.845 168.59)"><path fill="#D0CFD3" d="M32.2262724,5.17627923 L73.6855502,5.17627923 C74.6261362,5.17627923 74.9672154,5.27421376 75.3110795,5.45811433 C75.6549437,5.64201491 75.9248103,5.91188152 76.1087109,6.2557457 C76.2926115,6.59960987 76.390546,6.94068907 76.390546,7.88127505 L76.390546,11.9666237 C76.390546,12.9072096 76.2926115,13.2482888 76.1087109,13.592153 C75.9248103,13.9360172 75.6549437,14.2058838 75.3110795,14.3897844 C74.9672154,14.573685 74.6261362,14.6716195 73.6855502,14.6716195 L32.2262724,14.6716195 C31.2856864,14.6716195 30.9446072,14.573685 30.6007431,14.3897844 C30.2568789,14.2058838 29.9870123,13.9360172 29.8031117,13.592153 C29.6192111,13.2482888 29.5212766,12.9072096 29.5212766,11.9666237 L29.5212766,7.88127505 C29.5212766,6.94068907 29.6192111,6.59960987 29.8031117,6.2557457 C29.9870123,5.91188152 30.2568789,5.64201491 30.6007431,5.45811433 C30.9446072,5.27421376 31.2856864,5.17627923 32.2262724,5.17627923 Z" opacity=".3"></path><path fill="#B5B6BB" fill-rule="nonzero" d="M14.5199578 4.51028662L1.66168454 4.51028662C1.42430104 4.51028662 1.22648145 4.70810621 1.22648145 4.94548971L1.22648145 17.0916124C1.22648145 18.0411465 1.99797784 18.8126429 2.94751187 18.8126429L13.2341305 18.8126429C14.1836645 18.8126429 14.9551609 18.0411465 14.9551609 17.0916124L14.9551609 4.94548971C14.9551609 4.70810621 14.7573413 4.51028662 14.5199578 4.51028662zM5.32134693 15.2914542C5.32134693 15.6079655 5.06418147 15.865131 4.74767012 15.865131 4.43115878 15.865131 4.17399332 15.6079655 4.17399332 15.2914542L4.17399332 7.99191138C4.17399332 7.67540004 4.43115878 7.41823457 4.74767012 7.41823457 5.06418147 7.41823457 5.32134693 7.67540004 5.32134693 7.99191138L5.32134693 15.2914542zM8.66449798 15.2914542C8.66449798 15.6079655 8.40733251 15.865131 8.09082117 15.865131 7.77430983 15.865131 7.51714436 15.6079655 7.51714436 15.2914542L7.51714436 7.99191138C7.51714436 7.67540004 7.77430983 7.41823457 8.09082117 7.41823457 8.40733251 7.41823457 8.66449798 7.67540004 8.66449798 7.99191138L8.66449798 15.2914542zM12.007649 15.2914542C12.007649 15.6079655 11.7504836 15.865131 11.4339722 15.865131 11.1174609 15.865131 10.8602954 15.6079655 10.8602954 15.2914542L10.8602954 7.99191138C10.8602954 7.67540004 11.1174609 7.41823457 11.4339722 7.41823457 11.7504836 7.41823457 12.007649 7.67540004 12.007649 7.99191138L12.007649 15.2914542zM15.3310181 1.64190258L11.5131001 1.64190258 10.6031299.375857218C10.4448743.138473712 10.1679269 0 9.87119747 0L6.31044487 0C6.01371549 0 5.75655003.138473712 5.5785124.375857218L4.66854229 1.64190258.850624231 1.64190258C.375857218 1.64190258 0 2.0177598 0 2.49252682 0 2.96729383.375857218 3.34315105.850624231 3.34315105L15.3310181 3.34315105C15.8057851 3.34315105 16.1816423 2.96729383 16.1816423 2.49252682 16.1816423 2.0177598 15.8057851 1.64190258 15.3310181 1.64190258z" opacity=".5"></path></g><g transform="translate(14.774 142.138)"><path fill="#D0CFD3" d="M33.2979449,5.26275733 L92.14301,5.26275733 C93.083596,5.26275733 93.4246752,5.36069185 93.7685394,5.54459243 C94.1124036,5.728493 94.3822702,5.99835962 94.5661707,6.34222379 C94.7500713,6.68608796 94.8480058,7.02716717 94.8480058,7.96775314 L94.8480058,11.6753722 C94.8480058,12.6159582 94.7500713,12.9570374 94.5661707,13.3009015 C94.3822702,13.6447657 94.1124036,13.9146323 93.7685394,14.0985329 C93.4246752,14.2824335 93.083596,14.380368 92.14301,14.380368 L33.2979449,14.380368 C32.3573589,14.380368 32.0162797,14.2824335 31.6724155,14.0985329 C31.3285513,13.9146323 31.0586847,13.6447657 30.8747841,13.3009015 C30.6908836,12.9570374 30.592949,12.6159582 30.592949,11.6753722 L30.592949,7.96775314 C30.592949,7.02716717 30.6908836,6.68608796 30.8747841,6.34222379 C31.0586847,5.99835962 31.3285513,5.728493 31.6724155,5.54459243 C32.0162797,5.36069185 32.3573589,5.26275733 33.2979449,5.26275733 Z" opacity=".297"></path><g fill="#B5B6BB" fill-rule="nonzero" opacity=".5"><path d="M16.6849132,5.03712675 L0.400404639,5.03712675 L0.400404639,1.39801595 C0.400404639,0.84474643 0.855389693,0.396676043 1.41719732,0.396676043 L15.6681205,0.396676043 C16.2299281,0.396676043 16.6849132,0.84474643 16.6849132,1.39801595 L16.6849132,5.03712675 Z"></path><path d="M16.6849132,4.64750032 C16.1468439,4.64750032 15.6087746,4.64750032 15.0707053,4.64750032 C13.7769652,4.64750032 12.4832251,4.64750032 11.189485,4.64750032 C9.61484107,4.64750032 8.04415354,4.64750032 6.46950962,4.64750032 C5.11642363,4.64750032 3.75938125,4.64750032 2.40629527,4.64750032 C1.959223,4.64750032 1.51215073,4.64750032 1.06112206,4.64750032 C0.851433301,4.64750032 0.637788145,4.63191527 0.428099382,4.64750032 C0.420186598,4.64750032 0.408317423,4.64750032 0.400404639,4.64750032 C0.530965568,4.77607704 0.665482888,4.90855003 0.796043816,5.03712675 C0.796043816,4.24228884 0.796043816,3.44355468 0.796043816,2.64871677 C0.796043816,2.26298661 0.796043816,1.87725645 0.796043816,1.48763003 C0.796043816,1.11358866 1.01364536,0.794094995 1.42115372,0.786302467 C2.58828929,0.759028617 3.75938125,0.786302467 4.92651682,0.786302467 C7.08670673,0.786302467 9.25085303,0.786302467 11.4110429,0.786302467 C12.7997364,0.786302467 14.18843,0.786302467 15.5771235,0.786302467 C15.8382453,0.786302467 16.0795852,0.860331487 16.2101462,1.10579613 C16.3407071,1.34346825 16.2853176,1.6980283 16.2853176,1.96297427 C16.2853176,2.917559 16.2853176,3.86824748 16.2853176,4.82283222 C16.2853176,4.89686124 16.2853176,4.96699399 16.2853176,5.04102301 C16.2853176,5.5436411 17.076596,5.5436411 17.076596,5.04102301 C17.076596,4.21501499 17.076596,3.38511071 17.076596,2.55910269 C17.076596,2.18895759 17.0805523,1.81881249 17.076596,1.44477112 C17.0726396,0.723962239 16.562265,0.10835249 15.8224198,0.0226346763 C15.4584317,-0.0202242303 15.0825745,0.0109458836 14.7185865,0.0109458836 C13.8996134,0.0109458836 13.0766839,0.0109458836 12.2577108,0.0109458836 C10.0302622,0.0109458836 7.80677003,0.0109458836 5.57932147,0.0109458836 C4.20645352,0.0109458836 2.83358558,0.00315335514 1.46467403,0.0109458836 C0.946386704,0.0109458836 0.451837732,0.252514266 0.186759484,0.712273446 C-0.0229292802,1.07852228 0.000809070412,1.47594124 0.000809070412,1.87725645 C0.000809070412,2.85521878 0.000809070412,3.8331811 0.000809070412,4.81114342 C0.000809070412,4.88906871 0.000809070412,4.96309773 0.000809070412,5.04102301 C0.000809070412,5.25142128 0.182803092,5.43064944 0.396448247,5.43064944 C0.934517528,5.43064944 1.47258681,5.43064944 2.01065609,5.43064944 C3.3043962,5.43064944 4.59813631,5.43064944 5.89187642,5.43064944 C7.46652034,5.43064944 9.03720787,5.43064944 10.6118518,5.43064944 C11.9649378,5.43064944 13.3219802,5.43064944 14.6750661,5.43064944 C15.3318272,5.43064944 15.996501,5.45402702 16.653262,5.43064944 C16.6611748,5.43064944 16.673044,5.43064944 16.6809568,5.43064944 C17.1952877,5.42675317 17.1952877,4.64750032 16.6849132,4.64750032 Z"></path><g transform="translate(1.096 6.199)"><path d="M0.398050779,0.406617393 L0.398050779,11.5318277 L14.3099255,11.5318277 L14.3099255,0.406617393 L0.398050779,0.406617393 Z M9.81991271,3.67011803 C9.66865342,3.82061927 9.46564752,3.91171213 9.23477807,3.91171213 L5.47319821,3.91171213 C5.01942032,3.91171213 4.6492331,3.54338014 4.6492331,3.09187641 C4.6492331,2.86612455 4.74078477,2.66017548 4.89204407,2.51363479 C5.04330337,2.36313355 5.24630926,2.27204069 5.47319821,2.27204069 L9.23477807,2.27204069 C9.68855595,2.27204069 10.0587432,2.64037268 10.0587432,3.09187641 C10.0587432,3.31762828 9.9671915,3.51961679 9.81991271,3.67011803 Z"></path><path d="M0,0.406617393 C0,1.6621146 0,2.92157237 0,4.17706959 C0,6.16527022 0,8.15743141 0,10.145632 C0,10.6050569 0,11.0684423 0,11.5278671 C0,11.7417373 0.183103358,11.923923 0.398050779,11.923923 C0.859789682,11.923923 1.32152859,11.923923 1.78326749,11.923923 C2.88984865,11.923923 4.00041033,11.923923 5.10699149,11.923923 C6.44842262,11.923923 7.78587323,11.923923 9.12730436,11.923923 C10.2856321,11.923923 11.4439599,11.923923 12.6022877,11.923923 C13.1635393,11.923923 13.7287714,11.9476864 14.2860424,11.923923 C14.2940035,11.923923 14.3019645,11.923923 14.3099255,11.923923 C14.5248729,11.923923 14.7079763,11.7417373 14.7079763,11.5278671 C14.7079763,10.2723699 14.7079763,9.01291216 14.7079763,7.75741494 C14.7079763,5.76921431 14.7079763,3.77705312 14.7079763,1.78885249 C14.7079763,1.32942765 14.7079763,0.86604224 14.7079763,0.406617393 C14.7079763,0.192747206 14.5248729,0.0105614907 14.3099255,0.0105614907 C13.8481866,0.0105614907 13.3864477,0.0105614907 12.9247088,0.0105614907 C11.8181276,0.0105614907 10.7075659,0.0105614907 9.60098478,0.0105614907 C8.25955366,0.0105614907 6.92210304,0.0105614907 5.58067192,0.0105614907 C4.42234415,0.0105614907 3.26401639,0.0105614907 2.10568862,0.0105614907 C1.54443702,0.0105614907 0.979204916,-0.0132018634 0.421933825,0.0105614907 C0.41397281,0.0105614907 0.406011794,0.0105614907 0.398050779,0.0105614907 C-0.115434726,0.0105614907 -0.115434726,0.802673296 0.398050779,0.802673296 C0.859789682,0.802673296 1.32152859,0.802673296 1.78326749,0.802673296 C2.88984865,0.802673296 4.00041033,0.802673296 5.10699149,0.802673296 C6.44842262,0.802673296 7.78587323,0.802673296 9.12730436,0.802673296 C10.2856321,0.802673296 11.4439599,0.802673296 12.6022877,0.802673296 C12.9804359,0.802673296 13.3625646,0.802673296 13.7407129,0.802673296 C13.9198357,0.802673296 14.1069196,0.818515532 14.2860424,0.802673296 C14.2940035,0.802673296 14.3019645,0.802673296 14.3099255,0.802673296 C14.1785687,0.671974848 14.0432315,0.537315841 13.9118747,0.406617393 C13.9118747,1.6621146 13.9118747,2.92157237 13.9118747,4.17706959 C13.9118747,6.16527022 13.9118747,8.15743141 13.9118747,10.145632 C13.9118747,10.6050569 13.9118747,11.0684423 13.9118747,11.5278671 C14.0432315,11.3971687 14.1785687,11.2625097 14.3099255,11.1318112 C13.8481866,11.1318112 13.3864477,11.1318112 12.9247088,11.1318112 C11.8181276,11.1318112 10.7075659,11.1318112 9.60098478,11.1318112 C8.25955366,11.1318112 6.92210304,11.1318112 5.58067192,11.1318112 C4.42234415,11.1318112 3.26401639,11.1318112 2.10568862,11.1318112 C1.72754038,11.1318112 1.34541163,11.1318112 0.967263392,11.1318112 C0.788140542,11.1318112 0.601056676,11.115969 0.421933825,11.1318112 C0.41397281,11.1318112 0.406011794,11.1318112 0.398050779,11.1318112 C0.529407536,11.2625097 0.6647448,11.3971687 0.796101557,11.5278671 C0.796101557,10.2723699 0.796101557,9.01291216 0.796101557,7.75741494 C0.796101557,5.76921431 0.796101557,3.77705312 0.796101557,1.78885249 C0.796101557,1.32942765 0.796101557,0.86604224 0.796101557,0.406617393 C0.796101557,-0.104294721 0,-0.104294721 0,0.406617393 Z"></path><path d="M9.53729666,3.38891834 C9.35817381,3.55526182 9.10342131,3.51169567 8.88051287,3.51169567 C8.50236463,3.51169567 8.1281969,3.51169567 7.75004866,3.51169567 C7.01763523,3.51169567 6.2852218,3.51565623 5.54882786,3.51169567 C5.24232876,3.51169567 4.94379067,3.28198325 5.06718641,2.94137517 C5.17466012,2.6482938 5.46125668,2.66413604 5.71600918,2.66413604 C6.52007176,2.66413604 7.32413433,2.66413604 8.1281969,2.66413604 C8.47052057,2.66413604 8.81682475,2.66413604 9.15914842,2.66413604 C9.27458314,2.66413604 9.38205685,2.6680966 9.47758904,2.73938666 C9.69253646,2.8898879 9.72040002,3.19485095 9.53729666,3.38891834 C9.18701197,3.76121089 9.74826357,4.32361027 10.0985483,3.94735716 C10.7115465,3.29386492 10.472716,2.17698728 9.57710174,1.91955094 C9.29846619,1.84033976 8.98002557,1.87202423 8.69342901,1.87202423 C7.76597069,1.87202423 6.83851238,1.87202423 5.90707356,1.87202423 C5.54882786,1.87202423 5.20252368,1.84826088 4.87214153,2.03044659 C4.07205947,2.4740292 4.06409845,3.64239412 4.82835595,4.12162176 C5.15077708,4.32361027 5.50902278,4.30380747 5.86726848,4.30380747 C6.32502687,4.30380747 6.77880476,4.30380747 7.23656316,4.30380747 C7.75800968,4.30380747 8.2794562,4.30380747 8.80488323,4.30380747 C9.28652467,4.30380747 9.72040002,4.30380747 10.1025288,3.94735716 C10.4766965,3.60278853 9.91146439,3.04038915 9.53729666,3.38891834 Z"></path></g></g></g><g fill="#041E42" fill-rule="nonzero" transform="translate(193.405 86.685)"><path d="M9.84250046 14.9742808C4.41350219 14.9742808 0 19.4038455 0 24.8526021 0 30.3013587 4.41350219 34.7309234 9.84250046 34.7309234 15.2714987 34.7309234 19.6850009 30.3013587 19.6850009 24.8526021 19.6850009 19.4038455 15.3105563 14.9742808 9.84250046 14.9742808zM9.84250046 32.2221434C5.81957369 32.2221434 2.5387402 28.9293696 2.5387402 24.8918018 2.5387402 20.8542339 5.81957369 17.5614601 9.84250046 17.5614601 13.8654272 17.5614601 17.1853183 20.8150342 17.1853183 24.8526021 17.1853183 28.8901699 13.9044848 32.2221434 9.84250046 32.2221434zM45.9707264 15.6798751L45.5020359 15.6798751 45.5020359 16.1502714 45.5020359 27.9493774C45.5020359 30.3013587 43.5882163 32.2221434 41.2447638 32.2221434 38.9013114 32.2221434 36.9874918 30.3013587 36.9874918 27.9493774L36.9874918 16.1502714 36.9874918 15.6798751 36.5188013 15.6798751 34.9564997 15.6798751 34.4878092 15.6798751 34.4878092 16.1502714 34.4878092 27.9493774C34.4878092 30.3013587 32.5739896 32.2221434 30.2305371 32.2221434 27.8870846 32.2221434 25.9732651 30.3013587 25.9732651 27.9493774L25.9732651 16.1502714 25.9732651 15.6798751 25.5045746 15.6798751 23.942273 15.6798751 23.4345249 15.6798751 23.4345249 16.1502714 23.4345249 27.9493774C23.4345249 31.7125475 26.4810132 34.7701231 30.2305371 34.7701231 32.4958745 34.7701231 34.5268667 33.6333322 35.7376505 31.9085459 36.9874918 33.6333322 38.9794264 34.7701231 41.2447638 34.7701231 44.9942878 34.7701231 48.0407761 31.7125475 48.0407761 27.9493774L48.0407761 16.1502714 48.0407761 15.6798751 47.5720856 15.6798751 45.9707264 15.6798751zM61.8280882 14.8958814C56.39909 14.8958814 51.9855878 19.3254461 51.9855878 24.7742027L51.9855878 33.4765334 51.9855878 33.9469297 52.4542783 33.9469297 54.0165799 33.9469297 54.4852704 33.9469297 54.4852704 33.4765334 54.4852704 24.7742027C54.4852704 20.7366349 57.7661039 17.4046614 61.8280882 17.4046614 65.851015 17.4046614 69.170906 20.6974352 69.170906 24.7742027L69.170906 33.4765334 69.170906 33.9469297 69.6395965 33.9469297 71.2018982 33.9469297 71.6705887 33.9469297 71.6705887 33.4765334 71.6705887 24.7742027C71.6705887 19.3254461 67.2570865 14.8958814 61.8280882 14.8958814zM114.360482 14.9742808C108.931483 14.9742808 104.478924 19.4038455 104.478924 24.8918018 104.478924 30.3797581 108.892426 34.8093228 114.360482 34.8093228 119.828537 34.8093228 124.24204 30.3797581 124.24204 24.8918018 124.202982 19.4038455 119.78948 14.9742808 114.360482 14.9742808zM114.360482 32.2221434C110.337555 32.2221434 107.017664 28.9293696 107.017664 24.8526021 107.017664 20.7758346 110.298497 17.4830608 114.360482 17.4830608 118.422466 17.4830608 121.703299 20.7758346 121.703299 24.8526021 121.664242 28.8901699 118.383408 32.2221434 114.360482 32.2221434zM145.020652 15.6798751L144.512904 15.6798751 144.512904 16.1502714 144.512904 24.8526021C144.512904 28.8901699 141.23207 32.1829437 137.170086 32.1829437 133.147159 32.1829437 129.827268 28.8901699 129.827268 24.8526021L129.827268 16.1502714 129.827268 15.6798751 129.358578 15.6798751 127.796276 15.6798751 127.327585 15.6798751 127.327585 16.1502714 127.327585 24.8526021C127.327585 30.3013587 131.741088 34.7309234 137.170086 34.7309234 142.599084 34.7309234 147.051644 30.3013587 147.051644 24.8526021L147.051644 16.1502714 147.051644 15.6798751 146.582953 15.6798751 145.020652 15.6798751zM170.212766.470396254L170.212766 0 169.744075 0 168.181774 0 167.713083 0 167.713083.470396254 167.713083 14.9350811 160.29215 14.9350811C154.863152 14.9350811 150.44965 19.3646458 150.44965 24.8134024 150.44965 30.262159 154.863152 34.6917237 160.29215 34.6917237L163.338639 34.6917237C166.385127 34.6917237 170.134651 31.6733478 170.212766 27.9101777L170.212766.470396254zM167.674026 27.9101777C167.634968 30.1053603 165.213401 32.1829437 163.338639 32.1829437L160.29215 32.1829437C156.269224 32.1829437 152.949333 28.8901699 152.949333 24.8526021 152.949333 20.8150342 156.230166 17.4830608 160.29215 17.4830608L167.713083 17.4830608C167.674026 19.8742417 167.713083 25.6365958 167.674026 27.9101777zM97.9563141 27.9493774L97.9563141 8.42793288C97.0579907 7.99673632 96.2377823 7.48714038 95.4175739 6.89914506L95.4175739 27.9101777C95.4175739 31.6733478 98.4640622 34.7309234 102.213586 34.7309234L102.682277 34.7309234 102.682277 34.2605272 102.682277 32.6925397 102.682277 32.2221434 102.213586 32.2221434C99.8310761 32.1829437 97.9563141 30.3013587 97.9563141 27.9493774zM77.8026227 19.6782433C77.8026227 15.8758736 79.5211545 12.4655007 82.1770674 10.1919188 81.3178015 9.87832133 80.5366506 9.40792508 79.8726724 8.85912945 77.0605294 11.6031076 75.3029401 15.444677 75.3029401 19.6782433 75.3029401 27.9885771 82.0208372 34.7309234 90.301036 34.7309234L90.7697265 34.7309234 90.7697265 34.2605272 90.7697265 32.6925397 90.7697265 32.2221434 90.301036 32.2221434C83.3878512 32.2221434 77.8026227 26.5773884 77.8026227 19.6782433z" transform="translate(0 45.891)"></path><path d="M78.486644,17.1228467 C77.9001812,16.0649134 77.5483035,14.8502492 77.5483035,13.5964023 C77.5483035,9.63894805 80.7543002,6.42596537 84.7031498,6.42596537 C86.1497581,6.42596537 87.5181713,6.85697524 88.6519994,7.64062955 C87.791854,9.56058262 87.3226837,11.6372666 87.3226837,13.8706813 C87.3226837,14.2625085 87.3617812,14.6935184 87.3617812,15.0853455 C87.0880986,15.0853455 86.8144159,15.0461628 86.5016358,15.0461628 C83.6475168,15.0069801 80.8715928,15.7514517 78.486644,17.1228467 Z M76.9227432,44.9817576 C72.778406,41.9646885 70.0415795,37.066849 70.0415795,31.5420861 C70.0415795,30.1315083 70.2370671,28.7601133 70.5498473,27.4670837 C70.3934572,27.4670837 70.2761646,27.4670837 70.1197745,27.4670837 C62.5348555,27.4670837 56.3574472,33.6579528 56.3574472,41.2593996 C56.3574472,48.8608464 62.5348555,55.0517155 70.1197745,55.0517155 C73.0129911,55.0517155 75.71072,54.150513 77.9392787,52.6223871 C77.0400357,51.2118094 76.4926704,49.4877699 76.4926704,47.685365 C76.4926704,46.7449798 76.6490605,45.8437773 76.9227432,44.9817576 Z M77.509206,43.4928144 C78.7603266,41.1026687 80.9888853,39.3394465 83.6866143,38.7908885 C83.9211994,38.7517058 84.194882,38.7125231 84.4685647,38.6733404 C84.7422473,38.6341576 84.9768325,38.6341576 85.2505151,38.5949749 C85.3678077,38.5949749 85.4851002,38.5949749 85.6023928,38.5949749 C86.0324655,38.5949749 86.4234407,38.6341576 86.8535135,38.6733404 C86.7362209,37.7329552 86.6580259,36.79257 86.6580259,35.8130021 C86.6580259,31.1894417 88.1828292,26.8793429 90.724168,23.3920813 C90.1377052,22.6867924 89.6294374,21.9031381 89.1993647,21.080301 C89.0820721,20.8452047 88.9647796,20.6101084 88.847487,20.3750121 C88.7301945,20.1399159 88.6129019,19.9048196 88.5347069,19.6697233 C88.1437316,18.6901554 87.8309515,17.6714048 87.6354639,16.6134714 C87.2835862,16.5742887 86.9317085,16.5742887 86.5798308,16.5742887 C83.9993944,16.5742887 81.5362506,17.2403949 79.4249845,18.4158764 C79.1903994,18.5334245 78.9558143,18.6901554 78.7212291,18.8077035 C78.486644,18.9644344 78.2911564,19.0819825 78.0565713,19.2387134 C75.632525,20.9235702 73.7167465,23.3137158 72.6220159,26.0956886 C72.5438208,26.3307849 72.4265283,26.6050639 72.3483332,26.8401602 C72.2701382,27.0752565 72.1919432,27.3495355 72.1137481,27.5846318 C71.7618704,28.8384787 71.5663828,30.1706911 71.5663828,31.5420861 C71.6054803,36.4007429 73.9513316,40.7500243 77.509206,43.4928144 Z M125.794644,25.8214096 C127.788618,24.7634763 130.017176,24.1365528 132.402125,23.979822 C131.776565,16.9269332 125.872839,11.3629875 118.678895,11.3629875 C118.405213,11.3629875 118.13153,11.3629875 117.857847,11.4021703 C117.97514,12.1858246 118.053335,13.0086616 118.053335,13.8314986 C118.053335,15.1245282 117.896945,16.3783751 117.584165,17.5538566 C121.024747,19.4738097 123.917963,22.3341479 125.794644,25.8214096 Z M89.0820721,15.986548 C89.1211697,16.260827 89.1993647,16.535106 89.2384622,16.809385 C89.3948523,17.4363085 89.5512424,18.0632319 89.7858275,18.6509727 C89.9031201,18.9252517 89.9813151,19.160348 90.0986077,19.434627 C90.2159003,19.6697233 90.3331928,19.9440023 90.4504854,20.1790986 C90.8023631,20.8843874 91.2324358,21.5504936 91.701606,22.1774171 C92.6790441,21.080301 93.7346771,20.0615504 94.9076028,19.160348 C95.1421879,19.0036171 95.3376755,18.8468862 95.5722606,18.6901554 C95.8068457,18.5334245 96.0414309,18.3766936 96.276016,18.2199628 C99.4429152,16.1824616 103.196277,15.0069801 107.184224,14.9677974 C107.262419,14.9677974 107.379712,14.9677974 107.457907,14.9677974 C107.73159,14.9677974 107.966175,14.9677974 108.239857,15.0069801 C108.591735,15.0069801 108.943613,15.0461628 109.29549,15.0853455 C111.719537,15.2812591 113.987193,15.9081826 116.098459,16.8877505 C116.293947,15.9081826 116.411239,14.9286147 116.411239,13.8706813 C116.411239,13.087027 116.333044,12.3425554 116.215752,11.6372666 C116.176654,11.3629875 116.137557,11.1278912 116.059362,10.8536122 C116.020264,10.5793332 115.942069,10.3442369 115.863874,10.1091406 C114.299973,4.23173329 108.98271,0 102.688009,0 C97.4880391,0 92.9527267,2.89952096 90.6068755,7.13125425 C90.4895829,7.36635054 90.3331928,7.60144684 90.2159003,7.83654313 C90.0986077,8.11082214 89.9813151,8.34591844 89.8640226,8.62019745 C89.2384622,10.2266888 88.847487,11.9507283 88.847487,13.7923159 C88.847487,14.2625085 88.8865845,14.6935184 88.9256821,15.163711 C89.0038771,15.43799 89.0429746,15.712269 89.0820721,15.986548 Z M151.168935,39.3394465 C150.738862,39.3394465 150.347887,39.3786292 149.956912,39.4569947 C149.99601,39.8096391 149.99601,40.1622836 149.99601,40.4757453 C149.99601,44.8642094 148.275719,48.8608464 145.460697,51.8387328 C146.82911,53.4452242 148.901279,54.4639748 151.168935,54.4639748 C155.313272,54.4639748 158.714757,51.0550785 158.714757,46.9017106 C158.714757,42.7483428 155.313272,39.3394465 151.168935,39.3394465 Z M148.393011,39.8488218 C148.393011,39.5745428 148.353914,39.3002638 148.353914,39.0259848 C148.314816,38.7517058 148.314816,38.4774268 148.275719,38.2423305 C147.220086,31.1894417 141.277262,25.7430442 134.044221,25.5079479 C133.848733,25.5079479 133.692343,25.5079479 133.496856,25.5079479 C133.418661,25.5079479 133.340466,25.5079479 133.262271,25.5079479 C132.988588,25.5079479 132.754003,25.5079479 132.48032,25.5471306 C130.329957,25.7038615 128.335983,26.2916022 126.537497,27.2319874 C127.632228,29.622133 128.257788,32.247375 128.375081,34.9901651 C128.375081,35.2644441 128.414178,35.5387231 128.414178,35.8130021 C128.414178,35.8913675 128.414178,35.969733 128.414178,36.0480984 C128.414178,36.4007429 128.414178,36.7533873 128.375081,37.1060317 C128.0623,42.3173329 125.833742,46.9800761 122.39316,50.4673378 C125.129986,53.5235896 129.117933,55.4435427 133.535953,55.4435427 C137.328413,55.4435427 140.808092,53.9937822 143.466724,51.6428192 C143.662211,51.4469057 143.857699,51.2901748 144.053186,51.0942612 C144.248674,50.8983476 144.444162,50.7024341 144.600552,50.5065205 C147.024598,47.8420958 148.471206,44.3156514 148.471206,40.4365626 C148.432109,40.2798317 148.393011,40.0839181 148.393011,39.8488218 Z M89.9031201,46.9800761 C89.74673,46.7449798 89.6294374,46.5098835 89.4730474,46.2747872 C88.4174143,44.4331996 87.6354639,42.4348811 87.1662936,40.3190144 C86.6580259,40.2014663 86.1497581,40.1622836 85.6414903,40.1622836 C85.6023928,40.1622836 85.5241978,40.1622836 85.4851002,40.1622836 C85.2114176,40.1622836 84.9768325,40.2014663 84.7031498,40.2014663 C84.4294672,40.240649 84.194882,40.2798317 83.9211994,40.3581971 C81.6926407,40.8675724 79.8550572,42.3956983 78.8776192,44.3940168 C78.7603266,44.6291131 78.6430341,44.8642094 78.564839,45.1384884 C78.486644,45.3735847 78.408449,45.6478637 78.3302539,45.88296 C78.1738638,46.4707008 78.0956688,47.0976242 78.0956688,47.7245477 C78.0956688,49.1743082 78.5257415,50.5457032 79.2294969,51.682002 C79.385887,51.9170983 79.5031795,52.1130118 79.6986671,52.3481081 C79.8550572,52.5440217 80.0114473,52.7399353 80.2069349,52.9358489 C81.5753481,54.3856093 83.5302242,55.2868118 85.6805878,55.2868118 C88.8865845,55.2868118 91.623411,53.2884933 92.7181416,50.4673378 C91.8970936,49.605318 91.1151432,48.7041156 90.4504854,47.685365 C90.1768027,47.4502687 90.0204126,47.2151724 89.9031201,46.9800761 Z M126.732985,37.3019453 C126.772082,36.9884836 126.772082,36.6358391 126.772082,36.2831947 C126.772082,36.1264638 126.772082,35.969733 126.772082,35.7738194 C126.772082,32.9918466 126.185619,30.3666046 125.129986,27.976459 C125.012694,27.7413627 124.895401,27.5062664 124.778109,27.2711701 C124.660816,27.0360738 124.543524,26.8009775 124.426231,26.5658812 C122.70594,23.431264 120.164601,20.806022 117.075897,19.0427998 C116.841312,18.9252517 116.606727,18.7685208 116.372142,18.6509727 C116.137557,18.5334245 115.902971,18.4158764 115.668386,18.2983282 C113.283438,17.1620295 110.663904,16.535106 107.88798,16.4567406 C107.73159,16.4567406 107.5752,16.4567406 107.457907,16.4567406 C107.262419,16.4567406 107.106029,16.4567406 106.910542,16.4567406 C106.558664,16.4567406 106.245884,16.4959233 105.933104,16.4959233 C102.883497,16.7310196 100.068476,17.6714048 97.5662342,19.1995307 C97.331649,19.3562615 97.0970639,19.4738097 96.9015763,19.6305405 C96.6669912,19.7872714 96.4715036,19.9440023 96.2369185,20.1007331 C94.9467003,21.0411183 93.7737746,22.0990516 92.7572391,23.3137158 C92.600849,23.5096294 92.4053614,23.705543 92.2489713,23.9406393 C92.0925813,24.1365528 91.9361912,24.3716491 91.7798011,24.5675627 C89.5121449,27.7413627 88.1828292,31.5812688 88.1828292,35.7738194 C88.1828292,36.8709354 88.2610242,37.9680515 88.4565118,38.9868021 C88.4956093,39.3002638 88.5738044,39.5745428 88.6129019,39.8880045 C88.6910969,40.2014663 88.769292,40.514928 88.847487,40.8675724 C89.3166573,42.6307946 90.0595102,44.2764687 90.9978507,45.8045946 C91.1542408,46.0396909 91.2715333,46.2747872 91.4279234,46.4707008 C91.5843135,46.7057971 91.7407036,46.9017106 91.8970936,47.1368069 C92.2489713,47.6461822 92.6399465,48.1163748 93.0309218,48.5473847 C93.2655069,48.782481 93.4609945,49.05676 93.6955796,49.2918563 C93.8910672,49.5269526 94.1256523,49.7228662 94.3602375,49.9187798 C97.8008193,53.0925797 102.414327,55.0517155 107.457907,55.0517155 C112.306,55.0517155 116.763117,53.2493106 120.164601,50.2714242 C120.360089,50.1146933 120.555576,49.9187798 120.751064,49.7620489 C120.946552,49.5661353 121.142039,49.4094045 121.337527,49.2134909 C124.152548,46.2747872 126.068327,42.4740638 126.615692,38.2423305 C126.65479,37.9680515 126.693887,37.6545898 126.732985,37.3019453 Z"></path></g><g fill="#FFF" transform="translate(358.874 242.748)"><circle cx="40.53" cy="9.268" r="3.181" fill-rule="nonzero"></circle><path d="M43.385007,12.0854666 C44.1269893,11.3355393 44.5425562,10.3227825 44.5411751,9.26782905 C44.5425176,8.21288316 44.1269565,7.20014054 43.385007,6.45019147 C43.8410775,6.21048926 44.3487173,6.0856078 44.8639423,6.08636389 C46.6210334,6.08636389 48.0454041,7.51073796 48.0454041,9.26782905 C48.0454041,11.0249201 46.6210334,12.4492908 44.8639423,12.4492908 C44.3300255,12.4492908 43.8268569,12.3179444 43.385007,12.0854666 Z"></path><rect width="29.602" height="4.98" fill-rule="nonzero" rx="2.49"></rect><rect width="20.472" height="4.98" y="7.193" fill-rule="nonzero" rx="2.49"></rect></g><g transform="translate(140.2 230.581)"><use fill="#000" filter="url(#owncloud-section-img-on-premises-c)" xlink:href="#owncloud-section-img-on-premises-d"></use><rect width="106.827" height="113" x="242.499" y="-.5" fill="#FFF" stroke="#B5B6BB" rx="17"></rect><g fill="#041E42" fill-rule="nonzero" transform="translate(255.86 17.518)"><path d="M63.3196797,21.2493805 L3.48529271,21.2493805 C1.53060105,21.2493805 0,19.6343848 0,17.7640878 L0,3.48529271 C0,1.53060105 1.61499572,0 3.48529271,0 L63.3219563,0 C65.276648,0 66.807249,1.61499572 66.807249,3.48529271 L66.807249,17.7640878 C66.8063598,19.7187794 65.2767391,21.2493805 63.3212733,21.2493805 L63.3196797,21.2493805 Z M3.48529271,1.70064253 C2.55062231,1.70064253 1.7004604,2.5508272 1.7004604,3.48547484 L1.7004604,17.7642699 C1.7004604,18.7843139 2.55064507,19.5491022 3.48529271,19.5491022 L63.3219563,19.5491022 C64.3420004,19.5491022 65.1067886,18.6989175 65.1067886,17.7642699 L65.1067886,3.48547484 C65.1067886,2.46543082 64.256604,1.70064253 63.3219563,1.70064253 L3.48529271,1.70064253 Z"></path><path d="M45.386666 15.2140346C42.8370682 15.2140346 40.7969801 13.1739693 40.7969801 10.6243487 40.7969801 8.07472816 42.8370454 6.03466287 45.386666 6.03466287 47.9362638 6.03466287 49.9763519 8.07472816 49.9763519 10.6243487 49.9763519 13.1739693 47.9371745 15.2140346 45.386666 15.2140346zM45.386666 7.73485008C43.7716703 7.73485008 42.497395 9.01012708 42.497395 10.6241211 42.497395 12.2391168 43.772672 13.5133921 45.386666 13.5133921 47.0016617 13.5133921 48.2759375 12.2381151 48.2759375 10.6241211 48.2768265 9.00912537 47.0015479 7.73485008 45.386666 7.73485008zM56.945116 15.2140346C54.3955182 15.2140346 52.3554301 13.1739693 52.3554301 10.6243487 52.3554301 8.07472816 54.3954954 6.03466287 56.945116 6.03466287 59.4947138 6.03466287 61.5348019 8.07472816 61.5348019 10.6243487 61.5348019 13.1739693 59.4956245 15.2140346 56.945116 15.2140346zM56.945116 7.73485008C55.3301203 7.73485008 54.055845 9.01012708 54.055845 10.6241211 54.055845 12.2391168 55.331122 13.5133921 56.945116 13.5133921 58.5601117 13.5133921 59.8343875 12.2381151 59.8343875 10.6241211 59.8352762 9.00912537 58.5599979 7.73485008 56.945116 7.73485008zM36.5487887 8.75409865L6.12163013 8.75409865C5.61205206 8.75409865 5.27144546 8.41437857 5.27144546 7.90391262 5.27144546 7.39433455 5.61116418 7.05372795 6.12163013 7.05372795L36.5487887 7.0546172C37.0583668 7.0546172 37.3989734 7.39433591 37.3989734 7.90480187 37.3989734 8.41437994 37.0583668 8.75409865 36.5487887 8.75409865L36.5487887 8.75409865zM36.5487887 14.1941058L6.12163013 14.1941058C5.61205206 14.1941058 5.27144546 13.8543857 5.27144546 13.3439198 5.27144546 12.8343417 5.61116418 12.4937351 6.12163013 12.4937351L36.5487887 12.4946243C37.0583668 12.4946243 37.3989734 12.8343431 37.3989734 13.344809 37.3989734 13.8543871 37.0583668 14.1941058 36.5487887 14.1941058L36.5487887 14.1941058z"></path><g transform="translate(15.298 27.857)"><path d="M63.3196797,21.2493805 L3.48529271,21.2493805 C1.53060105,21.2493805 0,19.6343848 0,17.7640878 L0,3.48529271 C0,1.53060105 1.61499572,0 3.48529271,0 L63.3219563,0 C65.276648,0 66.807249,1.61499572 66.807249,3.48529271 L66.807249,17.7640878 C66.8063598,19.7187794 65.2767391,21.2493805 63.3212733,21.2493805 L63.3196797,21.2493805 Z M3.48529271,1.70064253 C2.55062231,1.70064253 1.7004604,2.5508272 1.7004604,3.48547484 L1.7004604,17.7642699 C1.7004604,18.7843139 2.55064507,19.5491022 3.48529271,19.5491022 L63.3219563,19.5491022 C64.3420004,19.5491022 65.1067886,18.6989175 65.1067886,17.7642699 L65.1067886,3.48547484 C65.1067886,2.46543082 64.256604,1.70064253 63.3219563,1.70064253 L3.48529271,1.70064253 Z"></path><path d="M45.386666 15.2140346C42.8370682 15.2140346 40.7969801 13.1739693 40.7969801 10.6243487 40.7969801 8.07472816 42.8370454 6.03466287 45.386666 6.03466287 47.9362638 6.03466287 49.9763519 8.07472816 49.9763519 10.6243487 49.9763519 13.1739693 47.9371745 15.2140346 45.386666 15.2140346zM45.386666 7.73485008C43.7716703 7.73485008 42.497395 9.01012708 42.497395 10.6241211 42.497395 12.2391168 43.772672 13.5133921 45.386666 13.5133921 47.0016617 13.5133921 48.2759375 12.2381151 48.2759375 10.6241211 48.2768265 9.00912537 47.0015479 7.73485008 45.386666 7.73485008zM56.945116 15.2140346C54.3955182 15.2140346 52.3554301 13.1739693 52.3554301 10.6243487 52.3554301 8.07472816 54.3954954 6.03466287 56.945116 6.03466287 59.4947138 6.03466287 61.5348019 8.07472816 61.5348019 10.6243487 61.5348019 13.1739693 59.4956245 15.2140346 56.945116 15.2140346zM56.945116 7.73485008C55.3301203 7.73485008 54.055845 9.01012708 54.055845 10.6241211 54.055845 12.2391168 55.331122 13.5133921 56.945116 13.5133921 58.5601117 13.5133921 59.8343875 12.2381151 59.8343875 10.6241211 59.8352762 9.00912537 58.5599979 7.73485008 56.945116 7.73485008zM36.5487887 8.75409865L6.12163013 8.75409865C5.61205206 8.75409865 5.27144546 8.41437857 5.27144546 7.90391262 5.27144546 7.39433455 5.61116418 7.05372795 6.12163013 7.05372795L36.5487887 7.0546172C37.0583668 7.0546172 37.3989734 7.39433591 37.3989734 7.90480187 37.3989734 8.41437994 37.0583668 8.75409865 36.5487887 8.75409865L36.5487887 8.75409865zM6.12163013 14.1941058C5.61205206 14.1941058 5.27144546 13.8543857 5.27144546 13.3439198 5.27144546 12.8343417 5.61116418 12.4937351 6.12163013 12.4937351L36.5487887 12.4946243C37.0583668 12.4946243 37.3989734 12.8343431 37.3989734 13.344809 37.3989734 13.8543871 37.0583668 14.1941058 36.5487887 14.1941058L6.12163013 14.1941058z"></path></g><g transform="translate(0 55.714)"><path d="M63.3196797,21.2493805 L3.48529271,21.2493805 C1.53060105,21.2493805 0,19.6343848 0,17.7640878 L0,3.48529271 C0,1.53060105 1.61499572,0 3.48529271,0 L63.3219563,0 C65.276648,0 66.807249,1.61499572 66.807249,3.48529271 L66.807249,17.7640878 C66.8063598,19.7187794 65.2767391,21.2493805 63.3212733,21.2493805 L63.3196797,21.2493805 Z M3.48529271,1.70064253 C2.55062231,1.70064253 1.7004604,2.5508272 1.7004604,3.48547484 L1.7004604,17.7642699 C1.7004604,18.7843139 2.55064507,19.5491022 3.48529271,19.5491022 L63.3219563,19.5491022 C64.3420004,19.5491022 65.1067886,18.6989175 65.1067886,17.7642699 L65.1067886,3.48547484 C65.1067886,2.46543082 64.256604,1.70064253 63.3219563,1.70064253 L3.48529271,1.70064253 Z"></path><path d="M45.386666 15.2140346C42.8370682 15.2140346 40.7969801 13.1739693 40.7969801 10.6243487 40.7969801 8.07472816 42.8370454 6.03466287 45.386666 6.03466287 47.9362638 6.03466287 49.9763519 8.07472816 49.9763519 10.6243487 49.9763519 13.1739693 47.9371745 15.2140346 45.386666 15.2140346zM45.386666 7.73485008C43.7716703 7.73485008 42.497395 9.01012708 42.497395 10.6241211 42.497395 12.2391168 43.772672 13.5133921 45.386666 13.5133921 47.0016617 13.5133921 48.2759375 12.2381151 48.2759375 10.6241211 48.2768265 9.00912537 47.0015479 7.73485008 45.386666 7.73485008zM56.945116 15.2140346C54.3955182 15.2140346 52.3554301 13.1739693 52.3554301 10.6243487 52.3554301 8.07472816 54.3954954 6.03466287 56.945116 6.03466287 59.4947138 6.03466287 61.5348019 8.07472816 61.5348019 10.6243487 61.5348019 13.1739693 59.4956245 15.2140346 56.945116 15.2140346zM56.945116 7.73485008C55.3301203 7.73485008 54.055845 9.01012708 54.055845 10.6241211 54.055845 12.2391168 55.331122 13.5133921 56.945116 13.5133921 58.5601117 13.5133921 59.8343875 12.2381151 59.8343875 10.6241211 59.8352762 9.00912537 58.5599979 7.73485008 56.945116 7.73485008zM36.5487887 8.75409865L6.12163013 8.75409865C5.61205206 8.75409865 5.27144546 8.41437857 5.27144546 7.90391262 5.27144546 7.39433455 5.61116418 7.05372795 6.12163013 7.05372795L36.5487887 7.0546172C37.0583668 7.0546172 37.3989734 7.39433591 37.3989734 7.90480187 37.3989734 8.41437994 37.0583668 8.75409865 36.5487887 8.75409865L36.5487887 8.75409865zM36.5487887 14.1941058L6.12163013 14.1941058C5.61205206 14.1941058 5.27144546 13.8543857 5.27144546 13.3439198 5.27144546 12.8343417 5.61116418 12.4937351 6.12163013 12.4937351L36.5487887 12.4946243C37.0583668 12.4946243 37.3989734 12.8343431 37.3989734 13.344809 37.3989734 13.8543871 37.0583668 14.1941058 36.5487887 14.1941058L36.5487887 14.1941058z"></path></g></g><g transform="translate(0 83.24)"><line x1="174.94" x2="241.792" y1="13.267" y2="13.267" stroke="#B5B6BB" stroke-linecap="square"></line><g fill="#041E42" fill-rule="nonzero"><path d="M8.4 21.12C7.16 21.12 6.025 20.88 4.995 20.4 3.965 19.92 3.08 19.235 2.34 18.345 1.6 17.455 1.025 16.375.615 15.105.205 13.835 0 12.41 0 10.83 0 9.25.205 7.835.615 6.585 1.025 5.335 1.6 4.275 2.34 3.405 3.08 2.535 3.965 1.87 4.995 1.41 6.025.95 7.16.72 8.4.72 9.64.72 10.775.955 11.805 1.425 12.835 1.895 13.725 2.565 14.475 3.435 15.225 4.305 15.805 5.365 16.215 6.615 16.625 7.865 16.83 9.27 16.83 10.83 16.83 12.41 16.625 13.835 16.215 15.105 15.805 16.375 15.225 17.455 14.475 18.345 13.725 19.235 12.835 19.92 11.805 20.4 10.775 20.88 9.64 21.12 8.4 21.12zM8.4 18.93C9.28 18.93 10.075 18.74 10.785 18.36 11.495 17.98 12.105 17.435 12.615 16.725 13.125 16.015 13.52 15.165 13.8 14.175 14.08 13.185 14.22 12.07 14.22 10.83 14.22 9.61 14.08 8.51 13.8 7.53 13.52 6.55 13.125 5.72 12.615 5.04 12.105 4.36 11.495 3.835 10.785 3.465 10.075 3.095 9.28 2.91 8.4 2.91 7.52 2.91 6.725 3.095 6.015 3.465 5.305 3.835 4.695 4.36 4.185 5.04 3.675 5.72 3.28 6.55 3 7.53 2.72 8.51 2.58 9.61 2.58 10.83 2.58 12.07 2.72 13.185 3 14.175 3.28 15.165 3.675 16.015 4.185 16.725 4.695 17.435 5.305 17.98 6.015 18.36 6.725 18.74 7.52 18.93 8.4 18.93zM20.82 20.76L20.82 6.18 22.86 6.18 23.07 8.28 23.16 8.28C23.86 7.58 24.595 6.995 25.365 6.525 26.135 6.055 27.03 5.82 28.05 5.82 29.59 5.82 30.715 6.3 31.425 7.26 32.135 8.22 32.49 9.64 32.49 11.52L32.49 20.76 30.03 20.76 30.03 11.85C30.03 10.47 29.81 9.475 29.37 8.865 28.93 8.255 28.23 7.95 27.27 7.95 26.51 7.95 25.84 8.14 25.26 8.52 24.68 8.9 24.02 9.46 23.28 10.2L23.28 20.76 20.82 20.76z"></path><polygon points="36 14.19 36 12.3 42.9 12.3 42.9 14.19"></polygon><path d="M46.8 20.76L46.8 1.08 52.41 1.08C53.51 1.08 54.515 1.18 55.425 1.38 56.335 1.58 57.11 1.905 57.75 2.355 58.39 2.805 58.89 3.4 59.25 4.14 59.61 4.88 59.79 5.79 59.79 6.87 59.79 7.91 59.615 8.81 59.265 9.57 58.915 10.33 58.42 10.96 57.78 11.46 57.14 11.96 56.375 12.335 55.485 12.585 54.595 12.835 53.61 12.96 52.53 12.96L49.29 12.96 49.29 20.76 46.8 20.76zM49.29 10.92L52.23 10.92C53.95 10.92 55.225 10.595 56.055 9.945 56.885 9.295 57.3 8.27 57.3 6.87 57.3 5.45 56.865 4.465 55.995 3.915 55.125 3.365 53.83 3.09 52.11 3.09L49.29 3.09 49.29 10.92zM63.54 20.76L63.54 6.18 65.58 6.18 65.79 8.82 65.88 8.82C66.38 7.9 66.985 7.17 67.695 6.63 68.405 6.09 69.18 5.82 70.02 5.82 70.6 5.82 71.12 5.92 71.58 6.12L71.1 8.28C70.86 8.2 70.64 8.14 70.44 8.1 70.24 8.06 69.99 8.04 69.69 8.04 69.07 8.04 68.425 8.29 67.755 8.79 67.085 9.29 66.5 10.16 66 11.4L66 20.76 63.54 20.76zM79.86 21.12C78.88 21.12 77.965 20.945 77.115 20.595 76.265 20.245 75.525 19.745 74.895 19.095 74.265 18.445 73.77 17.65 73.41 16.71 73.05 15.77 72.87 14.7 72.87 13.5 72.87 12.3 73.055 11.225 73.425 10.275 73.795 9.325 74.285 8.52 74.895 7.86 75.505 7.2 76.2 6.695 76.98 6.345 77.76 5.995 78.57 5.82 79.41 5.82 80.33 5.82 81.155 5.98 81.885 6.3 82.615 6.62 83.225 7.08 83.715 7.68 84.205 8.28 84.58 9 84.84 9.84 85.1 10.68 85.23 11.62 85.23 12.66 85.23 12.92 85.225 13.175 85.215 13.425 85.205 13.675 85.18 13.89 85.14 14.07L75.3 14.07C75.4 15.63 75.885 16.865 76.755 17.775 77.625 18.685 78.76 19.14 80.16 19.14 80.86 19.14 81.505 19.035 82.095 18.825 82.685 18.615 83.25 18.34 83.79 18L84.66 19.62C84.02 20.02 83.31 20.37 82.53 20.67 81.75 20.97 80.86 21.12 79.86 21.12zM75.27 12.3L83.07 12.3C83.07 10.82 82.755 9.695 82.125 8.925 81.495 8.155 80.61 7.77 79.47 7.77 78.95 7.77 78.455 7.87 77.985 8.07 77.515 8.27 77.09 8.565 76.71 8.955 76.33 9.345 76.015 9.82 75.765 10.38 75.515 10.94 75.35 11.58 75.27 12.3zM88.83 20.76L88.83 6.18 90.87 6.18 91.08 8.28 91.17 8.28C91.81 7.58 92.505 6.995 93.255 6.525 94.005 6.055 94.82 5.82 95.7 5.82 96.82 5.82 97.695 6.065 98.325 6.555 98.955 7.045 99.42 7.73 99.72 8.61 100.48 7.77 101.245 7.095 102.015 6.585 102.785 6.075 103.62 5.82 104.52 5.82 106.02 5.82 107.135 6.3 107.865 7.26 108.595 8.22 108.96 9.64 108.96 11.52L108.96 20.76 106.5 20.76 106.5 11.85C106.5 10.47 106.28 9.475 105.84 8.865 105.4 8.255 104.72 7.95 103.8 7.95 102.7 7.95 101.48 8.7 100.14 10.2L100.14 20.76 97.68 20.76 97.68 11.85C97.68 10.47 97.46 9.475 97.02 8.865 96.58 8.255 95.89 7.95 94.95 7.95 93.85 7.95 92.63 8.7 91.29 10.2L91.29 20.76 88.83 20.76zM113.7 20.76L113.7 6.18 116.16 6.18 116.16 20.76 113.7 20.76zM114.96 3.18C114.48 3.18 114.075 3.03 113.745 2.73 113.415 2.43 113.25 2.05 113.25 1.59 113.25 1.11 113.415.725 113.745.435 114.075.145 114.48 0 114.96 0 115.44 0 115.845.145 116.175.435 116.505.725 116.67 1.11 116.67 1.59 116.67 2.05 116.505 2.43 116.175 2.73 115.845 3.03 115.44 3.18 114.96 3.18zM124.89 21.12C123.85 21.12 122.86 20.93 121.92 20.55 120.98 20.17 120.16 19.69 119.46 19.11L120.69 17.46C121.33 17.98 121.985 18.4 122.655 18.72 123.325 19.04 124.1 19.2 124.98 19.2 125.94 19.2 126.66 18.98 127.14 18.54 127.62 18.1 127.86 17.56 127.86 16.92 127.86 16.54 127.76 16.21 127.56 15.93 127.36 15.65 127.105 15.405 126.795 15.195 126.485 14.985 126.13 14.8 125.73 14.64 125.33 14.48 124.93 14.32 124.53 14.16 124.01 13.98 123.49 13.775 122.97 13.545 122.45 13.315 121.985 13.035 121.575 12.705 121.165 12.375 120.83 11.99 120.57 11.55 120.31 11.11 120.18 10.58 120.18 9.96 120.18 9.38 120.295 8.835 120.525 8.325 120.755 7.815 121.085 7.375 121.515 7.005 121.945 6.635 122.47 6.345 123.09 6.135 123.71 5.925 124.41 5.82 125.19 5.82 126.11 5.82 126.955 5.98 127.725 6.3 128.495 6.62 129.16 7.01 129.72 7.47L128.55 9.03C128.05 8.65 127.53 8.34 126.99 8.1 126.45 7.86 125.86 7.74 125.22 7.74 124.3 7.74 123.625 7.95 123.195 8.37 122.765 8.79 122.55 9.28 122.55 9.84 122.55 10.18 122.64 10.475 122.82 10.725 123 10.975 123.24 11.195 123.54 11.385 123.84 11.575 124.185 11.745 124.575 11.895 124.965 12.045 125.37 12.2 125.79 12.36 126.31 12.56 126.835 12.77 127.365 12.99 127.895 13.21 128.37 13.485 128.79 13.815 129.21 14.145 129.555 14.55 129.825 15.03 130.095 15.51 130.23 16.09 130.23 16.77 130.23 17.37 130.115 17.93 129.885 18.45 129.655 18.97 129.315 19.43 128.865 19.83 128.415 20.23 127.855 20.545 127.185 20.775 126.515 21.005 125.75 21.12 124.89 21.12zM139.56 21.12C138.58 21.12 137.665 20.945 136.815 20.595 135.965 20.245 135.225 19.745 134.595 19.095 133.965 18.445 133.47 17.65 133.11 16.71 132.75 15.77 132.57 14.7 132.57 13.5 132.57 12.3 132.755 11.225 133.125 10.275 133.495 9.325 133.985 8.52 134.595 7.86 135.205 7.2 135.9 6.695 136.68 6.345 137.46 5.995 138.27 5.82 139.11 5.82 140.03 5.82 140.855 5.98 141.585 6.3 142.315 6.62 142.925 7.08 143.415 7.68 143.905 8.28 144.28 9 144.54 9.84 144.8 10.68 144.93 11.62 144.93 12.66 144.93 12.92 144.925 13.175 144.915 13.425 144.905 13.675 144.88 13.89 144.84 14.07L135 14.07C135.1 15.63 135.585 16.865 136.455 17.775 137.325 18.685 138.46 19.14 139.86 19.14 140.56 19.14 141.205 19.035 141.795 18.825 142.385 18.615 142.95 18.34 143.49 18L144.36 19.62C143.72 20.02 143.01 20.37 142.23 20.67 141.45 20.97 140.56 21.12 139.56 21.12zM134.97 12.3L142.77 12.3C142.77 10.82 142.455 9.695 141.825 8.925 141.195 8.155 140.31 7.77 139.17 7.77 138.65 7.77 138.155 7.87 137.685 8.07 137.215 8.27 136.79 8.565 136.41 8.955 136.03 9.345 135.715 9.82 135.465 10.38 135.215 10.94 135.05 11.58 134.97 12.3zM152.34 21.12C151.3 21.12 150.31 20.93 149.37 20.55 148.43 20.17 147.61 19.69 146.91 19.11L148.14 17.46C148.78 17.98 149.435 18.4 150.105 18.72 150.775 19.04 151.55 19.2 152.43 19.2 153.39 19.2 154.11 18.98 154.59 18.54 155.07 18.1 155.31 17.56 155.31 16.92 155.31 16.54 155.21 16.21 155.01 15.93 154.81 15.65 154.555 15.405 154.245 15.195 153.935 14.985 153.58 14.8 153.18 14.64 152.78 14.48 152.38 14.32 151.98 14.16 151.46 13.98 150.94 13.775 150.42 13.545 149.9 13.315 149.435 13.035 149.025 12.705 148.615 12.375 148.28 11.99 148.02 11.55 147.76 11.11 147.63 10.58 147.63 9.96 147.63 9.38 147.745 8.835 147.975 8.325 148.205 7.815 148.535 7.375 148.965 7.005 149.395 6.635 149.92 6.345 150.54 6.135 151.16 5.925 151.86 5.82 152.64 5.82 153.56 5.82 154.405 5.98 155.175 6.3 155.945 6.62 156.61 7.01 157.17 7.47L156 9.03C155.5 8.65 154.98 8.34 154.44 8.1 153.9 7.86 153.31 7.74 152.67 7.74 151.75 7.74 151.075 7.95 150.645 8.37 150.215 8.79 150 9.28 150 9.84 150 10.18 150.09 10.475 150.27 10.725 150.45 10.975 150.69 11.195 150.99 11.385 151.29 11.575 151.635 11.745 152.025 11.895 152.415 12.045 152.82 12.2 153.24 12.36 153.76 12.56 154.285 12.77 154.815 12.99 155.345 13.21 155.82 13.485 156.24 13.815 156.66 14.145 157.005 14.55 157.275 15.03 157.545 15.51 157.68 16.09 157.68 16.77 157.68 17.37 157.565 17.93 157.335 18.45 157.105 18.97 156.765 19.43 156.315 19.83 155.865 20.23 155.305 20.545 154.635 20.775 153.965 21.005 153.2 21.12 152.34 21.12z"></path></g></g></g></g></svg> 