<?xml version="1.0" encoding="UTF-8"?> <svg xmlns="http://www.w3.org/2000/svg" width="143" height="100" viewBox="0 0 143 100"><g fill="none"><path fill="#FFF" d="M97.1208333,29.0598291 C82.7357143,29.2307692 64.6904762,32.9059829 56.7744048,40.6837607 C52.7738095,44.6153846 51.3267857,49.4017094 52.6035714,54.7863248 C54.0505952,60.7692308 58.902381,64.1025641 62.9880952,65.2136752 C64.435119,65.6410256 65.5416667,65.6410256 65.8821429,65.5555556 C65.6267857,65.3846154 64.9458333,64.7008547 64.9458333,64.7008547 L64.0946429,63.5897436 C63.4136905,62.5641026 62.9029762,61.3675214 62.5625,60.0854701 C62.3071429,59.2307692 62.2220238,58.4615385 62.2220238,57.6068376 C62.2220238,55.2136752 63.2434524,52.9059829 65.1160714,50.9401709 C69.627381,46.2393162 79.2458333,43.8461538 93.7160714,43.9316239 L102.313095,44.1025641 L102.483333,44.1025641 L102.568452,43.8461538 C102.82381,43.0769231 103.760119,40.2564103 104.100595,36.4957265 C104.355952,34.3589744 104.270833,32.0512821 104.015476,29.4871795 L103.930357,29.2307692 L103.760119,29.1452991 C101.8875,29.1452991 99.6744048,29.0598291 97.1208333,29.0598291 L97.1208333,29.0598291 Z M68.4357143,0.341880342 C66.3928571,0.512820513 64.1797619,0.94017094 62.7327381,1.36752137 L62.647619,1.36752137 L62.477381,1.45299145 L62.3922619,1.62393162 C61.2857143,5.38461538 56.0934524,9.48717949 53.625,11.5384615 L52.6035714,12.3931624 L51.752381,13.1623932 C49.7095238,14.8717949 47.8369048,16.4957265 46.0494048,18.3760684 C44.602381,19.9145299 42.6446429,22.2222222 41.2827381,24.6153846 C40.1761905,26.5811966 39.410119,28.8034188 38.9845238,31.2820513 C38.8142857,32.4786325 38.6440476,33.7606838 38.6440476,34.8717949 C38.6440476,35.2991453 38.6440476,35.8119658 38.7291667,36.2393162 L38.7291667,36.6666667 C38.8142857,37.8632479 39.0696429,38.8888889 39.239881,39.5726496 C39.239881,39.4871795 39.325,39.3162393 39.325,39.3162393 L39.6654762,38.034188 L39.7505952,37.6923077 L40.1761905,36.1538462 C41.197619,33.2478632 42.7297619,30.6837607 44.8577381,28.2905983 C49.3690476,23.2478632 54.1357143,20.5128205 58.8172619,17.8632479 C62.3922619,15.8119658 65.7970238,13.8461538 68.9464286,10.9401709 C73.202381,7.00854701 74.7345238,3.33333333 75.6708333,1.1965812 L75.9261905,0.512820513 L75.7559524,0.512820513 C73.8833333,0.256410256 70.8190476,0.170940171 68.4357143,0.341880342 Z"></path><path fill="#FFF" d="M77.0327381,16.4102564 C68.0952381,18.1196581 60.3494048,21.1111111 54.0505952,25.2136752 C46.2196429,30.3418803 42.1339286,35.4700855 40.4315476,42.4786325 C40.4315476,42.6495726 40.3464286,42.8205128 40.3464286,43.0769231 C40.3464286,44.1880342 40.8571429,45.8119658 41.7083333,47.6923077 C42.2190476,48.7179487 42.7297619,49.4871795 43.2404762,50.2564103 C43.2404762,50.2564103 43.3255952,50.3418803 43.3255952,50.4273504 L43.3255952,50.1709402 C43.4107143,49.4871795 43.6660714,48.5470085 44.0916667,47.1794872 C45.1130952,44.4444444 47.4113095,38.2905983 57.9660714,33.1623932 C63.8392857,30.3418803 70.7339286,28.4615385 79.0755952,27.4358974 C88.8642857,26.2393162 97.2910714,26.0683761 103.589881,26.7521368 L103.675,26.7521368 L103.675,26.6666667 C103.079167,23.5897436 101.717262,19.9145299 100.270238,17.2649573 L99.2488095,15.5555556 L98.9934524,15.1282051 L98.9083333,14.957265 L98.8232143,14.8717949 L98.4827381,14.7863248 C97.6315476,14.7008547 95.6738095,14.6153846 92.95,14.6153846 C88.3535714,14.6153846 82.9059524,15.2136752 77.0327381,16.4102564 Z M1.70238095,81.1111111 C1.70238095,82.6495726 2.21309524,83.9316239 3.23452381,84.957265 C4.34107143,86.0683761 5.3625,86.4957265 8.34166667,87.8632479 C12.2571429,89.6581197 14.1297619,90.5982906 14.1297619,93.4188034 C14.1297619,96.1538462 11.9166667,98.1196581 8.9375,98.1196581 C6.89464286,98.1196581 4.93690476,97.5213675 3.66011905,96.4957265 C2.55357143,95.5555556 1.7875,94.2735043 1.44702381,92.5641026 L1.36190476,92.1367521 C0.680952381,92.1367521 0.680952381,92.5641026 0.680952381,92.6495726 C0.680952381,93.6752137 1.02142857,96.9230769 1.27678571,98.4615385 C1.27678571,98.6324786 1.36190476,98.8888889 1.36190476,98.8888889 L1.53214286,98.8888889 L1.7875,98.8034188 L2.38333333,98.5470085 L3.48988095,98.7179487 C4.59642857,98.8888889 6.46904762,99.1452991 8.59702381,99.1452991 C12.3422619,99.1452991 14.0446429,98.2905983 15.0660714,97.4358974 C16.5130952,96.3247863 17.4494048,94.5299145 17.4494048,92.5641026 C17.4494048,88.4615385 14.0446429,86.9230769 10.9803571,85.5555556 C10.8952381,85.5555556 10.810119,85.4700855 10.810119,85.4700855 C6.38392857,83.5042735 4.59642857,82.7350427 4.59642857,79.7435897 C4.59642857,77.0940171 6.46904762,75.2991453 9.36309524,75.2991453 C10.8952381,75.2991453 12.2571429,75.6410256 13.1934524,76.4102564 C14.5553571,77.2649573 14.9809524,78.6324786 15.3214286,79.7435897 L15.4916667,80.2564103 C15.7470238,80.2564103 16.0875,80.1709402 16.0875,80 L15.9172619,78.2905983 L15.9172619,77.9487179 C15.8321429,77.1794872 15.8321429,75.6410256 15.8321429,75.042735 L15.8321429,74.6153846 L15.4916667,74.7008547 C15.5767857,74.7008547 15.0660714,74.8717949 15.0660714,74.8717949 L14.3,74.7863248 L13.0232143,74.6153846 C11.9166667,74.5299145 10.639881,74.4444444 9.70357143,74.4444444 C4.85178571,74.6153846 1.70238095,77.0940171 1.70238095,81.1111111 L1.70238095,81.1111111 Z M39.0696429,83.1623932 C38.9845238,83.1623932 38.9845238,83.4188034 38.9845238,83.4188034 L38.9845238,83.6752137 L39.239881,83.6752137 C39.8357143,83.6752137 41.2827381,83.7606838 41.2827381,85.1282051 C41.2827381,85.8974359 40.7720238,87.1794872 40.3464286,88.2051282 L40.2613095,88.2905983 L37.0267857,95.5555556 C37.0267857,95.6410256 36.8565476,95.7264957 36.7714286,95.7264957 C36.6863095,95.7264957 36.6011905,95.6410256 36.5160714,95.5555556 C36.0053571,94.017094 33.2815476,85.8974359 33.2815476,85.1282051 C33.2815476,84.017094 34.1327381,83.9316239 35.3244048,83.8461538 L35.5797619,83.7606838 L35.5797619,83.2478632 L28.3446429,83.2478632 C28.1744048,83.2478632 28.0892857,83.2478632 28.0892857,83.5042735 L28.0892857,83.6752137 C28.8553571,83.7606838 29.1958333,83.8461538 29.5363095,84.2735043 C29.8767857,84.7863248 30.3875,85.982906 31.1535714,87.8632479 L31.1535714,88.034188 L27.5785714,95.5555556 C27.5785714,95.6410256 27.4083333,95.7264957 27.3232143,95.7264957 C27.2380952,95.7264957 27.1529762,95.6410256 27.0678571,95.5555556 L25.1952381,90.7692308 L24.5994048,89.2307692 L24.4291667,88.8034188 C23.8333333,87.2649573 23.322619,85.7264957 23.322619,85.1282051 C23.322619,84.2735043 23.8333333,83.8461538 25.110119,83.7606838 L25.3654762,83.7606838 L25.3654762,83.6752137 L25.3654762,83.5042735 L25.3654762,83.2478632 L18.5559524,83.2478632 L18.5559524,83.4188034 C18.5559524,83.6752137 18.5559524,83.6752137 18.8964286,83.8461538 C19.3220238,84.017094 19.6625,84.5299145 20.3434524,85.8974359 C21.7053571,88.974359 23.9184524,94.7008547 25.2803571,98.5470085 C25.2803571,98.6324786 25.5357143,99.1452991 25.5357143,99.1452991 L26.8125,98.974359 L26.897619,98.974359 L26.9827381,98.7179487 C28.1744048,95.8974359 28.7702381,94.7008547 31.3238095,89.7435897 C31.4089286,89.6581197 31.4940476,89.5726496 31.5791667,89.5726496 C31.6642857,89.5726496 31.7494048,89.6581197 31.8345238,89.7435897 C33.2815476,93.7606838 34.2178571,96.9230769 34.6434524,98.4615385 C34.7285714,98.7179487 34.8136905,99.1452991 34.8988095,99.1452991 L35.9202381,98.974359 C36.2607143,98.974359 36.3458333,98.8034188 36.5160714,98.6324786 L37.452381,96.4957265 L37.7928571,95.8119658 C38.9845238,93.2478632 40.2613095,90.4273504 41.197619,88.7179487 C42.3041667,86.5811966 43.5809524,84.3589744 44.5172619,83.9316239 C44.772619,83.8461538 44.772619,83.7606838 44.772619,83.5042735 L44.772619,83.3333333 L40.0059524,83.3333333 L39.0696429,83.1623932 L39.0696429,83.1623932 Z M48.7732143,75.2991453 C48.7732143,76.0683761 49.7095238,76.9230769 50.3904762,76.9230769 C51.2416667,76.9230769 52.1779762,75.982906 52.1779762,75.1282051 C52.1779762,74.3589744 51.2416667,73.4188034 50.4755952,73.4188034 C49.7946429,73.5042735 48.7732143,74.4444444 48.7732143,75.2991453 L48.7732143,75.2991453 Z M50.7309524,82.8205128 L48.4327381,83.8461538 L46.7303571,84.6153846 L46.6452381,84.7008547 C46.389881,84.8717949 46.389881,84.8717949 46.389881,85.042735 L46.389881,85.2136752 L46.8154762,85.2991453 C48.8583333,85.5555556 48.8583333,86.2393162 48.8583333,90.2564103 C48.8583333,92.5641026 48.8583333,95.6410256 48.5178571,96.6666667 C48.2625,97.6068376 47.6666667,97.9487179 46.389881,98.2051282 C45.9642857,98.2905983 45.9642857,98.2905983 45.9642857,98.5470085 L45.9642857,98.7179487 L47.4964286,98.7179487 L50.3904762,98.6324786 L53.539881,98.7179487 L54.6464286,98.7179487 L54.6464286,98.2051282 L54.3059524,98.1196581 C52.8589286,98.034188 51.922619,97.9487179 51.6672619,96.6666667 C51.4970238,96.0683761 51.4970238,94.017094 51.4970238,90.4273504 L51.5821429,84.957265 C51.5821429,84.8717949 51.752381,82.6495726 51.752381,82.6495726 C51.752381,82.5641026 51.5821429,82.5641026 51.5821429,82.5641026 C51.3267857,82.5641026 51.0714286,82.6495726 50.7309524,82.8205128 L50.7309524,82.8205128 Z M57.2,87.0940171 C57.2,89.6581197 59.4982143,90.7692308 61.4559524,91.7094017 C63.8392857,92.8205128 65.4565476,93.7606838 65.4565476,95.5555556 C65.4565476,96.8376068 64.6053571,98.3760684 62.2220238,98.3760684 C61.5410714,98.3760684 58.2214286,98.2051282 57.285119,94.7008547 L57.114881,94.1880342 C56.7744048,94.1880342 56.6041667,94.2735043 56.6041667,94.3589744 L56.6892857,95.2136752 L56.7744048,96.6666667 L56.7744048,98.7179487 L57.285119,98.7179487 L57.7107143,98.8034188 L58.2214286,98.8888889 C58.902381,98.974359 60.1791667,99.2307692 61.6261905,99.2307692 C62.7327381,99.2307692 68.1803571,99.0598291 68.1803571,94.7863248 C68.1803571,92.0512821 65.7119048,90.9401709 63.6690476,90 C60.775,88.6324786 59.5833333,87.9487179 59.5833333,86.2393162 C59.5833333,85.8119658 59.7535714,83.6752137 62.477381,83.6752137 C64.35,83.6752137 65.7119048,84.7008547 66.6482143,86.5811966 L66.8184524,86.9230769 C67.2440476,86.9230769 67.3291667,86.8376068 67.3291667,86.8376068 L67.3291667,86.6666667 L67.1589286,84.3589744 L67.0738095,83.4188034 C67.0738095,83.3333333 66.9886905,82.991453 66.9886905,82.991453 L66.7333333,83.0769231 L66.4779762,83.0769231 L65.8821429,82.991453 C65.2011905,82.9059829 64.1797619,82.7350427 63.2434524,82.7350427 C57.4553571,82.8205128 57.2,86.4102564 57.2,87.0940171 L57.2,87.0940171 Z M71.3297619,87.0940171 C71.3297619,89.6581197 73.6279762,90.7692308 75.5857143,91.7094017 C77.9690476,92.8205128 79.5863095,93.7606838 79.5863095,95.5555556 C79.5863095,96.8376068 78.735119,98.3760684 76.3517857,98.3760684 C75.6708333,98.3760684 72.3511905,98.2051282 71.414881,94.7008547 L71.2446429,94.1880342 C70.9041667,94.1880342 70.7339286,94.2735043 70.7339286,94.3589744 L70.8190476,95.2136752 L70.9041667,96.6666667 L70.9041667,98.7179487 L71.414881,98.7179487 L71.8404762,98.8034188 L72.3511905,98.8888889 C73.0321429,98.974359 74.3089286,99.2307692 75.7559524,99.2307692 C76.8625,99.2307692 82.310119,99.0598291 82.310119,94.7863248 C82.310119,92.0512821 79.8416667,90.9401709 77.7988095,90 C74.9047619,88.6324786 73.7130952,87.9487179 73.7130952,86.2393162 C73.7130952,85.8119658 73.8833333,83.6752137 76.6071429,83.6752137 C78.4797619,83.6752137 79.8416667,84.7008547 80.7779762,86.5811966 L80.9482143,86.9230769 C81.3738095,86.9230769 81.4589286,86.8376068 81.4589286,86.8376068 L81.4589286,86.6666667 L81.2886905,84.3589744 L81.2035714,83.4188034 C81.2035714,83.3333333 81.1184524,82.991453 81.1184524,82.991453 L80.8630952,83.0769231 L80.6077381,83.0769231 L80.0119048,82.991453 C79.3309524,82.9059829 78.3095238,82.7350427 77.3732143,82.7350427 C71.585119,82.8205128 71.3297619,86.4102564 71.3297619,87.0940171 L71.3297619,87.0940171 Z M93.3755952,75.042735 L90.5666667,75.1282051 L86.0553571,74.957265 L85.885119,74.957265 L85.885119,75.3846154 C85.9702381,75.4700855 86.3958333,75.4700855 86.6511905,75.5555556 C88.7791667,75.8974359 88.9494048,76.8376068 88.9494048,79.4017094 L88.9494048,84.957265 C88.9494048,88.1196581 88.9494048,92.9059829 88.6940476,95.2136752 C88.5238095,96.4957265 88.3535714,98.034188 85.885119,98.2051282 L85.4595238,98.2905983 L85.4595238,98.8034188 L86.0553571,98.8034188 C86.9065476,98.7179487 88.9494048,98.6324786 94.1416667,98.6324786 C99.5041667,98.6324786 101.206548,98.7179487 102.057738,98.8034188 L102.73869,98.8034188 C102.908929,98.8034188 102.994048,98.7179487 103.164286,97.9487179 C104.015476,94.957265 104.185714,93.2478632 104.185714,92.7350427 C104.185714,92.6495726 104.185714,92.5641026 103.589881,92.5641026 C103.504762,92.5641026 103.419643,92.9059829 103.419643,93.1623932 C103.079167,94.3589744 102.398214,95.8974359 101.121429,96.5811966 C99.7595238,97.4358974 97.0357143,97.4358974 94.652381,97.4358974 C93.1202381,97.4358974 92.2690476,97.4358974 92.0136905,96.3247863 C91.7583333,95.1282051 91.6732143,91.025641 91.6732143,87.6068376 C91.6732143,85.6410256 91.6732143,79.0598291 92.0136905,77.5213675 C92.2690476,76.0683761 93.2053571,75.6410256 94.822619,75.5555556 L95.2482143,75.4700855 L95.2482143,75.1282051 C95.2482143,74.957265 95.2482143,74.957265 95.0779762,74.957265 L93.3755952,75.042735 L93.3755952,75.042735 Z M109.122619,75.2991453 C109.122619,76.0683761 110.058929,76.9230769 110.739881,76.9230769 C111.591071,76.9230769 112.527381,75.982906 112.527381,75.1282051 C112.527381,74.3589744 111.591071,73.4188034 110.825,73.4188034 C110.144048,73.5042735 109.122619,74.4444444 109.122619,75.2991453 L109.122619,75.2991453 Z M111.080357,82.8205128 L108.782143,83.8461538 L107.079762,84.6153846 L106.994643,84.7008547 C106.739286,84.8717949 106.739286,84.8717949 106.739286,85.042735 L106.739286,85.2136752 L107.164881,85.2991453 C109.207738,85.5555556 109.207738,86.2393162 109.207738,90.2564103 C109.207738,92.5641026 109.207738,95.6410256 108.867262,96.6666667 C108.611905,97.6068376 108.016071,97.9487179 106.739286,98.2051282 C106.31369,98.2905983 106.31369,98.2905983 106.31369,98.5470085 L106.31369,98.7179487 L107.845833,98.7179487 L110.739881,98.6324786 L113.889286,98.7179487 L114.995833,98.7179487 L114.995833,98.2051282 L114.655357,98.1196581 C113.208333,98.034188 112.272024,97.9487179 112.016667,96.6666667 C111.846429,96.0683761 111.846429,94.017094 111.846429,90.4273504 L111.931548,84.8717949 L112.101786,82.5641026 C112.101786,82.4786325 111.931548,82.4786325 111.931548,82.4786325 C111.67619,82.5641026 111.335714,82.6495726 111.080357,82.8205128 L111.080357,82.8205128 Z M121.379762,76.1538462 C119.677381,78.2905983 119.677381,79.8290598 119.592262,83.0769231 C119.592262,83.1623932 119.507143,83.2478632 119.422024,83.3333333 L117.379167,84.2735043 L117.294048,84.7008547 L117.294048,84.8717949 L119.251786,84.7863248 C119.336905,84.7863248 119.336905,84.7863248 119.422024,84.8717949 C119.507143,84.957265 119.507143,84.957265 119.507143,85.042735 L119.422024,95.4700855 C119.336905,97.6068376 119.081548,98.2051282 117.294048,98.4615385 L117.03869,98.5470085 L117.03869,99.0598291 L118.145238,98.974359 L120.528571,98.8888889 L124.358929,98.974359 L125.720833,98.974359 C126.231548,98.974359 126.231548,98.974359 126.231548,98.6324786 L126.231548,98.3760684 L125.97619,98.3760684 C123.3375,98.3760684 122.48631,98.034188 122.40119,95.7264957 L122.316071,85.042735 C122.316071,84.957265 122.316071,84.957265 122.40119,84.8717949 C122.48631,84.7863248 122.48631,84.7863248 122.571429,84.7863248 L127.76369,84.7863248 C128.019048,84.7863248 128.019048,84.7863248 128.019048,84.1025641 L128.019048,83.4188034 L122.656548,83.4188034 C122.48631,83.4188034 122.40119,83.3333333 122.40119,83.1623932 C122.40119,77.2649573 122.571429,74.4444444 126.9125,74.4444444 C128.870238,74.4444444 129.891667,75.1282051 130.4875,75.5555556 L130.827976,75.8119658 C130.998214,75.982906 131.168452,76.1538462 131.253571,76.1538462 C131.508929,76.1538462 133.041071,75.4700855 133.041071,74.7863248 C133.041071,73.8461538 131.508929,72.5641026 128.785119,72.5641026 C125.380357,72.3076923 122.741667,74.2735043 121.379762,76.1538462 L121.379762,76.1538462 Z M129.210714,91.7948718 C129.210714,93.5042735 129.63631,99.1452991 135.594643,99.1452991 C138.318452,99.1452991 140.786905,97.8632479 141.978571,96.7521368 C142.319048,96.4957265 142.319048,96.4102564 142.319048,96.2393162 L142.233929,95.8974359 C142.233929,95.8974359 142.14881,95.7264957 142.14881,95.8119658 C140.191071,97.2649573 138.063095,97.4358974 137.297024,97.4358974 C132.700595,97.4358974 132.019643,92.8205128 131.934524,90.8547009 C131.934524,90.7692308 132.019643,90.5982906 132.104762,90.5982906 C134.828571,90 138.403571,89.3162393 142.14881,88.7179487 L142.14881,88.6324786 C142.14881,88.3760684 142.06369,87.6923077 141.808333,86.8376068 C140.957143,83.7606838 138.403571,82.7350427 136.445833,82.7350427 C132.955952,82.8205128 129.210714,86.1538462 129.210714,91.7948718 L129.210714,91.7948718 Z M132.019643,89.8290598 C131.934524,89.7435897 131.934524,89.7435897 131.934524,89.6581197 C131.934524,86.6666667 133.12619,83.6752137 135.509524,83.6752137 C137.552381,83.6752137 139.169643,85.982906 139.169643,87.4358974 C139.169643,88.034188 138.744048,88.3760684 137.6375,88.6324786 C134.91369,89.3162393 133.892262,89.5726496 132.275,89.8290598 C132.189881,89.9145299 132.104762,89.9145299 132.019643,89.8290598 L132.019643,89.8290598 Z"></path><path fill="#B5B6BB" d="M104.355952,36.6666667 C104.61131,34.4444444 104.52619,32.0512821 104.270833,29.5726496 C104.270833,29.4017094 104.185714,29.3162393 104.100595,29.2307692 C104.015476,29.1452991 103.930357,29.1452991 103.845238,29.1452991 C101.802381,28.974359 99.5892857,28.8888889 97.1208333,28.974359 C82.9059524,29.0598291 64.6904762,32.6495726 56.6041667,40.5982906 C52.8589286,44.2735043 50.9863095,49.0598291 52.4333333,54.957265 C53.9654762,61.6239316 59.5833333,64.6153846 62.9880952,65.5555556 C64.7755952,66.0683761 66.052381,65.8974359 66.052381,65.8974359 C66.052381,65.8974359 66.3077381,65.8974359 66.3077381,65.8119658 C66.3077381,65.7264957 66.1375,65.5555556 66.1375,65.5555556 C66.1375,65.5555556 65.5416667,65.042735 65.1160714,64.6153846 C64.7755952,64.1880342 64.5202381,63.9316239 64.264881,63.5042735 C63.7541667,62.6495726 63.1583333,61.5384615 62.7327381,60 C61.7964286,56.7521368 62.8178571,53.5897436 65.2011905,51.1965812 C69.2017857,47.008547 78.1392857,44.1880342 93.6309524,44.2735043 L102.227976,44.4444444 C102.227976,44.4444444 102.483333,44.4444444 102.568452,44.3589744 C102.653571,44.2735043 102.653571,44.2735043 102.73869,44.017094 C103.334524,42.5641026 104.100595,39.8290598 104.355952,36.6666667 L104.355952,36.6666667 Z M75.7559524,0.341880342 C73.8833333,-3.33066907e-16 70.8190476,-0.0854700855 68.3505952,0.170940171 C66.3928571,0.341880342 64.0946429,0.769230769 62.5625,1.1965812 C62.3922619,1.28205128 62.3071429,1.28205128 62.2220238,1.36752137 C62.1369048,1.36752137 62.1369048,1.45299145 62.1369048,1.62393162 C60.860119,5.98290598 54.0505952,10.7692308 52.3482143,12.2222222 C49.964881,14.2735043 47.7517857,16.0683761 45.7089286,18.2051282 C44.0065476,20.0854701 42.1339286,22.3076923 40.9422619,24.5299145 C39.6654762,26.8376068 38.9845238,29.0598291 38.6440476,31.2820513 C38.3035714,33.1623932 38.3035714,34.957265 38.3886905,36.3247863 L38.3886905,36.7521368 C38.5589286,38.7179487 38.8994048,39.5726496 38.9845238,39.7435897 C39.0696429,39.9145299 39.0696429,40.0854701 39.239881,40.0854701 C39.410119,40.0854701 39.410119,39.8290598 39.410119,39.6581197 C39.4952381,39.4871795 39.6654762,38.7179487 39.8357143,38.1196581 C40.0910714,37.3504274 40.1761905,37.008547 40.4315476,36.2393162 C41.1125,34.2735043 42.3892857,31.4529915 45.0279762,28.5470085 C53.0291667,19.6581197 61.7964286,17.8632479 69.1166667,11.1965812 C73.7130952,6.92307692 75.160119,2.99145299 76.0964286,0.854700855 C76.1815476,0.683760684 76.2666667,0.598290598 76.1815476,0.512820513 C76.0964286,0.341880342 76.0113095,0.341880342 75.7559524,0.341880342 Z"></path><path fill="#B5B6BB" d="M100.440476,17.2649573 C100.1,16.6666667 99.5041667,15.6410256 99.1636905,15.042735 C98.9934524,14.7863248 99.0785714,14.8717949 98.9934524,14.7863248 C98.8232143,14.6153846 98.4827381,14.6153846 98.4827381,14.6153846 C97.5464286,14.5299145 95.4184524,14.4444444 92.95,14.4444444 C88.5238095,14.3589744 83.0761905,14.957265 77.0327381,16.1538462 C68.0952381,17.8632479 60.2642857,20.9401709 53.9654762,25.042735 C47.1559524,29.4871795 42.1339286,34.4444444 40.2613095,42.4786325 C39.9208333,43.7606838 40.7720238,45.982906 41.6232143,47.7777778 C42.1339286,48.8888889 42.7297619,49.7435897 43.3255952,50.5982906 C43.4107143,50.6837607 43.4958333,50.8547009 43.5809524,50.7692308 C43.6660714,50.7692308 43.6660714,50.6837607 43.6660714,50.5128205 C43.7511905,49.9145299 43.9214286,48.8034188 44.5172619,47.2649573 C45.5386905,44.4444444 48.0071429,38.3760684 58.2214286,33.4188034 C65.0309524,30.0854701 72.4363095,28.5470085 79.2458333,27.7777778 C89.9708333,26.4957265 98.1422619,26.4102564 103.760119,27.0940171 C103.930357,27.0940171 104.100595,27.1794872 104.100595,27.0940171 C103.930357,26.9230769 103.930357,26.8376068 103.930357,26.6666667 C103.334524,23.7606838 102.057738,20 100.440476,17.2649573 Z"></path><polygon fill="#FFF" points="98.057 31.624 95.078 31.624 95.078 35.043 91.673 35.043 91.673 38.034 95.078 38.034 95.078 41.453 98.057 41.453 98.057 38.034 101.547 38.034 101.547 35.043 98.057 35.043"></polygon><path fill="#B5B6BB" d="M15.2363095,97.6923077 C14.0446429,98.5470085 12.2571429,99.4017094 8.59702381,99.4017094 C5.5327381,99.4017094 2.97916667,98.8034188 2.38333333,98.8034188 C1.9577381,98.8034188 1.87261905,99.1452991 1.44702381,99.1452991 C1.10654762,99.1452991 1.02142857,99.0598291 0.936309524,98.4615385 C0.680952381,96.8376068 0.34047619,93.6752137 0.34047619,92.6495726 C0.34047619,92.3076923 0.595833333,91.8803419 1.27678571,91.8803419 C1.53214286,91.8803419 1.6172619,92.1367521 1.6172619,92.4786325 C1.9577381,94.017094 2.63869048,95.3846154 3.7452381,96.2393162 C5.02202381,97.2649573 6.89464286,97.7777778 8.9375,97.7777778 C11.7464286,97.7777778 13.8744048,95.982906 13.8744048,93.3333333 C13.8744048,90.6837607 12.0869048,89.7435897 8.17142857,87.9487179 C5.1922619,86.5811966 4.17083333,86.1538462 2.97916667,84.957265 C1.6172619,83.6752137 1.36190476,82.1367521 1.36190476,80.9401709 C1.36190476,77.008547 4.25595238,74.2735043 9.70357143,74.2735043 C10.725,74.2735043 12.0017857,74.3589744 13.0232143,74.4444444 C14.0446429,74.5299145 14.8958333,74.7008547 14.9809524,74.7008547 C15.1511905,74.7008547 15.2363095,74.6153846 15.3214286,74.5299145 L15.6619048,74.5299145 C15.9172619,74.5299145 15.9172619,74.7008547 15.9172619,74.8717949 C15.9172619,75.1282051 15.8321429,77.008547 15.9172619,78.034188 C16.002381,78.8034188 16.0875,79.9145299 16.0875,80.0854701 C16.0875,80.4273504 15.5767857,80.5982906 15.2363095,80.5982906 C14.9809524,80.5982906 14.9809524,80.5128205 14.8107143,79.9145299 C14.4702381,78.8034188 14.0446429,77.5213675 12.7678571,76.6666667 C11.8315476,75.982906 10.4696429,75.6410256 9.1077381,75.6410256 C6.55416667,75.6410256 4.59642857,77.1794872 4.59642857,79.8290598 C4.59642857,82.6495726 6.38392857,83.4188034 10.810119,85.3846154 C13.8744048,86.7521368 17.4494048,88.2905983 17.4494048,92.5641026 C17.7047619,95.042735 16.5130952,96.7521368 15.2363095,97.6923077 L15.2363095,97.6923077 Z M44.602381,83.9316239 C43.7511905,84.3589744 42.3892857,86.8376068 41.3678571,88.6324786 C40.4315476,90.4273504 38.8994048,93.7606838 37.7077381,96.4102564 C37.452381,97.0940171 36.8565476,98.3760684 36.7714286,98.5470085 C36.6011905,98.8888889 36.3458333,99.0598291 36.0053571,99.0598291 L35.0690476,99.1452991 C34.8136905,99.1452991 34.7285714,99.1452991 34.5583333,98.2905983 C34.1327381,96.5811966 33.1113095,93.3333333 31.7494048,89.6581197 C29.1958333,94.7008547 28.6,95.8974359 27.4083333,98.6324786 C27.2380952,99.0598291 27.2380952,99.0598291 26.9827381,99.0598291 L25.6208333,99.2307692 C25.4505952,99.2307692 25.4505952,99.1452991 25.1952381,98.5470085 C23.9184524,94.7863248 21.7053571,88.974359 20.2583333,85.8974359 C19.6625,84.7008547 19.3220238,84.1880342 18.9815476,84.017094 C18.5559524,83.7606838 18.4708333,83.7606838 18.4708333,83.3333333 C18.4708333,82.991453 18.5559524,82.9059829 18.8964286,82.9059829 L25.6208333,82.9059829 C25.7910714,82.9059829 25.7910714,83.1623932 25.7910714,83.4188034 C25.7910714,83.8461538 25.7910714,83.9316239 25.2803571,83.9316239 C24.0886905,84.017094 23.7482143,84.4444444 23.7482143,85.042735 C23.7482143,85.7264957 24.4291667,87.4358974 24.939881,89.0598291 C25.5357143,90.5982906 26.1315476,92.3076923 27.4083333,95.4700855 C28.0892857,94.017094 30.2172619,89.6581197 30.9833333,87.9487179 C30.302381,86.1538462 29.7916667,84.8717949 29.4511905,84.4444444 C29.1107143,84.1025641 28.8553571,84.017094 28.1744048,83.9316239 C27.9190476,83.9316239 27.9190476,83.7606838 27.9190476,83.5042735 C27.9190476,83.1623932 28.0041667,82.991453 28.3446429,82.991453 L35.4095238,82.991453 C35.75,82.991453 35.835119,83.1623932 35.835119,83.5042735 C35.835119,83.9316239 35.835119,84.017094 35.3244048,84.1025641 C34.1327381,84.1880342 33.5369048,84.1880342 33.5369048,85.1282051 C33.5369048,85.8119658 36.0053571,93.4188034 36.7714286,95.4700855 C37.8779762,92.991453 39.239881,90.0854701 40.0059524,88.2905983 C40.4315476,87.2649573 41.027381,85.8974359 41.027381,85.1282051 C41.027381,84.1025641 40.0910714,84.017094 39.239881,83.9316239 C38.7291667,83.9316239 38.7291667,83.9316239 38.7291667,83.5042735 C38.7291667,83.1623932 38.7291667,82.991453 39.0696429,82.991453 L44.5172619,82.991453 C44.772619,82.991453 44.8577381,83.1623932 44.8577381,83.4188034 C44.9428571,83.6752137 44.8577381,83.7606838 44.602381,83.9316239 L44.602381,83.9316239 Z M54.4761905,99.0598291 C53.9654762,99.0598291 52.2630952,98.974359 50.3904762,98.974359 C48.9434524,98.974359 46.8154762,99.0598291 46.0494048,99.0598291 C45.7940476,99.0598291 45.7089286,98.974359 45.7089286,98.6324786 C45.7089286,98.2051282 45.7940476,98.1196581 46.3047619,98.034188 C47.5815476,97.7777778 48.0071429,97.5213675 48.2625,96.6666667 C48.6029762,95.7264957 48.6029762,92.5641026 48.6029762,90.3418803 C48.6029762,86.4102564 48.6029762,85.8119658 46.8154762,85.6410256 C46.2196429,85.5555556 46.1345238,85.5555556 46.1345238,85.1282051 C46.1345238,84.7008547 46.3047619,84.7008547 46.6452381,84.4444444 C47.3261905,84.1025641 49.7095238,82.991453 50.6458333,82.6495726 C50.9863095,82.4786325 51.3267857,82.3931624 51.5821429,82.3931624 C51.8375,82.3931624 51.922619,82.4786325 51.922619,82.7350427 C51.922619,83.2478632 51.8375,84.4444444 51.752381,85.042735 C51.752381,85.8974359 51.6672619,87.6068376 51.6672619,90.5982906 C51.6672619,91.7948718 51.6672619,95.982906 51.8375,96.8376068 C52.0077381,97.9487179 52.7738095,98.034188 54.2208333,98.1196581 C54.7315476,98.1196581 54.8166667,98.2051282 54.8166667,98.6324786 C54.9017857,98.974359 54.7315476,99.0598291 54.4761905,99.0598291 L54.4761905,99.0598291 Z M50.3904762,77.2649573 C49.5392857,77.2649573 48.5178571,76.2393162 48.5178571,75.3846154 C48.5178571,74.3589744 49.7095238,73.3333333 50.5607143,73.3333333 C51.4119048,73.3333333 52.5184524,74.3589744 52.5184524,75.2991453 C52.4333333,76.1538462 51.4119048,77.2649573 50.3904762,77.2649573 L50.3904762,77.2649573 Z M61.6261905,99.4017094 C60.0089286,99.4017094 58.7321429,99.1452991 58.0511905,99.0598291 C57.7107143,99.0598291 57.3702381,98.974359 57.285119,98.974359 C57.2,98.974359 56.9446429,99.0598291 56.7744048,99.0598291 C56.5190476,99.0598291 56.4339286,98.8888889 56.4339286,98.5470085 L56.4339286,96.6666667 C56.4339286,96.0683761 56.2636905,94.7008547 56.2636905,94.3589744 C56.2636905,94.017094 56.6041667,94.017094 56.9446429,94.017094 C57.2,94.017094 57.2,94.1025641 57.3702381,94.7008547 C58.1363095,97.6068376 60.689881,98.2051282 62.0517857,98.2051282 C64.5202381,98.2051282 65.0309524,96.5811966 65.0309524,95.6410256 C65.0309524,94.017094 63.6690476,93.1623932 61.2005952,92.0512821 C59.072619,91.025641 56.7744048,89.9145299 56.7744048,87.2649573 C56.7744048,85.4700855 57.9660714,82.7350427 62.9880952,82.7350427 C64.35,82.7350427 65.9672619,83.0769231 66.222619,83.0769231 C66.3077381,83.0769231 66.5630952,82.991453 66.7333333,82.991453 C66.9886905,82.991453 66.9886905,83.0769231 67.0738095,83.6752137 C67.1589286,84.5299145 67.3291667,86.2393162 67.3291667,86.9230769 C67.3291667,87.2649573 67.2440476,87.3504274 66.5630952,87.3504274 C66.3928571,87.3504274 66.3077381,87.2649573 66.1375,86.8376068 C65.7119048,85.8974359 64.6904762,84.1025641 62.2220238,84.1025641 C59.9238095,84.1025641 59.5833333,85.7264957 59.5833333,86.4102564 C59.5833333,87.8632479 60.6047619,88.5470085 63.4988095,89.9145299 C65.5416667,90.8547009 68.0952381,92.0512821 68.0952381,94.957265 C68.4357143,98.7179487 63.8392857,99.4017094 61.6261905,99.4017094 L61.6261905,99.4017094 Z M75.7559524,99.4017094 C74.1386905,99.4017094 72.8619048,99.1452991 72.1809524,99.0598291 C71.8404762,99.0598291 71.5,98.974359 71.414881,98.974359 C71.3297619,98.974359 71.0744048,99.0598291 70.9041667,99.0598291 C70.6488095,99.0598291 70.5636905,98.8888889 70.5636905,98.5470085 L70.5636905,96.6666667 C70.5636905,96.0683761 70.3934524,94.7008547 70.3934524,94.3589744 C70.3934524,94.017094 70.7339286,94.017094 71.0744048,94.017094 C71.3297619,94.017094 71.3297619,94.1025641 71.5,94.7008547 C72.2660714,97.6068376 74.8196429,98.2051282 76.1815476,98.2051282 C78.65,98.2051282 79.1607143,96.5811966 79.1607143,95.6410256 C79.1607143,94.017094 77.7988095,93.1623932 75.3303571,92.0512821 C73.202381,91.025641 70.9041667,89.9145299 70.9041667,87.2649573 C70.9041667,85.4700855 72.0958333,82.7350427 77.1178571,82.7350427 C78.4797619,82.7350427 80.0970238,83.0769231 80.352381,83.0769231 C80.4375,83.0769231 80.6928571,82.991453 80.8630952,82.991453 C81.1184524,82.991453 81.1184524,83.0769231 81.2035714,83.6752137 C81.2886905,84.5299145 81.4589286,86.2393162 81.4589286,86.9230769 C81.4589286,87.2649573 81.3738095,87.3504274 80.6928571,87.3504274 C80.522619,87.3504274 80.4375,87.2649573 80.2672619,86.8376068 C79.8416667,85.8974359 78.8202381,84.1025641 76.3517857,84.1025641 C74.0535714,84.1025641 73.7130952,85.7264957 73.7130952,86.4102564 C73.7130952,87.8632479 74.7345238,88.5470085 77.6285714,89.9145299 C79.6714286,90.8547009 82.225,92.0512821 82.225,94.957265 C82.5654762,98.7179487 77.9690476,99.4017094 75.7559524,99.4017094 L75.7559524,99.4017094 Z M103.589881,98.034188 C103.334524,98.8034188 103.249405,99.1452991 102.908929,99.1452991 C102.142857,99.1452991 101.461905,98.974359 94.3119048,98.974359 C87.7577381,98.974359 86.2255952,99.1452991 85.8,99.1452991 C85.4595238,99.1452991 85.3744048,99.0598291 85.3744048,98.6324786 C85.3744048,98.1196581 85.3744048,98.1196581 86.0553571,98.034188 C88.2684524,97.8632479 88.4386905,96.5811966 88.6089286,95.2136752 C88.8642857,92.8205128 88.8642857,88.034188 88.8642857,84.957265 L88.8642857,79.4017094 C88.8642857,76.8376068 88.6940476,76.0683761 86.7363095,75.8119658 C85.885119,75.7264957 85.8,75.6410256 85.8,75.2991453 C85.8,74.7863248 85.885119,74.7008547 86.2255952,74.7008547 C87.4172619,74.7008547 89.6303571,74.8717949 90.7369048,74.8717949 C92.1839286,74.8717949 94.5672619,74.7008547 95.5035714,74.7008547 C95.7589286,74.7008547 95.9291667,74.7863248 95.9291667,75.1282051 C95.9291667,75.6410256 95.9291667,75.7264957 95.2482143,75.8119658 C93.5458333,75.8974359 92.864881,76.3247863 92.6946429,77.6068376 C92.3541667,79.0598291 92.3541667,85.1282051 92.3541667,87.6068376 C92.3541667,91.1111111 92.3541667,95.1282051 92.6946429,96.3247863 C92.864881,97.2649573 93.4607143,97.2649573 95.0779762,97.2649573 C97.4613095,97.2649573 100.1,97.2649573 101.376786,96.4957265 C102.398214,95.8974359 103.079167,94.6153846 103.504762,93.2478632 C103.675,92.7350427 103.760119,92.3931624 103.930357,92.3931624 C104.61131,92.3931624 104.781548,92.5641026 104.781548,92.8205128 C104.61131,93.4188034 104.355952,95.1282051 103.589881,98.034188 L103.589881,98.034188 Z M114.740476,99.0598291 C114.229762,99.0598291 112.527381,98.974359 110.654762,98.974359 C109.207738,98.974359 107.079762,99.0598291 106.31369,99.0598291 C106.058333,99.0598291 105.973214,98.974359 105.973214,98.6324786 C105.973214,98.2051282 106.058333,98.1196581 106.569048,98.034188 C107.845833,97.7777778 108.271429,97.5213675 108.526786,96.6666667 C108.867262,95.7264957 108.867262,92.5641026 108.867262,90.3418803 C108.867262,86.4102564 108.867262,85.8119658 107.079762,85.6410256 C106.483929,85.5555556 106.39881,85.5555556 106.39881,85.1282051 C106.39881,84.7008547 106.569048,84.7008547 106.909524,84.4444444 C107.590476,84.1025641 109.97381,82.991453 110.910119,82.6495726 C111.250595,82.4786325 111.591071,82.3931624 111.846429,82.3931624 C112.101786,82.3931624 112.186905,82.4786325 112.186905,82.7350427 C112.186905,83.2478632 112.101786,84.4444444 112.016667,85.042735 C112.016667,85.8974359 111.931548,87.6068376 111.931548,90.5982906 C111.931548,91.7948718 111.931548,95.982906 112.101786,96.8376068 C112.272024,97.9487179 113.038095,98.034188 114.485119,98.1196581 C114.995833,98.1196581 115.080952,98.2051282 115.080952,98.6324786 C115.166071,98.974359 115.080952,99.0598291 114.740476,99.0598291 L114.740476,99.0598291 Z M110.739881,77.2649573 C109.88869,77.2649573 108.867262,76.2393162 108.867262,75.3846154 C108.867262,74.3589744 110.058929,73.3333333 110.910119,73.3333333 C111.76131,73.3333333 112.867857,74.3589744 112.867857,75.2991453 C112.782738,76.1538462 111.76131,77.2649573 110.739881,77.2649573 L110.739881,77.2649573 Z M131.083333,76.1538462 C130.827976,76.1538462 130.657738,75.8974359 130.147024,75.4700855 C129.63631,75.042735 128.7,74.3589744 126.742262,74.3589744 C122.656548,74.3589744 122.48631,76.8376068 122.48631,82.9059829 L127.84881,82.9059829 C128.189286,82.9059829 128.189286,82.991453 128.189286,83.8461538 C128.189286,84.6153846 128.189286,84.7863248 127.678571,84.7863248 L122.48631,84.7863248 C122.48631,88.3760684 122.48631,93.1623932 122.571429,95.4700855 C122.656548,97.6068376 123.3375,97.9487179 125.891071,97.9487179 C126.401786,97.9487179 126.401786,98.034188 126.401786,98.4615385 C126.401786,98.974359 126.316667,99.0598291 125.635714,99.0598291 C125.039881,99.0598291 122.316071,98.974359 120.528571,98.974359 C119.251786,98.974359 117.634524,99.0598291 117.03869,99.0598291 C116.868452,99.0598291 116.783333,98.8034188 116.783333,98.5470085 C116.783333,98.1196581 116.783333,98.034188 117.294048,97.9487179 C118.91131,97.6923077 119.166667,97.3504274 119.251786,95.2136752 C119.336905,92.7350427 119.336905,87.6068376 119.336905,84.8717949 L117.379167,84.8717949 C117.12381,84.8717949 117.12381,84.7863248 117.12381,84.5299145 C117.12381,84.1025641 117.12381,84.017094 117.294048,83.9316239 L119.336905,82.991453 C119.422024,79.6581197 119.422024,78.2051282 121.124405,75.982906 C122.741667,73.8461538 125.550595,72.0512821 128.614881,72.0512821 C131.508929,72.0512821 133.12619,73.4188034 133.12619,74.5299145 C133.12619,75.3846154 131.33869,76.1538462 131.083333,76.1538462 L131.083333,76.1538462 Z"></path><path fill="#B5B6BB" d="M142.14881,97.008547 C140.701786,98.2905983 138.233333,99.4871795 135.594643,99.4871795 C130.147024,99.4871795 128.955357,94.7863248 128.955357,91.8803419 C128.955357,85.8974359 132.955952,82.6495726 136.616071,82.6495726 C138.403571,82.6495726 141.297619,83.5897436 142.233929,86.9230769 C142.489286,87.8632479 142.659524,88.974359 142.489286,89.0598291 C139.084524,89.5726496 135.679762,90.2564103 132.275,90.9401709 C132.360119,93.5897436 133.381548,97.3504274 137.382143,97.3504274 C138.57381,97.3504274 140.531548,97.008547 142.233929,95.6410256 C142.319048,95.5555556 142.404167,95.4700855 142.489286,95.6410256 C142.489286,95.8974359 142.574405,96.0683761 142.574405,96.3247863 C142.574405,96.5811966 142.489286,96.6666667 142.14881,97.008547 Z M135.509524,83.9316239 C133.296429,83.9316239 132.275,86.8376068 132.189881,89.6581197 C133.807143,89.4017094 134.743452,89.1452991 137.552381,88.4615385 C138.744048,88.1196581 138.914286,87.8632479 138.914286,87.4358974 C138.914286,86.1538462 137.382143,83.9316239 135.509524,83.9316239 Z"></path></g></svg> 