<?xml version="1.0" encoding="UTF-8"?> <svg xmlns="http://www.w3.org/2000/svg" width="100" height="100" viewBox="0 0 100 100"><g fill="none" fill-rule="evenodd"><polygon fill="#B5B6BB" points="0 99.419 99.419 99.419 99.419 0 0 0"></polygon><path fill="#FFF" d="M12.6962626,29.2510101 L24.3407071,29.2510101 L35.4235354,29.2510101 L16.5538384,75.8974747 L83.3336364,75.8974747 C79.4356566,80.8479798 74.4477778,84.9328283 68.7427273,87.7530303 C63.0417172,90.5752525 56.649798,92.1722222 49.8740404,92.1722222 C38.1649495,92.1722222 27.5306061,87.3651515 19.8508081,79.6853535 C18.6649495,78.4994949 17.5932323,77.2156566 16.5538384,75.8974747 C10.8649495,68.6843434 7.43565657,59.6318182 7.43565657,49.7338384 C7.43565657,46.0742424 7.93464646,42.4550505 8.83868687,39.0015152 C9.74474747,35.5469697 11.0659596,32.2530303 12.6962626,29.2510101 M49.8740404,7.29545455 C56.290202,7.29545455 62.3740404,8.73484848 67.8306061,11.2934343 C73.2912121,13.8550505 78.1033333,17.5106061 82.000303,22.0257576 C82.1013131,22.1459596 82.4356566,22.5247475 82.7023232,22.8671717 C82.9649495,23.2075758 83.1932323,23.4984848 83.1932323,23.4984848 L52.749798,23.4984848 L52.749798,65.9368687 L65.4467677,65.9368687 L65.4467677,49.5227273 L76.949798,49.5227273 L76.949798,43.7712121 L65.4467677,43.7712121 L65.4467677,29.2510101 L87.0508081,29.2510101 C88.7316162,32.2863636 90.0811111,35.5722222 90.9790909,39.0015152 C91.8770707,42.429798 92.3821212,46.0237374 92.3821212,49.7338384 C92.3821212,53.1338384 91.9417172,56.4560606 91.1891919,59.6237374 C90.4316162,62.7944444 89.3205051,65.8227273 87.8922222,68.6732323 C87.780101,68.8994949 87.5922222,69.1752525 87.4013131,69.4449495 C87.2134343,69.7136364 87.0316162,69.9964646 86.9114141,70.2156566 L59.4134343,70.2156566 L32.5477778,70.2156566 L51.4164646,23.4984848 L16.4144444,23.4984848 C20.3033333,18.6136364 25.2891919,14.5540404 31.0043434,11.7146465 C36.7174747,8.87828283 43.1568687,7.29545455 49.8740404,7.29545455 M49.7336364,2.66515152 C36.7508081,2.66515152 24.9912121,7.97727273 16.4841414,16.4843434 C7.97707071,24.9914141 2.73565657,36.7510101 2.73565657,49.7338384 C2.73565657,62.7156566 7.97707071,74.4055556 16.4841414,82.9126263 C24.9912121,91.4166667 36.7508081,96.7308081 49.7336364,96.7308081 C62.7134343,96.7308081 74.4750505,91.4166667 82.9821212,82.9126263 C91.4871717,74.4055556 96.7306061,62.7156566 96.7306061,49.7338384 C96.7306061,36.7510101 91.4871717,24.9914141 82.9821212,16.4843434 C74.4750505,7.97727273 62.7134343,2.66515152 49.7336364,2.66515152"></path></g></svg> 